?xml version="1.0" encoding="UTF-8" standalone="no"?>
<svg
   xmlns:dc="http://purl.org/dc/elements/1.1/"
   xmlns:cc="http://creativecommons.org/ns#"
   xmlns:rdf="http://www.w3.org/1999/02/22-rdf-syntax-ns#"
   xmlns:svg="http://www.w3.org/2000/svg"
   xmlns="http://www.w3.org/2000/svg"
   xmlns:sodipodi="http://sodipodi.sourceforge.net/DTD/sodipodi-0.dtd"
   xmlns:inkscape="http://www.inkscape.org/namespaces/inkscape"
   viewBox="0 0 1446.56 2562"
   version="1.1"
   id="svg285"
   sodipodi:docname="app_splash_screen.svg">
  <metadata
     id="metadata289">
    <rdf:RDF>
      <cc:Work
         rdf:about="">
        <dc:format>image/svg+xml</dc:format>
        <dc:type
           rdf:resource="http://purl.org/dc/dcmitype/StillImage" />
      </cc:Work>
    </rdf:RDF>
  </metadata>
  <sodipodi:namedview
     pagecolor="#ffffff"
     bordercolor="#666666"
     borderopacity="1"
     objecttolerance="10"
     gridtolerance="10"
     guidetolerance="10"
     inkscape:pageopacity="0"
     inkscape:pageshadow="2"
     inkscape:window-width="640"
     inkscape:window-height="480"
     id="namedview287" />
  <defs
     id="defs59">
    <style
       id="style2">.cls-1{fill:#666;}.cls-1,.cls-3{stroke:#000;}.cls-1,.cls-3,.cls-5,.cls-6,.cls-7,.cls-8{stroke-miterlimit:10;}.cls-2{opacity:0.15;}.cls-3{fill:#4d4d4d;stroke-width:3px;}.cls-4{font-size:209.87px;fill:#4bb2ff;font-family:BookmanOldStyle-Bold, Bookman Old Style;font-weight:700;}.cls-5{fill:#575756;stroke-width:20px;stroke:url(#Безымянный_градиент_24);}.cls-6{fill:#f5f5f5;stroke:#fff;stroke-width:10px;opacity:0.18;}.cls-7{stroke-width:13px;fill:url(#Безымянный_градиент_8);stroke:url(#Угасающее_небо);}.cls-8{fill:none;stroke:#35a8e0;stroke-width:6px;}</style>
    <linearGradient
       id="Безымянный_градиент_24"
       x1="242.13"
       y1="834"
       x2="1229.87"
       y2="834"
       gradientUnits="userSpaceOnUse">
      <stop
         offset="0"
         stop-color="#2580c3"
         id="stop4" />
      <stop
         offset="0.28"
         stop-color="#267fc2"
         stop-opacity="0.99"
         id="stop6" />
      <stop
         offset="0.38"
         stop-color="#2a7cc0"
         stop-opacity="0.96"
         id="stop8" />
      <stop
         offset="0.45"
         stop-color="#3175bc"
         stop-opacity="0.89"
         id="stop10" />
      <stop
         offset="0.51"
         stop-color="#3a6db6"
         stop-opacity="0.81"
         id="stop12" />
      <stop
         offset="0.56"
         stop-color="#4761af"
         stop-opacity="0.69"
         id="stop14" />
      <stop
         offset="0.6"
         stop-color="#5653a5"
         stop-opacity="0.55"
         id="stop16" />
      <stop
         offset="0.64"
         stop-color="#69429a"
         stop-opacity="0.39"
         id="stop18" />
      <stop
         offset="0.68"
         stop-color="#7e2f8e"
         stop-opacity="0.2"
         id="stop20" />
      <stop
         offset="0.71"
         stop-color="#941b80"
         stop-opacity="0"
         id="stop22" />
      <stop
         offset="0.71"
         stop-color="#931d81"
         stop-opacity="0.06"
         id="stop24" />
      <stop
         offset="0.73"
         stop-color="#912584"
         stop-opacity="0.25"
         id="stop26" />
      <stop
         offset="0.74"
         stop-color="#8f2c87"
         stop-opacity="0.41"
         id="stop28" />
      <stop
         offset="0.76"
         stop-color="#8d3189"
         stop-opacity="0.53"
         id="stop30" />
      <stop
         offset="0.78"
         stop-color="#8c348a"
         stop-opacity="0.61"
         id="stop32" />
      <stop
         offset="0.82"
         stop-color="#8b368b"
         stop-opacity="0.66"
         id="stop34" />
      <stop
         offset="0.91"
         stop-color="#8b378b"
         stop-opacity="0.68"
         id="stop36" />
      <stop
         offset="0.92"
         stop-color="#823d90"
         stop-opacity="0.62"
         id="stop38" />
      <stop
         offset="0.95"
         stop-color="#694f9e"
         stop-opacity="0.45"
         id="stop40" />
      <stop
         offset="0.98"
         stop-color="#416cb4"
         stop-opacity="0.19"
         id="stop42" />
      <stop
         offset="1"
         stop-color="#2580c3"
         stop-opacity="0"
         id="stop44" />
    </linearGradient>
    <linearGradient
       id="Безымянный_градиент_8"
       x1="587.17"
       y1="615.41"
       x2="893.84"
       y2="1674.07"
       gradientUnits="userSpaceOnUse">
      <stop
         offset="0"
         stop-color="#2580c3"
         id="stop47" />
      <stop
         offset="0.89"
         stop-color="#941b80"
         stop-opacity="0"
         id="stop49" />
      <stop
         offset="1"
         stop-color="#2580c3"
         stop-opacity="0"
         id="stop51" />
    </linearGradient>
    <linearGradient
       id="Угасающее_небо"
       x1="559.9"
       y1="960.55"
       x2="916.8"
       y2="960.55"
       gradientUnits="userSpaceOnUse">
      <stop
         offset="0"
         stop-color="#2580c3"
         id="stop54" />
      <stop
         offset="1"
         stop-color="#2580c3"
         stop-opacity="0"
         id="stop56" />
    </linearGradient>
  </defs>
  <g
     id="Слой_2"
     data-name="Слой 2">
    <g
       id="Слой_1-2"
       data-name="Слой 1">
      <path
         id="rect61"
         style="fill:#666666;stroke:#000000;stroke-miterlimit:10"
         d="m 1.5,0.5 h 1440 v 2560 H 1.5 Z"
         class="cls-1" />
      <g
         class="cls-2"
         id="g157">
        <path
           class="cls-3"
           d="m 499.81,1884.12 -105.6,1.52 q -3.12,8.22 -6.87,16.32 l -57.44,0.83 -77.4,1.11 c 14.52,16.12 25.66,33.4 32.94,51.56 a 137.22,137.22 0 0 1 7.82,27.31 L 1.5,1987 v -205.9 l 146.5,-2.1 84.09,-1.2 174,-2.51 92.14,-1.32 z"
           id="path63" />
        <path
           class="cls-3"
           d="m 584.39,2124 1.2,84 -107.82,1.55 -1.44,-100.18 A 655.49,655.49 0 0 0 584.39,2124 Z"
           id="path65" />
        <path
           class="cls-3"
           d="m 1042.53,2127.55 v 0.43 c -0.29,-0.14 -0.58,-0.27 -0.86,-0.42 z"
           id="path67" />
        <path
           class="cls-3"
           d="m 1394,2145.44 v 0.8 l -0.51,-0.8 z"
           id="path69" />
        <path
           class="cls-3"
           d="m 1312,1991.63 -6.25,0.09 v -3.93 c 2.05,1.27 4.16,2.55 6.25,3.84 z"
           id="path71" />
        <path
           class="cls-3"
           d="m 1312,1991.63 -6.25,0.09 v -3.93 c 2.05,1.27 4.16,2.55 6.25,3.84 z"
           id="path73" />
        <path
           class="cls-3"
           d="m 1042.53,2127.55 v 0.43 c -0.29,-0.14 -0.58,-0.27 -0.86,-0.42 z"
           id="path75" />
        <path
           class="cls-3"
           d="m 909.25,2560.5 h -224.6 l -4.12,-286.86 c 22,-8.37 41.52,-18.64 57.89,-30.38 l 86.06,-1.24 a 825,825 0 0 0 80.59,27.65 z"
           id="path77" />
        <path
           class="cls-3"
           d="M 284.81,2551.92 1.5,2556 v -518.69 l 272.24,-3.91 3.61,-0.05 0.31,21.45 0.25,17 v 0 l 0.54,37.64 -27.73,0.4 -22.16,0.32 -97,1.39 v 0 c -5.27,2.14 -10.58,4.23 -16,6.28 a 517.36,517.36 0 0 1 90.29,30.1 l 1,0.44 c 27.51,12.32 52,26.69 72.81,42.73 l 0.31,21.27 3.33,232 0.14,9.37 z"
           id="path79" />
        <path
           class="cls-3"
           d="m 1141.06,2560.5 h 132.29 l -0.79,-55.11 -2.86,-199 q -28.58,1.84 -57.85,2.28 A 1126,1126 0 0 1 1045,2298.8 l 3.76,261.7"
           id="path81" />
        <path
           class="cls-3"
           d="m 497.83,1746.51 2,137.61 -105.6,1.52 q -3.12,8.22 -6.87,16.32 l -134.86,1.94 c 14.52,16.12 25.66,33.4 32.94,51.56 l -134.83,1.94 -3,-205.86 z"
           id="path83" />
        <path
           id="polygon85"
           style="fill:#4d4d4d;stroke:#000000;stroke-width:3px;stroke-miterlimit:10"
           d="m 231.41,1727.96 0.32,22.37 0.4,27.42 1.54,107.52 0.27,18.9 0.43,29.65 -84.08,1.21 -148.79,2.13 v -205.9 z"
           class="cls-3" />
        <path
           class="cls-3"
           d="m 358,2067.69 a 184.43,184.43 0 0 0 -25.4,20 134.59,134.59 0 0 0 -18.34,21.24 l -35.76,0.51 -27.73,0.4 -22.16,0.32 -97,1.39 v 0 l -42.4,0.61 v 0 l -87.71,1.25 v -205.9 l 148.36,-2.14 84.08,-1.2 18.56,-0.27 c 14.52,16.12 25.66,33.4 32.94,51.56 a 137.22,137.22 0 0 1 7.82,27.31 129.14,129.14 0 0 1 2,20.84 c 0,0.88 0,1.75 0,2.63 0,3.57 -0.18,7.13 -0.5,10.67 a 133.48,133.48 0 0 1 -5.35,27.4 Q 296,2038.6 303,2033 a 311.32,311.32 0 0 0 29,20.13 q 12.39,7.64 26,14.56 z"
           id="path87" />
        <path
           class="cls-3"
           d="m 387.34,1902 -57.44,0.83 -0.24,-16.22 64.55,-0.93 q -3.12,8.18 -6.87,16.32 z"
           id="path89" />
        <path
           class="cls-3"
           d="m 358,2067.69 a 184.43,184.43 0 0 0 -25.4,20 l -0.49,-34.52 q 12.28,7.6 25.89,14.52 z"
           id="path91" />
        <path
           class="cls-3"
           d="m 413.15,2091.27 h -0.4 v -0.15 z"
           id="path93" />
        <path
           class="cls-3"
           d="m 410.77,1953.66 0.17,12.19 q -15.46,7.58 -30.09,15.66 Q 360,1993 341,2005.58 q -4.8,3.17 -9.49,6.39 -14.9,10.25 -28.51,21.03 -7,5.57 -13.63,11.28 a 133.48,133.48 0 0 0 5.35,-27.4 c 0.32,-3.54 0.48,-7.1 0.5,-10.67 0,-0.88 0,-1.75 0,-2.63 a 129.14,129.14 0 0 0 -2,-20.84 137.22,137.22 0 0 0 -7.82,-27.31 z"
           id="path95" />
        <path
           class="cls-3"
           d="m 358,2067.69 a 184.43,184.43 0 0 0 -25.4,20 134.59,134.59 0 0 0 -18.34,21.24 l -35.76,0.51 -27.73,0.4 -22.16,0.32 -97,1.39 v 0 c -5.27,2.14 -10.58,4.23 -16,6.28 a 517.36,517.36 0 0 1 90.29,30.1 l 1,0.44 c 27.51,12.32 52,26.69 72.81,42.73 a 258.09,258.09 0 0 1 23.98,20.9 l -23.76,0.34 -95.63,1.37 -129.48,1.86 -53.32,0.77 v -205.9 l 293.75,-4.22 c 0,3.57 -0.18,7.13 -0.5,10.67 a 133.48,133.48 0 0 1 -5.35,27.4 Q 296,2038.6 303,2033 a 311.32,311.32 0 0 0 29,20.13 q 12.39,7.64 26,14.56 z"
           id="path97" />
        <path
           class="cls-3"
           d="m 413.15,2091.27 h -0.4 v -0.15 z"
           id="path99" />
        <path
           class="cls-3"
           d="m 584.39,2124 1.2,84 -107.82,1.55 -1.44,-100.18 A 655.49,655.49 0 0 0 584.39,2124 Z"
           id="path101" />
        <path
           class="cls-3"
           d="m 712.42,1709.29 a 498.4,498.4 0 0 0 -45.8,34.79 q -15.78,13.53 -29.46,27.84 c -32.81,34.29 -56.4,71.73 -68.86,111.22 a 221.19,221.19 0 0 0 -6.74,27.19 q -13.26,3.54 -26.22,7.41 l -35,0.51 -3,-205.86 z"
           id="path103" />
        <path
           class="cls-3"
           d="m 535.34,1917.74 a 839.93,839.93 0 0 0 -97.27,35.53 q -13.86,6.09 -27.13,12.58 l -0.17,-12.19 -125.33,1.8 C 278.16,1937.3 267,1920 252.5,1903.9 l 134.84,-1.9 q 3.74,-8.09 6.87,-16.32 l 105.6,-1.52 0.49,34.13 z"
           id="path105" />
        <path
           class="cls-3"
           d="m 394.21,1885.64 q -3.12,8.22 -6.87,16.32 l -57.44,0.83 -77.4,1.11 c 14.52,16.12 25.66,33.4 32.94,51.56 a 137.22,137.22 0 0 1 7.82,27.31 129.14,129.14 0 0 1 2,20.84 c 0,0.88 0,1.75 0,2.63 0,3.57 -0.18,7.13 -0.5,10.67 q -10.12,8.41 -21,16.49 c -40.22,29.86 -88.2,56.24 -142.22,78.14 v 0 c -5.27,2.14 -10.58,4.23 -16,6.28 a 909.55,909.55 0 0 1 -114,34.8 v -681 c 206.68,44.88 361,148.77 398.43,276.34 a 217.75,217.75 0 0 1 6.15,27.32 212.61,212.61 0 0 1 2.56,29.9 217.59,217.59 0 0 1 -14.47,80.46 z"
           id="path107" />
        <path
           class="cls-3"
           d="M 1441.5,2144.76 V 2358 c -35.06,56.43 -93.58,106.86 -168.94,147.43 l -2.86,-199 -1.81,-125.72 q 20.41,0.89 41.37,0.59 a 702.16,702.16 0 0 0 85.19,-6.36 l -0.41,-28.63 v -0.8 z"
           id="path109" />
        <path
           class="cls-3"
           d="m 1042.53,2127.55 h -0.85 c 0.28,0.15 0.57,0.28 0.86,0.42 z m 263.16,-139.76 v 3.93 0 l 6.24,-0.09 c -2.02,-1.29 -4.13,-2.57 -6.24,-3.84 z m -892.95,103.34 v 0.15 h 0.4 z M 584.39,2124 a 655.49,655.49 0 0 1 -108.06,-14.66 l 1.44,100.18 107.82,-1.52 z M 354,2065.66 c -0.64,-0.33 -1.29,-0.67 -1.93,-1 -0.64,-0.33 -1.29,-0.69 -1.93,-1 -1.42,-0.76 -2.84,-1.53 -4.24,-2.32 l -2.57,-1.44 q -1.94,-1.1 -3.84,-2.21 c -1,-0.57 -2,-1.15 -2.95,-1.74 -0.95,-0.59 -1.89,-1.17 -2.85,-1.76 h -0.08 l -1.59,-1 A 311.32,311.32 0 0 1 303,2033 q -7,5.57 -13.63,11.28 v 0 c -0.12,0.41 -0.25,0.82 -0.38,1.22 -0.13,0.4 -0.26,0.82 -0.39,1.22 -0.13,0.4 -0.31,1 -0.48,1.46 -0.17,0.46 -0.41,1.22 -0.63,1.83 -0.22,0.61 -0.38,1.09 -0.58,1.64 -0.2,0.55 -0.33,0.89 -0.5,1.34 q -0.36,1 -0.75,1.95 c -0.13,0.35 -0.27,0.71 -0.42,1.06 -0.15,0.35 -0.28,0.71 -0.43,1.06 -0.39,1 -0.8,1.94 -1.22,2.91 l -0.06,0.12 c 0,0.11 -0.09,0.22 -0.14,0.33 -1.36,3.1 -2.83,6.19 -4.42,9.24 l -0.54,1 -0.55,1 v 0 a 192.07,192.07 0 0 1 -27.19,38 l 27.73,-0.4 35.76,-0.51 a 134.59,134.59 0 0 1 18.34,-21.24 184.43,184.43 0 0 1 25.4,-20 c -1.28,-0.51 -2.58,-1.17 -3.92,-1.85 z m 58.7,25.47 v 0.15 h 0.4 z M 584.39,2124 a 655.49,655.49 0 0 1 -108.06,-14.66 l 1.44,100.18 107.82,-1.52 z M 354,2065.66 c -0.64,-0.33 -1.29,-0.67 -1.93,-1 -0.64,-0.33 -1.29,-0.69 -1.93,-1 -1.42,-0.76 -2.84,-1.53 -4.24,-2.32 l -2.57,-1.44 q -1.94,-1.1 -3.84,-2.21 c -1,-0.57 -2,-1.15 -2.95,-1.74 -0.95,-0.59 -1.89,-1.17 -2.85,-1.76 h -0.08 -1.58 l -46.38,0.82 c -0.13,0.35 -0.27,0.71 -0.42,1.06 -0.15,0.35 -0.28,0.71 -0.43,1.06 -0.39,1 -0.8,1.94 -1.22,2.91 l -0.06,0.12 c 0,0.11 -0.09,0.22 -0.14,0.33 -1.36,3.1 -2.83,6.19 -4.42,9.24 l -0.54,1 -0.55,1 v 0 l 0.54,37.64 35.76,-0.51 a 134.59,134.59 0 0 1 18.34,-21.24 184.43,184.43 0 0 1 25.4,-20 c -1.27,-0.62 -2.57,-1.28 -3.91,-1.96 z m 58.7,25.47 v 0.15 h 0.4 z M 584.39,2124 a 655.49,655.49 0 0 1 -108.06,-14.66 l 1.44,100.18 107.82,-1.52 z M 354,2065.66 c -0.64,-0.33 -1.29,-0.67 -1.93,-1 -0.64,-0.33 -1.29,-0.69 -1.93,-1 -1.42,-0.76 -2.84,-1.53 -4.24,-2.32 l -2.57,-1.44 q -1.94,-1.1 -3.84,-2.21 c -1,-0.57 -2,-1.15 -2.95,-1.74 -0.95,-0.59 -1.89,-1.17 -2.85,-1.76 h -0.08 -1.58 l -46.38,0.82 c -0.13,0.35 -0.27,0.71 -0.42,1.06 -0.15,0.35 -0.28,0.71 -0.43,1.06 -0.39,1 -0.8,1.94 -1.22,2.91 a 0.61,0.61 0 0 0 -0.05,0.12 l -0.15,0.33 c -1.36,3.1 -2.83,6.19 -4.42,9.24 l -0.54,1 -0.55,1 v 0 l 0.54,37.64 35.76,-0.51 a 134.59,134.59 0 0 1 18.34,-21.24 184.43,184.43 0 0 1 25.4,-20 c -1.27,-0.62 -2.57,-1.28 -3.91,-1.96 z m 58.7,25.47 v 0.15 h 0.4 z M 584.39,2124 a 655.49,655.49 0 0 1 -108.06,-14.66 l 1.44,100.18 107.82,-1.52 z M 354,2065.66 c -0.64,-0.33 -1.29,-0.67 -1.93,-1 -0.64,-0.33 -1.29,-0.69 -1.93,-1 -1.42,-0.76 -2.84,-1.53 -4.24,-2.32 l -2.57,-1.44 q -1.94,-1.1 -3.84,-2.21 c -1,-0.57 -2,-1.15 -2.95,-1.74 -0.95,-0.59 -1.89,-1.17 -2.85,-1.76 h -0.08 -1.58 l -46.38,0.82 c -0.13,0.35 -0.27,0.71 -0.42,1.06 -0.15,0.35 -0.28,0.71 -0.43,1.06 -0.39,1 -0.8,1.94 -1.22,2.91 a 0.61,0.61 0 0 0 -0.05,0.12 l -0.15,0.33 c -1.36,3.1 -2.83,6.19 -4.42,9.24 l -0.54,1 -0.55,1 v 0 l 0.54,37.64 35.76,-0.51 a 134.59,134.59 0 0 1 18.34,-21.24 184.43,184.43 0 0 1 25.4,-20 c -1.27,-0.62 -2.57,-1.28 -3.91,-1.96 z m 58.7,25.47 v 0.15 h 0.4 z M 584.39,2124 a 655.49,655.49 0 0 1 -108.06,-14.66 l 1.44,100.18 107.82,-1.52 z M 354,2065.66 c -0.64,-0.33 -1.29,-0.67 -1.93,-1 -0.64,-0.33 -1.29,-0.69 -1.93,-1 -1.42,-0.76 -2.84,-1.53 -4.24,-2.32 l -2.57,-1.44 q -1.94,-1.1 -3.84,-2.21 c -1,-0.57 -2,-1.15 -2.95,-1.74 -0.95,-0.59 -1.89,-1.17 -2.85,-1.76 h -0.08 -1.58 l -46.38,0.82 c -0.13,0.35 -0.27,0.71 -0.42,1.06 -0.15,0.35 -0.28,0.71 -0.43,1.06 -0.39,1 -0.8,1.94 -1.22,2.91 a 0.61,0.61 0 0 0 -0.05,0.12 l -0.15,0.33 c -1.36,3.1 -2.83,6.19 -4.42,9.24 l -0.54,1 -0.55,1 v 0 l 0.54,37.64 35.76,-0.51 a 134.59,134.59 0 0 1 18.34,-21.24 184.43,184.43 0 0 1 25.4,-20 c -1.27,-0.62 -2.57,-1.28 -3.91,-1.96 z m 58.7,25.47 v 0.15 h 0.4 z M 584.39,2124 a 655.49,655.49 0 0 1 -108.06,-14.66 l 1.44,100.18 107.82,-1.52 z M 354,2065.66 c -0.64,-0.33 -1.29,-0.67 -1.93,-1 -0.64,-0.33 -1.29,-0.69 -1.93,-1 -1.42,-0.76 -2.84,-1.53 -4.24,-2.32 l -2.57,-1.44 q -1.94,-1.1 -3.84,-2.21 c -1,-0.57 -2,-1.15 -2.95,-1.74 -0.95,-0.59 -1.89,-1.17 -2.85,-1.76 h -0.08 -1.58 l -46.38,0.82 c -0.13,0.35 -0.27,0.71 -0.42,1.06 -0.15,0.35 -0.28,0.71 -0.43,1.06 -0.39,1 -0.8,1.94 -1.22,2.91 a 0.61,0.61 0 0 0 -0.05,0.12 l -0.15,0.33 c -1.36,3.1 -2.83,6.19 -4.42,9.24 l -0.54,1 -0.55,1 v 0 l 0.54,37.64 35.76,-0.51 a 134.59,134.59 0 0 1 18.34,-21.24 184.43,184.43 0 0 1 25.4,-20 c -1.27,-0.62 -2.57,-1.28 -3.91,-1.96 z m 58.7,25.47 v 0.15 h 0.4 z M 584.39,2124 a 655.49,655.49 0 0 1 -108.06,-14.66 l 1.44,100.18 107.82,-1.52 z m -250.66,-69.87 h -0.07 c 1,0.6 1.94,1.19 2.92,1.76 -0.98,-0.58 -1.89,-1.17 -2.85,-1.76 z m 79,37 v 0.15 h 0.4 z M 584.39,2124 a 655.49,655.49 0 0 1 -108.06,-14.66 l 1.44,100.18 107.82,-1.52 z m -250.66,-69.87 h -0.07 c 1,0.6 1.94,1.19 2.92,1.76 -0.98,-0.58 -1.89,-1.17 -2.85,-1.76 z m 79,37 v 0.15 h 0.4 z M 584.39,2124 a 655.49,655.49 0 0 1 -108.06,-14.66 l 1.44,100.18 107.82,-1.52 z m 320.68,145.67 A 825,825 0 0 1 824.48,2242 l -86.06,1.24 c -16.37,11.74 -35.91,22 -57.89,30.38 -38.42,14.64 -84.3,23.46 -133.66,24.17 -105.1,1.51 -195.44,-34.22 -232.15,-85.95 l -11,0.16 a 258.09,258.09 0 0 0 -24.07,-20.93 c -20.79,-16 -45.3,-30.41 -72.81,-42.73 l -1,-0.44 -0.84,1.72 v 0 a 230.6,230.6 0 0 0 -20.69,64.08 v 0 a 212.05,212.05 0 0 0 -2.76,37.24 c 1,71.56 38.23,137.81 101.72,193.34 1.84,1.61 3.71,3.21 5.59,4.81 54.14,45.73 126.2,83.91 210.62,111.41 H 909.24 Z M 585.59,2208 l -1.2,-84 a 655.49,655.49 0 0 1 -108.06,-14.66 l 1.44,100.18 z m -172.44,-116.7 -0.41,-0.14 v 0.15 z m -79.42,-37.14 h -0.07 c 1,0.6 1.94,1.19 2.92,1.76 -0.98,-0.61 -1.89,-1.2 -2.85,-1.79 z M 584.39,2124 a 655.49,655.49 0 0 1 -108.06,-14.66 l 1.44,100.18 107.82,-1.52 z m -171.65,-32.87 v 0.15 h 0.4 z m -79,-37 h -0.07 c 1,0.6 1.94,1.19 2.92,1.76 -0.99,-0.58 -1.9,-1.17 -2.86,-1.76 z M 584.39,2124 a 655.49,655.49 0 0 1 -108.06,-14.66 l 1.44,100.18 107.82,-1.52 z m -171.65,-32.87 v 0.15 h 0.4 z M 354,2065.66 c -0.64,-0.33 -1.29,-0.67 -1.93,-1 -0.64,-0.33 -1.29,-0.69 -1.93,-1 -1.42,-0.76 -2.84,-1.53 -4.24,-2.32 l -2.57,-1.44 q -1.94,-1.1 -3.84,-2.21 c -1,-0.57 -2,-1.15 -2.95,-1.74 -0.95,-0.59 -1.89,-1.17 -2.85,-1.76 h -0.08 -1.58 l -46.38,0.82 c -0.13,0.35 -0.27,0.71 -0.42,1.06 -0.15,0.35 -0.28,0.71 -0.43,1.06 -0.39,1 -0.8,1.94 -1.22,2.91 a 0.61,0.61 0 0 0 -0.05,0.12 l -0.15,0.33 c -1.36,3.1 -2.83,6.19 -4.42,9.24 l -0.54,1 -0.55,1 v 0 l 0.54,37.64 35.76,-0.51 a 134.59,134.59 0 0 1 18.34,-21.24 184.43,184.43 0 0 1 25.4,-20 c -1.27,-0.62 -2.57,-1.28 -3.91,-1.96 z M 584.39,2124 a 655.49,655.49 0 0 1 -108.06,-14.66 l 1.44,100.18 107.82,-1.52 z m -171.65,-32.87 v 0.15 h 0.4 z M 354,2065.66 c -0.64,-0.33 -1.29,-0.67 -1.93,-1 -0.64,-0.33 -1.29,-0.69 -1.93,-1 -1.42,-0.76 -2.84,-1.53 -4.24,-2.32 l -2.57,-1.44 q -1.94,-1.1 -3.84,-2.21 c -1,-0.57 -2,-1.15 -2.95,-1.74 -0.95,-0.59 -1.89,-1.17 -2.85,-1.76 h -0.08 -1.58 l -46.38,0.82 c -0.13,0.35 -0.27,0.71 -0.42,1.06 -0.15,0.35 -0.28,0.71 -0.43,1.06 -0.39,1 -0.8,1.94 -1.22,2.91 a 0.61,0.61 0 0 0 -0.05,0.12 l -0.15,0.33 c -1.36,3.1 -2.83,6.19 -4.42,9.24 l -0.54,1 -0.55,1 v 0 l 0.54,37.64 35.76,-0.51 a 134.59,134.59 0 0 1 18.34,-21.24 184.43,184.43 0 0 1 25.4,-20 c -1.27,-0.62 -2.57,-1.28 -3.91,-1.96 z M 584.39,2124 a 655.49,655.49 0 0 1 -108.06,-14.66 l 1.44,100.18 107.82,-1.52 z m -171.65,-32.87 v 0.15 h 0.4 z M 354,2065.66 c -0.64,-0.33 -1.29,-0.67 -1.93,-1 -0.64,-0.33 -1.29,-0.69 -1.93,-1 -1.42,-0.76 -2.84,-1.53 -4.24,-2.32 l -2.57,-1.44 q -1.94,-1.1 -3.84,-2.21 c -1,-0.57 -2,-1.15 -2.95,-1.74 -0.95,-0.59 -1.89,-1.17 -2.85,-1.76 h -0.08 -1.58 l -46.38,0.82 c -0.13,0.35 -0.27,0.71 -0.42,1.06 -0.15,0.35 -0.28,0.71 -0.43,1.06 -0.39,1 -0.8,1.94 -1.22,2.91 a 0.61,0.61 0 0 0 -0.05,0.12 l -0.15,0.33 c -1.36,3.1 -2.83,6.19 -4.42,9.24 l -0.54,1 -0.55,1 v 0 l 0.54,37.64 35.76,-0.51 a 134.59,134.59 0 0 1 18.34,-21.24 184.43,184.43 0 0 1 25.4,-20 c -1.27,-0.62 -2.57,-1.28 -3.91,-1.96 z M 584.39,2124 a 655.49,655.49 0 0 1 -108.06,-14.66 l 1.44,100.18 107.82,-1.52 z m -171.65,-32.87 v 0.15 h 0.4 z M 354,2065.66 c -0.64,-0.33 -1.29,-0.67 -1.93,-1 -0.64,-0.33 -1.29,-0.69 -1.93,-1 -1.42,-0.76 -2.84,-1.53 -4.24,-2.32 l -2.57,-1.44 q -1.94,-1.1 -3.84,-2.21 c -1,-0.57 -2,-1.15 -2.95,-1.74 -0.95,-0.59 -1.89,-1.17 -2.85,-1.76 h -0.08 -1.58 l -46.38,0.82 c -0.13,0.35 -0.27,0.71 -0.42,1.06 -0.15,0.35 -0.28,0.71 -0.43,1.06 -0.39,1 -0.8,1.94 -1.22,2.91 a 0.61,0.61 0 0 0 -0.05,0.12 l -0.15,0.33 c -1.36,3.1 -2.83,6.19 -4.42,9.24 l -0.54,1 -0.55,1 v 0 l 0.54,37.64 35.76,-0.51 a 134.59,134.59 0 0 1 18.34,-21.24 184.43,184.43 0 0 1 25.4,-20 c -1.27,-0.62 -2.57,-1.28 -3.91,-1.96 z M 584.39,2124 a 655.49,655.49 0 0 1 -108.06,-14.66 l 1.44,100.18 107.82,-1.52 z m -171.65,-32.87 v 0.15 h 0.4 z M 354,2065.66 c -0.64,-0.33 -1.29,-0.67 -1.93,-1 -0.64,-0.33 -1.29,-0.69 -1.93,-1 -1.42,-0.76 -2.84,-1.53 -4.24,-2.32 l -2.57,-1.44 q -1.94,-1.1 -3.84,-2.21 c -1,-0.57 -2,-1.15 -2.95,-1.74 -0.95,-0.59 -1.89,-1.17 -2.85,-1.76 h -0.08 -1.58 l -46.38,0.82 c -0.13,0.35 -0.27,0.71 -0.42,1.06 -0.15,0.35 -0.28,0.71 -0.43,1.06 -0.39,1 -0.8,1.94 -1.22,2.91 a 0.61,0.61 0 0 0 -0.05,0.12 l -0.15,0.33 c -1.36,3.1 -2.83,6.19 -4.42,9.24 l -0.54,1 -0.55,1 v 0 l 0.54,37.64 35.76,-0.51 a 134.59,134.59 0 0 1 18.34,-21.24 184.43,184.43 0 0 1 25.4,-20 c -1.27,-0.62 -2.57,-1.28 -3.91,-1.96 z M 584.39,2124 a 655.49,655.49 0 0 1 -108.06,-14.66 l 1.44,100.18 107.82,-1.52 z m -171.65,-32.87 v 0.15 h 0.4 z M 354,2065.66 c -0.64,-0.33 -1.29,-0.67 -1.93,-1 -0.64,-0.33 -1.29,-0.69 -1.93,-1 -1.42,-0.76 -2.84,-1.53 -4.24,-2.32 l -2.57,-1.44 q -1.94,-1.1 -3.84,-2.21 c -1,-0.57 -2,-1.15 -2.95,-1.74 -0.95,-0.59 -1.89,-1.17 -2.85,-1.76 h -0.08 -1.58 l -46.38,0.82 c -0.13,0.35 -0.27,0.71 -0.42,1.06 -0.15,0.35 -0.28,0.71 -0.43,1.06 -0.39,1 -0.8,1.94 -1.22,2.91 l -0.06,0.12 c 0,0.11 -0.09,0.22 -0.14,0.33 -1.36,3.1 -2.83,6.19 -4.42,9.24 l -0.54,1 -0.55,1 v 0 l 0.54,37.64 35.76,-0.51 a 134.59,134.59 0 0 1 18.34,-21.24 184.43,184.43 0 0 1 25.4,-20 c -1.27,-0.62 -2.57,-1.28 -3.91,-1.96 z M 584.39,2124 a 655.49,655.49 0 0 1 -108.06,-14.66 l 1.44,100.18 107.82,-1.52 z m -171.65,-32.87 v 0.15 h 0.4 z M 354,2065.66 c -0.64,-0.33 -1.29,-0.67 -1.93,-1 -0.64,-0.33 -1.29,-0.69 -1.93,-1 -1.42,-0.76 -2.84,-1.53 -4.24,-2.32 l -2.57,-1.44 q -1.94,-1.1 -3.84,-2.21 c -1,-0.57 -2,-1.15 -2.95,-1.74 -0.95,-0.59 -1.89,-1.17 -2.85,-1.76 h -0.08 l -1.59,-1 A 311.32,311.32 0 0 1 303,2033 q -7,5.57 -13.63,11.28 v 0 c -0.12,0.41 -0.25,0.82 -0.38,1.22 -0.13,0.4 -0.26,0.82 -0.39,1.22 -0.13,0.4 -0.31,1 -0.48,1.46 -0.17,0.46 -0.41,1.22 -0.63,1.83 -0.22,0.61 -0.38,1.09 -0.58,1.64 -0.2,0.55 -0.33,0.89 -0.5,1.34 q -0.36,1 -0.75,1.95 c -0.13,0.35 -0.27,0.71 -0.42,1.06 -0.15,0.35 -0.28,0.71 -0.43,1.06 -0.39,1 -0.8,1.94 -1.22,2.91 l -0.06,0.12 c 0,0.11 -0.09,0.22 -0.14,0.33 -1.36,3.1 -2.83,6.19 -4.42,9.24 l -0.54,1 -0.55,1 v 0 a 192.07,192.07 0 0 1 -27.19,38 l 27.73,-0.4 35.76,-0.51 a 134.59,134.59 0 0 1 18.34,-21.24 184.43,184.43 0 0 1 25.4,-20 c -1.28,-0.51 -2.58,-1.17 -3.92,-1.85 z M 584.39,2124 a 655.49,655.49 0 0 1 -108.06,-14.66 l 1.44,100.18 107.82,-1.52 z m -171.65,-32.87 v 0.15 h 0.4 z M 354,2065.66 c -0.64,-0.33 -1.29,-0.67 -1.93,-1 -0.64,-0.33 -1.29,-0.69 -1.93,-1 -1.42,-0.76 -2.84,-1.53 -4.24,-2.32 l -2.57,-1.44 q -1.94,-1.1 -3.84,-2.21 c -1,-0.57 -2,-1.15 -2.95,-1.74 -0.95,-0.59 -1.89,-1.17 -2.85,-1.76 h -0.08 l -1.59,-1 A 311.32,311.32 0 0 1 303,2033 q -7,5.57 -13.63,11.28 v 0 q -4.44,3.81 -8.71,7.71 c -1,0.92 -2,1.84 -3,2.77 a 360.72,360.72 0 0 0 -49.1,55.35 l 22.16,-0.32 27.73,-0.4 35.76,-0.51 a 134.59,134.59 0 0 1 18.34,-21.24 184.43,184.43 0 0 1 25.4,-20 c -1.31,-0.64 -2.61,-1.3 -3.95,-1.98 z M 584.39,2124 a 655.49,655.49 0 0 1 -108.06,-14.66 l 1.44,100.18 107.82,-1.52 z m -171.65,-32.87 v 0.15 h 0.4 z m 981.26,54.31 h -0.5 l 0.51,0.8 z m -124.3,160.92 q -28.58,1.84 -57.85,2.28 A 1126,1126 0 0 1 1045,2298.8 l 3.76,261.7 h 92.31 c 47.83,-15.29 92,-33.84 131.5,-55.11 z"
           id="path111" />
        <path
           class="cls-3"
           d="m 1441.5,1989.77 v 155 l -47.94,0.69 v 0 l -85.56,1.23 -1.69,-117.47 70,-1 a 157.91,157.91 0 0 1 18,-37.74 z"
           id="path113" />
        <path
           class="cls-3"
           d="m 1042.54,2128 0.69,48.24 -139.48,2 0.9,62.65 -80.17,1.11 q -29.54,-11.91 -56.46,-25.63 c 16,-18.88 24.81,-40 24.49,-62.18 a 81.92,81.92 0 0 0 -3.68,-23 94.74,94.74 0 0 0 -11.23,-23.67 560.22,560.22 0 0 0 73.55,-22.52 l 120.93,-1.74 c 19.63,16.5 43.07,31.41 69.6,44.32 0.32,0.13 0.57,0.26 0.86,0.42 z"
           id="path115" />
        <path
           class="cls-3"
           d="m 1042.53,2127.55 v 0.43 c -0.29,-0.14 -0.58,-0.27 -0.86,-0.42 z"
           id="path117" />
        <path
           class="cls-3"
           d="m 1312,1991.63 -6.25,0.09 v -3.93 c 2.05,1.27 4.16,2.55 6.25,3.84 z"
           id="path119" />
        <path
           class="cls-3"
           d="m 1394,2145.44 v 0.8 l -0.51,-0.8 z"
           id="path121" />
        <path
           class="cls-3"
           d="m 295.25,2006.24 c 0,3.57 -0.18,7.13 -0.5,10.67 a 133.48,133.48 0 0 1 -5.35,27.4 v 0 a 150.56,150.56 0 0 1 -11.49,27.46 v 0 a 192.07,192.07 0 0 1 -27.19,38 l -22.16,0.32 -97,1.39 v 0 c -5.27,2.14 -10.58,4.23 -16,6.28 a 517.36,517.36 0 0 1 90.29,30.1 l 1,0.44 -1.82,1.28 v 0 c -40,28.09 -91.41,50.84 -150.17,65.94 v 0 Q 29,2222.22 1.5,2226.81 v -437 c 54.66,8 104.66,22.45 147.3,41.86 33.16,15.09 61.87,33.18 84.87,53.57 a 230.41,230.41 0 0 1 18.83,18.63 c 14.52,16.12 25.66,33.4 32.94,51.56 a 137.22,137.22 0 0 1 7.82,27.31 129.14,129.14 0 0 1 2,20.84 c -0.01,0.91 0,1.78 -0.01,2.66 z"
           id="path123" />
        <path
           class="cls-3"
           d="m 355.6,2321.33 c 0.67,47 -24,91 -66.75,127.8 -1.78,1.53 -3.59,3 -5.45,4.56 v 0 C 219.4,2506 118.16,2543 1.5,2551.77 V 2101.5 a 662.94,662.94 0 0 1 87.59,10.65 v 0 c 9,1.71 17.79,3.61 26.43,5.67 a 517.36,517.36 0 0 1 90.29,30.1 l 1,0.44 c 27.51,12.32 52,26.69 72.81,42.73 a 258.09,258.09 0 0 1 24.07,20.91 c 32.54,32.14 51.31,69.4 51.91,109.33 z"
           id="path125" />
        <path
           class="cls-3"
           d="m 1441.5,1597.72 v 142.21 l -3,-0.57 a 658.1,658.1 0 0 0 -78.15,-9.85 l -0.29,-20.73 -0.13,-8.79 -47,0.68 -600.48,8.62 q 21,-14.19 44.45,-27.17 3.6,-2 7.25,-3.95 c 48,-25.81 102.75,-47.62 162.64,-64.42 a 1007.76,1007.76 0 0 1 120.6,-25.85 q 37.62,-5.75 76.91,-9 37.88,-3.11 77,-3.68 c 83.58,-1.2 163.6,6.6 237.19,21.84 z"
           id="path127" />
        <path
           class="cls-3"
           d="m 638.81,2124.82 -6.13,0.11 q -24.51,0.36 -48.29,-0.93 a 655.49,655.49 0 0 1 -108.06,-14.66 550.31,550.31 0 0 1 -63.18,-18.07 l -0.41,-0.14 A 450.59,450.59 0 0 1 358,2067.69 q -13.53,-6.92 -25.89,-14.53 A 311.32,311.32 0 0 1 303,2033 q 13.56,-10.82 28.44,-21.06 4.68,-3.23 9.49,-6.39 19,-12.52 39.89,-24.07 14.61,-8.09 30.09,-15.66 13.28,-6.48 27.13,-12.58 a 839.93,839.93 0 0 1 97.27,-35.53 q 13,-3.85 26.22,-7.41 -0.64,3.51 -1.16,7.05 a 210.12,210.12 0 0 0 -2.24,33.88 v 0.28 a 209.73,209.73 0 0 0 2.22,27.39 215.68,215.68 0 0 0 4.78,23.43 q 2.08,8 4.77,15.8 3.74,10.88 8.58,21.5 2.29,5 4.81,9.93 a 279.28,279.28 0 0 0 24.22,38.89 340.37,340.37 0 0 0 31.3,36.37 z"
           id="path129" />
        <path
           class="cls-3"
           d="m 1441.5,1739.93 v 198.83 l -0.11,0.09 h 0.11 v 50.92 h -3 l -44.16,0.64 a 157.91,157.91 0 0 0 -18,37.74 l -70,1 -0.54,-37.48 v 0 l 6.24,-0.09 c -2.08,-1.29 -4.19,-2.57 -6.3,-3.84 q -2.37,-1.43 -4.77,-2.83 l -1.36,-0.8 -5.14,-3 -0.54,-0.31 q -2.58,-1.47 -5.21,-2.92 c -0.91,-0.51 -1.82,-1 -2.74,-1.51 v 0 c -0.74,-0.42 -1.48,-0.83 -2.23,-1.23 l -1.45,-0.79 c -1.75,-1 -3.51,-1.88 -5.28,-2.82 l -0.64,-0.34 c -1.69,-0.89 -3.4,-1.78 -5.11,-2.66 l -0.73,-0.37 q -2.49,-1.29 -5,-2.56 l -1,-0.51 q -2.61,-1.31 -5.25,-2.6 l -0.33,-0.16 q -3.06,-1.5 -6.17,-3 l -0.5,-0.24 q -2.85,-1.35 -5.73,-2.69 c -2.09,-1 -4.19,-1.94 -6.3,-2.89 l -1.26,-0.56 c 0,0 0,0 0,0 q -2.55,-1.15 -5.11,-2.28 c -2.14,-0.94 -4.28,-1.88 -6.44,-2.8 -2.16,-0.92 -4.1,-1.75 -6.17,-2.62 q -7,-2.91 -14.06,-5.72 c -2.22,-0.88 -4.46,-1.75 -6.7,-2.62 l -0.19,-0.07 c -2.37,-0.91 -4.74,-1.81 -7.13,-2.7 l -0.32,-22.19 v 0 -3.73 l 170.15,-2.45 -1.88,-120.77 v -1.5 l -0.78,-54 a 658.1,658.1 0 0 1 78.15,9.85 z"
           id="path131" />
        <path
           class="cls-3"
           d="m 1042.53,2127.55 v 0.43 c -0.29,-0.14 -0.58,-0.27 -0.86,-0.42 z"
           id="path133" />
        <path
           class="cls-3"
           d="m 1194.5,2030.81 0.71,49.22 -587.67,8.45 a 279.28,279.28 0 0 1 -24.22,-38.89 l 75.52,23 c 34.44,2.67 -9.4,-44.3 18.84,-34.4 l 110,-1.58 c 35.83,10.74 77,16.56 120.77,15.94 3.45,-0.05 6.88,-0.14 10.31,-0.27 7.25,-0.27 14.44,-0.72 21.52,-1.34 a 389.93,389.93 0 0 0 88.42,-17.79 z"
           id="path135" />
        <path
           class="cls-3"
           d="m 1312,1991.63 -6.25,0.09 v -3.93 c 2.05,1.27 4.16,2.55 6.25,3.84 z"
           id="path137" />
        <path
           class="cls-3"
           d="m 1394,2145.44 v 0.8 l -0.51,-0.8 z"
           id="path139" />
        <path
           class="cls-3"
           d="m 1394,2145.44 h -0.5 l 0.51,0.8 z"
           id="path141" />
        <path
           class="cls-3"
           d="m 1441.5,1938.76 v 0.09 h -0.11 z"
           id="path143" />
        <path
           class="cls-3"
           d="m 413.15,2091.27 h -0.4 v -0.15 z"
           id="path145" />
        <path
           class="cls-3"
           d="m 768,2216.39 q 26.88,13.7 56.46,25.63 l -86.06,1.24 c -16.37,11.74 -35.91,22 -57.89,30.38 -38.42,14.64 -84.3,23.46 -133.66,24.17 -105.1,1.51 -195.44,-34.22 -232.15,-85.95 l -11,0.16 a 258.09,258.09 0 0 0 -24.07,-20.93 c -20.79,-16 -45.3,-30.41 -72.81,-42.73 l -1,-0.44 a 517.36,517.36 0 0 0 -90.29,-30.1 q 8.08,-3.08 16,-6.28 l 182.69,-2.62 a 134.59,134.59 0 0 1 18.34,-21.24 184.43,184.43 0 0 1 25.4,-20 450.59,450.59 0 0 0 54.79,23.44 v 0.15 h 0.4 a 550.31,550.31 0 0 0 63.18,18.07 l 1.44,100.18 107.82,-1.52 -1.2,-84 q 23.76,1.26 48.29,0.93 l 6.13,-0.11 a 340.37,340.37 0 0 1 -31.27,-36.34 l 243.61,-3.5 a 560.22,560.22 0 0 1 -73.55,22.54 94.74,94.74 0 0 1 11.23,23.67 81.92,81.92 0 0 1 3.68,23 c 0.32,22.2 -8.51,43.32 -24.51,62.2 z"
           id="path147" />
        <path
           class="cls-3"
           d="m 584.39,2124 1.2,84 -107.82,1.55 -1.44,-100.18 A 655.49,655.49 0 0 0 584.39,2124 Z"
           id="path149" />
        <path
           class="cls-3"
           d="m 1093.82,1909.72 1.22,85 -1,1.69 c -20.39,15.56 -35.7,26.9 -65.39,36.75 A 389.93,389.93 0 0 1 940.27,2051 c -7.08,0.62 -14.27,1.07 -21.52,1.34 -3.43,0.13 -6.86,0.22 -10.31,0.27 -43.75,0.62 -84.94,-5.2 -120.77,-15.94 -44.29,-13.28 -80.38,-34.08 -103,-59.51 A 109.83,109.83 0 0 1 666.62,1950 83.74,83.74 0 0 1 658.78,1916.11 V 1916 a 82.29,82.29 0 0 1 4.29,-27.16 q 1.17,-3.57 2.69,-7.07 c 21,-49.14 87.48,-88.75 172.89,-103.3 a 435.16,435.16 0 0 1 132.68,-1.74 214.72,214.72 0 0 1 30.13,33.58 176.1,176.1 0 0 1 10,15.72 l 0.89,61.84 c 6,0.92 11.94,-0.61 17.81,0.41 0,0.6 0,3.71 0,4.31 a 131.31,131.31 0 0 1 -1,18.09 z"
           id="path151" />
        <path
           class="cls-3"
           d="m 1394.45,2174.87 a 702.16,702.16 0 0 1 -85.19,6.36 q -20.94,0.3 -41.37,-0.59 l 1.81,125.72 q -28.58,1.84 -57.85,2.28 A 1126,1126 0 0 1 1045,2298.8 l 3.76,261.7 H 909.25 l -4.18,-290.83 A 825,825 0 0 1 824.48,2242 l 80.17,-1.15 -0.9,-62.65 139.48,-2 -0.69,-48.24 v -0.43 h -0.85 c -26.53,-12.91 -50,-27.82 -69.6,-44.32 l 223.13,-3.21 -0.71,-49.22 -36.2,0.52 -55.25,0.79 -74.36,1.07 c 29.69,-9.85 45,-21.19 65.39,-36.75 l 1,-1.69 -0.21,-14.92 -0.95,-66 -0.06,-4.06 h -1.85 l -62.81,0.9 a 131.31,131.31 0 0 0 1,-18.09 c 0,-0.6 0.07,-3.71 0,-4.31 -5.87,-1 -11.86,0.51 -17.81,-0.41 l -0.89,-61.84 q -1.47,-2.61 -3.06,-5.19 -3.25,-5.34 -7,-10.53 a 214.72,214.72 0 0 0 -30.13,-33.58 435.16,435.16 0 0 0 -132.68,1.74 377.09,377.09 0 0 0 -49.64,11.9 v 0 c -61,19.2 -106.51,52.28 -123.22,91.4 q -1.51,3.49 -2.69,7.07 a 82.29,82.29 0 0 0 -4.29,27.16 v 0.13 c 0,1.8 0.11,3.58 0.26,5.36 a 84.41,84.41 0 0 0 7.58,28.53 109.83,109.83 0 0 0 18.06,27.15 c 22.61,25.43 58.7,46.23 103,59.51 l -110,1.58 c -28.24,-9.9 15.6,37.07 -18.84,34.4 l -75.52,-23 q -2.52,-4.94 -4.81,-9.93 -4.83,-10.64 -8.58,-21.5 -2.67,-7.83 -4.77,-15.8 a 215.68,215.68 0 0 1 -4.78,-23.43 209.73,209.73 0 0 1 -2.22,-27.39 v -0.28 a 207.86,207.86 0 0 1 1.47,-28 q 0.33,-2.93 0.77,-5.83 0.51,-3.54 1.16,-7.05 a 221.19,221.19 0 0 1 6.74,-27.19 247.68,247.68 0 0 1 20,-45.93 c 12.66,-22.75 29.11,-44.59 48.91,-65.29 q 10.13,-10.59 21.43,-20.78 v 0 q 3.95,-3.57 8,-7.06 a 498.4,498.4 0 0 1 45.8,-34.79 l 647.51,-9.3 0.42,29.52 0.78,54 v 1.5 l -6,0.09 -263.09,3.78 0.47,32.79 0.77,53.91 98.92,-1.42 0.49,34.13 v 3.73 0 l 0.32,22.19 q 14.33,5.34 28.08,11.11 3.11,1.31 6.17,2.62 c 2.16,0.92 4.3,1.86 6.44,2.8 q 2.57,1.13 5.12,2.28 l 1.25,0.57 c 2.11,1 4.21,1.92 6.3,2.89 q 2.88,1.34 5.73,2.69 l 0.5,0.24 q 3.1,1.48 6.17,3 l 0.33,0.16 q 2.64,1.29 5.25,2.6 c 2.27,1.14 4.52,2.28 6.76,3.44 1.71,0.88 3.42,1.77 5.11,2.66 l 0.64,0.34 c 1.77,0.94 3.53,1.87 5.28,2.82 l 1.45,0.79 c 0.75,0.4 1.5,0.81 2.24,1.23 0.92,0.49 1.83,1 2.74,1.51 q 2.63,1.45 5.21,2.92 c 2.37,1.35 4.71,2.71 7,4.08 q 2.4,1.41 4.77,2.83 l 0.06,3.93 0.53,37.48 1.69,117.47 85.56,-1.23 0.51,0.8 z"
           id="path153" />
        <path
           id="polygon155"
           style="fill:#4d4d4d;stroke:#000000;stroke-width:3px;stroke-miterlimit:10"
           d="m 1093.33,1875.59 -1.24,-86.7 269.06,-3.87 1.74,120.83 -170.15,2.45 -0.49,-34.13 z"
           class="cls-3" />
      </g>
      <g
         class="cls-2"
         id="g259">
        <path
           class="cls-3"
           d="m 1390.5,446.11 -2.6,0.05 -213.76,3.78 -49.36,0.87 -9.65,-106.69 q -20,-2.92 -39.77,-6.48 l -5.25,-58 -7.11,-78.23 a 640.84,640.84 0 0 1 -122.5,34.73 q -31.9,5.78 -65.41,8.68 L 854.47,16.5 h 497.16 l 6.86,75.84 7.68,84.94 15.91,175.72 z"
           id="path159" />
        <path
           class="cls-3"
           d="m 551,543 -202.47,3.58 -9.86,-108.93 241.55,-4.27 A 304.54,304.54 0 0 0 551,543 Z"
           id="path161" />
        <path
           class="cls-3"
           d="m 568.45,1006.16 h -1 c 0.31,-0.3 0.62,-0.59 1,-0.88 z"
           id="path163" />
        <path
           class="cls-3"
           d="m 545.25,1361.92 h -1.93 l 1.88,-0.54 z"
           id="path165" />
        <path
           class="cls-3"
           d="m 911.57,1274.68 -0.57,-6.3 9.49,-0.17 c -2.96,2.17 -5.92,4.34 -8.92,6.47 z"
           id="path167" />
        <path
           class="cls-3"
           d="m 1441.5,1758.21 v 215.5 l -130.16,2.29 -25.41,0.45 v 0 l -67.86,1.2 q 11,-12 20.85,-24.6 c 0,0 0,0 0,0 v 0 a 355.44,355.44 0 0 0 28.36,-42.32 l -68.66,1.21 -5.83,0.1 -98.91,1.75 h -1.54 l -0.37,-4.06 -8,-87.88 h 0.68 c 2.62,0 5.24,-0.1 7.86,-0.17 l 5.82,-0.15 q 57.86,-1.66 113.29,-8.7 48.27,-6.07 94.38,-16 15.35,-3.28 30.41,-7 9.4,-2.3 18.7,-4.76 v 0 q 3,-0.78 6,-1.59 41.33,-11.12 80.39,-25.27 z"
           id="path169" />
        <path
           class="cls-3"
           d="m 911.57,1274.68 -0.57,-6.3 9.49,-0.17 c -2.96,2.17 -5.92,4.34 -8.92,6.47 z"
           id="path171" />
        <path
           class="cls-3"
           d="m 568.45,1006.16 h -1 c 0.31,-0.3 0.62,-0.59 1,-0.88 z"
           id="path173" />
        <path
           class="cls-3"
           d="m 280,789 a 600.87,600.87 0 0 0 -62.1,82.22 L 2.5,875 V 647.79 l 193,-3.41 c 21.43,22 47.31,41.45 76.56,57.66 z"
           id="path175" />
        <path
           class="cls-3"
           d="M 596,1922.57 287,1928 c -40.9,-53.36 -66.64,-113.8 -72.45,-178.1 -6.17,-68.14 10.73,-132.74 45.78,-189.79 l 78.44,-1.39 c 66.73,62.5 147.63,116.28 238.64,158.67 z"
           id="path177" />
        <path
           class="cls-3"
           d="m 752.22,230.16 -51.71,0.91 v 0 l -41,0.73 v 0 l -90.76,1.6 -1.52,-16.79 -1,-11.22 -0.06,-0.68 -0.17,-1.91 -0.12,-1.34 -0.19,-2.05 -0.29,-3.26 L 564.22,183 555.35,85 Q 547.14,77.1 539.3,69 c -16.86,33.15 -39.65,64.09 -67.49,92.1 l -1,1 c -28.17,28.15 -61.44,53.32 -98.93,74.78 l -51.29,0.91 -318.09,5.6 V 16.5 H 300.57 L 300,10.35 q 2.07,3.09 4.23,6.15 h 428.66 l 19,210 z"
           id="path179" />
        <path
           class="cls-3"
           d="m 141.27,1182.37 a 506.67,506.67 0 0 0 8.77,58.4 l -48.09,0.85 -99.45,1.76 v -227.23 l 153,-2.7 a 484.83,484.83 0 0 0 -14.23,168.92 z"
           id="path181" />
        <path
           class="cls-3"
           d="m 1441.5,346.85 v -68.69 l -9.23,-102.05 -7.69,-84.94 -66.09,1.17 -127.2,2.24 -177.63,3.14 -71.5,1.28 -53.94,1 12.32,136.21 A 640.84,640.84 0 0 0 1063,201.41 l 7.07,78.19 5.25,58 q 19.74,3.56 39.77,6.48 l 9.65,106.69 49.36,-0.87 213.76,-3.78 2.6,-0.05 51,-0.89 h 1"
           id="path183" />
        <path
           id="polyline185"
           style="fill:#4d4d4d;stroke:#000000;stroke-width:3px;stroke-miterlimit:10"
           d="m 1441.5,16.5 h -89.87 -58.95 -246.37 -71.61 l 7.46,82.48 7.69,84.94 71.49,-1.26 45.58,-0.81 259.25,-4.57 66.1,-1.17 9.23,-0.16 1,-0.02"
           class="cls-3" />
        <path
           class="cls-3"
           d="m 1063,201.41 a 640.84,640.84 0 0 1 -122.5,34.73 q -31.9,5.78 -65.41,8.68 Q 850.44,247 825,247.4 c -2.12,0 -4.22,0.07 -6.34,0.09 q -12.95,0.12 -25.77,-0.21 -33.63,-0.84 -66.39,-4.63 14.17,6.53 28,13.45 A 502.82,502.82 0 0 0 707.54,286 Q 689.9,298.69 674,312.58 a 385.39,385.39 0 0 0 -49.67,-25.11 418.78,418.78 0 0 0 -52.25,-17.94 l -3.27,-36.13 -1.4,-15.48 -1.13,-12.53 -0.36,-3.93 -0.19,-2.05 -0.29,-3.26 -1.22,-13.15 -8.87,-98 -3.88,-42.9 -2.32,-25.6 h 497.16 l 7.35,81.22 7.68,84.94 z"
           id="path187" />
        <path
           class="cls-3"
           d="m 1075.36,337.64 -5.25,-58 39.12,-0.69 5.9,65.21 q -20.02,-2.96 -39.77,-6.52 z"
           id="path189" />
        <path
           class="cls-3"
           d="M 674,312.58 A 385.39,385.39 0 0 0 624.33,287.47 L 707.54,286 Q 689.9,298.69 674,312.58 Z"
           id="path191" />
        <path
           class="cls-3"
           d="m 620.23,369 v -0.41 h 0.35 c -0.15,0.17 -0.26,0.3 -0.35,0.41 z"
           id="path193" />
        <path
           class="cls-3"
           d="m 952,362.77 -29.39,0.52 q -19.12,-15.44 -39.47,-30 -29,-20.76 -60.33,-39.64 -7.9,-4.77 -16,-9.42 -25.53,-14.73 -52.4,-28.15 -13.83,-6.92 -28,-13.45 32.71,3.75 66.39,4.63 12.84,0.33 25.77,0.21 c 2.12,0 4.22,-0.05 6.34,-0.09 q 25.46,-0.45 50.16,-2.58 33.48,-2.87 65.41,-8.68 z"
           id="path195" />
        <path
           class="cls-3"
           d="m 818.63,247.49 q -12.95,0.12 -25.77,-0.21 -33.63,-0.84 -66.39,-4.63 14.17,6.53 28,13.45 A 502.82,502.82 0 0 0 707.54,286 Q 689.9,298.69 674,312.58 a 385.39,385.39 0 0 0 -49.67,-25.11 418.78,418.78 0 0 0 -52.25,-17.94 l -3.27,-36.13 -1.4,-15.48 -1.13,-12.53 -0.36,-3.93 -0.48,-5.31 L 564.22,183 555.35,85 Q 547.14,77.1 539.3,69 c -16.86,33.15 -39.65,64.09 -67.49,92.1 l -1,1 c -28.17,28.15 -61.44,53.32 -98.93,74.78 a 544,544 0 0 1 -49.12,24.91 l -2.17,-24 -8.74,-96.61 v 0 L 300.57,16.5 300,10.35 q 2.07,3.09 4.23,6.15 h 493.5 z"
           id="path197" />
        <path
           class="cls-3"
           d="m 620.23,369 v -0.41 h 0.35 c -0.15,0.17 -0.26,0.3 -0.35,0.41 z"
           id="path199" />
        <path
           class="cls-3"
           d="m 551,543 -202.47,3.58 -9.86,-108.93 241.55,-4.27 A 304.54,304.54 0 0 0 551,543 Z"
           id="path201" />
        <path
           class="cls-3"
           d="m 1442.5,445.2 h -1 l -51,0.89 -2.6,0.05 -213.76,3.78 -49.36,0.87 -82.27,1.45 0.71,7.9 2.49,27.51 q 10.05,13 19.37,26.28 4.8,0.3 9.57,0.65 c 2.86,0.21 5.72,0.42 8.57,0.65 h 0.35 c 2.72,0.21 5.43,0.44 8.14,0.67 l 2.49,0.22 c 2,0.17 4,0.36 6,0.55 l 1.2,0.11 v 0 l 1.43,0.14 c 2,0.19 4,0.38 6,0.59 l 6.63,0.68 6.1,0.67 q 4.73,0.52 9.45,1.09 c 96,11.49 187.61,34.28 272.16,66.48 q 4.41,1.68 8.79,3.39 l 6.07,2.39 1.07,0.43 3,1.22 c 2.74,1.1 5.47,2.22 8.2,3.34 q 3.25,1.34 6.5,2.71 l 4.62,2 1,0.42"
           id="path203" />
        <path
           class="cls-3"
           d="M 1045.71,487.67 A 735.15,735.15 0 0 0 954.49,390.35 Q 939,376.51 922.61,363.29 L 952,362.77 940.54,236.14 A 640.84,640.84 0 0 0 1063,201.41 l 12.32,136.23 q 19.74,3.56 39.77,6.48 l 9.65,106.69 -82.27,1.45 z"
           id="path205" />
        <path
           class="cls-3"
           d="m 1441.5,278.16 v 68.69 q -29.32,3.82 -59.42,6.17 -35.5,2.76 -72,3.42 a 1206.2,1206.2 0 0 1 -195,-12.32 q -20,-2.92 -39.77,-6.48 l -5.25,-58 -7.06,-78.23 a 640.84,640.84 0 0 1 -122.5,34.73 q -31.9,5.78 -65.41,8.68 Q 850.44,247 825,247.4 c -2.12,0 -4.22,0.07 -6.34,0.09 q -12.95,0.12 -25.77,-0.21 -20.86,-10 -41,-20.77 C 677.6,186.69 611.24,139 555.35,85 Q 547.14,77.1 539.3,69 514.51,43.58 492.81,16.5 h 948.69"
           id="path207" />
        <path
           class="cls-3"
           d="M 556.91,1490.79 A 422.18,422.18 0 0 1 511.37,1434.18 1165.15,1165.15 0 0 1 363.88,1449 q -11.69,0.42 -23.47,0.64 -38.78,0.68 -76.94,-1.09 -11,-0.49 -22,-1.2 a 1179.87,1179.87 0 0 1 -236,-39.22 l -3,-0.82 v -163.94 l 99.45,-1.75 48.09,-0.85 303.15,-5.35 a 302.21,302.21 0 0 0 0.91,41.82 318.55,318.55 0 0 0 20.19,85.93 l 69,-1.22 h 1.93 z"
           id="path209" />
        <path
           class="cls-3"
           d="m 568.37,1005.3 c -0.34,0.29 -0.65,0.58 -1,0.88 h 1 z m 342.63,263.08 0.57,6.3 c 3,-2.13 6,-4.3 8.92,-6.47 z m -755.48,-254.93 -153,2.7 v 227.22 l 99.45,-1.75 48.09,-0.85 a 506.67,506.67 0 0 1 -8.77,-58.4 484.83,484.83 0 0 1 14.23,-168.92 z M 620.19,368.62 v 0.41 c 0.09,-0.14 0.2,-0.27 0.31,-0.41 z m -158.71,66.87 -122.8,2.17 9.66,106.72 0.2,2.21 L 551,543 a 304.54,304.54 0 0 1 29.22,-109.62 z m 265,-192.84 v 0 q -34.08,-3.91 -66.9,-10.84 v 0 A 700.79,700.79 0 0 1 566.29,205.4 v 0 l 1,11.22 1.52,16.79 3.27,36.13 a 418.78,418.78 0 0 1 52.25,17.94 385.39,385.39 0 0 1 49.67,25.1 Q 689.9,298.71 707.57,286 a 502.82,502.82 0 0 1 46.91,-29.9 q -13.86,-6.91 -28.01,-13.45 z m -106.28,126 v 0.41 c 0.09,-0.14 0.2,-0.27 0.31,-0.41 z m -158.72,66.84 -122.8,2.17 9.66,106.72 0.2,2.21 L 551,543 a 304.54,304.54 0 0 1 29.22,-109.62 z m 158.71,-66.87 v 0.41 c 0.09,-0.14 0.2,-0.27 0.31,-0.41 z m -158.71,66.87 -122.8,2.17 9.66,106.72 0.2,2.21 L 551,543 a 304.54,304.54 0 0 1 29.22,-109.62 z m 104.77,-230.1 v 0 l 1,11.22 z m 0,0 v 0 l 1,11.22 z m 0,0 v 0 l 1,11.22 z m -0.15,-1.57 z m 0,0.21 z m 0.13,1.36 v 0 l 1,11.22 z m -0.15,-1.57 z m 0.15,1.57 v 0 l 1,11.22 z m -0.1,-1 z m 0,-0.32 z m 0,-0.21 z m 0.15,1.57 v 0 l 1,11.22 z m -0.09,-0.92 z m 0,-0.12 z m 0,-0.32 z m 0,-0.21 z m 0.15,1.57 v 0 l 1,11.22 z m -0.09,-0.92 z m 0,-0.12 z m 0,-0.1 z m 0,-0.22 z m 0,-0.11 z m 0,-0.1 z m 0.15,1.57 v 0 l 1,11.22 z m -0.09,-0.94 z m 0,-0.1 z m 0,-0.11 z m 0,-0.21 z m 0,-0.11 z m 0,-0.1 z m 0.15,1.57 v 0 l 1,11.22 z m -0.09,-0.94 z m 0,-0.1 z m 0,-0.11 z m 0,-0.21 z m 0,-0.11 z m 0,-0.11 z m -227.69,233.81 9.66,106.72 q 3.89,-5.21 7.92,-10.29 c 0.68,-0.87 1.37,-1.73 2.06,-2.59 0.39,-0.48 0.77,-1 1.17,-1.45 q 1.39,-1.72 2.8,-3.44 l 0.46,-0.56 c 1.19,-1.44 2.39,-2.88 3.6,-4.3 q 3.47,-4.1 7,-8.12 l 1.86,-2.09 c 0.63,-0.71 1.27,-1.42 1.91,-2.12 0.64,-0.7 1.25,-1.39 1.89,-2.07 q 1.62,-1.78 3.27,-3.55 1.47,-1.57 2.95,-3.12 2.34,-2.48 4.73,-4.92 c 1.29,-1.31 2.58,-2.62 3.87,-3.91 1.29,-1.29 2.74,-2.73 4.13,-4.08 1.39,-1.35 2.78,-2.7 4.18,-4 1.4,-1.3 2.81,-2.67 4.22,-4 q 1.8,-1.68 3.61,-3.32 5.26,-4.81 10.68,-9.46 c 0.85,-0.74 1.7,-1.47 2.56,-2.18 l 1.35,-1.15 c 0.89,-0.75 1.78,-1.5 2.68,-2.23 0.61,-0.52 1.22,-1 1.84,-1.52 l 2.32,-1.9 c 1.23,-1 2.47,-2 3.71,-3 0.83,-0.67 1.67,-1.33 2.51,-2 q 2.83,-2.24 5.71,-4.41 l 2.76,-2.08 q 1.84,-1.4 3.69,-2.74 l 2.89,-2.11 1.44,-1 c 1.1,-0.78 2.2,-1.57 3.3,-2.34 q 1.95,-1.38 3.9,-2.72 a 0.72,0.72 0 0 1 0.15,-0.11 z m 281.51,-69 v 0.41 c 0.09,-0.14 0.2,-0.27 0.31,-0.41 z M 566.25,205.39 v 0 l 1,11.22 z m -0.09,-0.91 z m 0,-0.11 z m 0,-0.13 z m 0,-0.2 z m 0,-0.11 z m 0,-0.11 z m 0,-0.12 z m -227.41,234 9.66,106.72 0.2,2.21 L 551,543 a 304.54,304.54 0 0 1 29.22,-109.62 l -118.75,2.1 z m -14.98,-164.77 -1,-11.15 a 544,544 0 0 0 49.12,-24.91 c 37.49,-21.46 70.76,-46.63 98.93,-74.78 l 1,-1 c -1.39,-0.28 -2.79,-0.54 -4.19,-0.81 v 0 A 1192,1192 0 0 0 311.88,141.17 v 0 q -44.53,-2.52 -90,-1.75 A 1155.23,1155.23 0 0 0 2.5,164 v 711 l 215.35,-3.8 c 0.56,-0.89 1.12,-1.79 1.69,-2.68 0.57,-0.89 1.13,-1.79 1.71,-2.68 0.19,-0.31 0.39,-0.62 0.59,-0.92 q 1.41,-2.2 2.87,-4.41 c 0.4,-0.61 0.8,-1.22 1.21,-1.83 0.52,-0.8 1.06,-1.6 1.59,-2.39 l 0.85,-1.26 1.37,-2 0.86,-1.27 0.44,-0.64 0.71,-1 c 0.15,-0.23 0.31,-0.46 0.47,-0.68 q 1.26,-1.83 2.54,-3.65 l 1.19,-1.68 c 0.51,-0.72 1,-1.45 1.54,-2.17 l 1.22,-1.71 c 1,-1.44 2.08,-2.88 3.14,-4.31 0.3,-0.42 0.6,-0.83 0.91,-1.24 0.31,-0.41 0.7,-0.95 1.05,-1.42 0.69,-0.94 1.39,-1.87 2.1,-2.81 q 0.87,-1.17 1.77,-2.34 c 0.15,-0.2 0.3,-0.41 0.46,-0.61 l 1.29,-1.69 c 0.23,-0.3 0.46,-0.61 0.7,-0.91 l 0.23,-0.3 1.68,-2.17 0.08,-0.1 a 1.63,1.63 0 0 1 0.17,-0.22 3.15,3.15 0 0 1 0.24,-0.3 l 0.5,-0.64 c 0.51,-0.66 1,-1.32 1.54,-2 0.34,-0.44 0.68,-0.87 1,-1.3 0.85,-1.08 1.71,-2.15 2.57,-3.22 0.86,-1.07 1.72,-2.14 2.6,-3.2 0.7,-0.88 1.41,-1.75 2.13,-2.62 l 0.09,-0.1 c 0.65,-0.79 1.3,-1.58 2,-2.37 0.44,-0.55 0.9,-1.09 1.36,-1.63 l 0.15,-0.19 0.31,-0.36 c 0.5,-0.6 1,-1.21 1.52,-1.8 l 1.81,-2.13 c 0.65,-0.77 1.31,-1.53 2,-2.29 0.69,-0.76 1.05,-1.22 1.58,-1.82 l 1,-1.14 1,-1.1 0.35,-0.39 c 0.12,-0.15 0.26,-0.3 0.39,-0.45 l 0.11,-0.13 c 1.16,-1.32 2.33,-2.62 3.5,-3.93 l -7.86,-87 -1.5,-0.84 q -2.7,-1.51 -5.37,-3.06 l -2.36,-1.39 c -0.95,-0.56 -1.91,-1.13 -2.85,-1.71 l -2.42,-1.47 -0.36,-0.22 -2.4,-1.5 c -1.63,-1 -3.24,-2.05 -4.85,-3.09 l -0.62,-0.41 -2.13,-1.41 -2.31,-1.48 q -2.59,-1.75 -5.14,-3.55 l -2.43,-1.72 q -4.9,-3.51 -9.63,-7.16 c -0.74,-0.57 -1.47,-1.13 -2.19,-1.71 q -3.47,-2.71 -6.83,-5.51 l -2.23,-1.87 c -0.74,-0.62 -1.47,-1.25 -2.2,-1.88 q -2.19,-1.89 -4.34,-3.82 l -2.14,-1.93 q -2.12,-1.93 -4.19,-3.9 -2.07,-1.97 -4,-3.9 c -1.37,-1.35 -2.73,-2.72 -4.07,-4.09 C 158.05,606 134.15,559.84 129.64,510 120,403.79 201.08,311.48 323.77,272.93 Z M 566.09,203.7 Z m 0,0.11 z m 0,0.11 z m 0,0.11 z m 0,0.21 z m 0,0.11 z m 0,0.1 z m 0.09,0.94 v 0 l 1,11.22 z m -0.15,-1.58 z m 0,0.11 z m 0,0.11 z m 0,0.21 z m 0,0.11 z m 0,0.1 z m 0.09,0.94 v 0 l 1,11.22 z m -0.15,-1.57 z m 0,0.1 z m 0,0.11 z m 0,0.22 z m 0,0.1 z m 0,0.12 z m 0.09,0.92 v 0 l 1,11.22 z m -0.15,-1.57 z m 0,0.1 z m 0,0.11 z m 0,0.22 z m 0,0.1 z m 0,0.12 z m 0.09,0.92 v 0 l 1,11.22 z m -0.15,-1.57 z m 0,0.21 z m 0,0.32 z m 0.1,1 v 0 l 1,11.22 z m -0.15,-1.57 z m 0.15,1.57 v 0 l 1,11.22 z m -0.15,-1.57 z m 0,0.21 z m 0.13,1.36 v 0 l 1,11.22 z m 0,0 v 0 l 1,11.22 z m 0,0 v 0 l 1,11.22 z m 0,0 v 0 l 1,11.22 z m -104.45,230.14 -122.8,2.17 9.66,106.72 0.2,2.21 L 551,543 a 304.54,304.54 0 0 1 29.22,-109.62 z m 158.71,-66.87 v 0.41 c 0.09,-0.14 0.2,-0.27 0.31,-0.41 z m -158.71,66.87 -122.8,2.17 9.66,106.72 0.2,2.21 L 551,543 a 304.54,304.54 0 0 1 29.22,-109.62 z m 158.71,-66.87 v 0.41 c 0.09,-0.14 0.2,-0.27 0.31,-0.41 z m 106.28,-126 v 0 q -34.08,-3.91 -66.9,-10.84 v 0 a 700.79,700.79 0 0 1 -93.29,-26.41 v 0 l 1,11.22 1.52,16.79 3.27,36.13 a 418.78,418.78 0 0 1 52.25,17.94 385.39,385.39 0 0 1 49.68,25.13 Q 689.9,298.71 707.57,286 a 502.82,502.82 0 0 1 46.91,-29.9 q -13.86,-6.91 -28.01,-13.45 z m -265,192.84 -122.8,2.17 9.66,106.72 0.2,2.21 L 551,543 A 304.54,304.54 0 0 1 580.22,433.38 Z M 620.18,368.59 V 369 c 0.09,-0.14 0.2,-0.27 0.31,-0.41 z m 106.28,-126 v 0 q -12.84,-5.94 -25.94,-11.57 v 0 A 1099.92,1099.92 0 0 0 564.22,183 l 1.19,13.15 0.29,3.26 0.19,2.05 0.16,1.8 v 0.2 0.24 0 0.11 0 0.1 0 0.09 0 0.21 0 0.11 0 0.11 0 l 0.08,0.9 1,11.22 1.52,16.79 3.27,36.13 a 418.78,418.78 0 0 1 52.25,17.94 385.39,385.39 0 0 1 49.83,25.17 Q 689.9,298.71 707.57,286 a 502.82,502.82 0 0 1 46.91,-29.9 q -13.86,-6.91 -28.01,-13.45 z m -265,192.84 -122.8,2.17 9.66,106.72 0.2,2.21 L 551,543 a 304.54,304.54 0 0 1 29.22,-109.62 z m 158.71,-66.87 v 0.41 c 0.09,-0.14 0.2,-0.27 0.31,-0.41 z m -75,992.79 -1.88,0.54 h 1.93 z"
           id="path211" />
        <path
           class="cls-3"
           d="m 936.32,1548.2 -597.58,10.55 q -23.4,-21.9 -44.42,-45.19 a 683.31,683.31 0 0 1 -52.85,-66.23 q 48.91,3.14 98.94,2.29 11.77,-0.21 23.47,-0.64 a 1165.15,1165.15 0 0 0 147.49,-14.8 422.18,422.18 0 0 0 45.54,56.61 L 537.38,1275 l 283.25,-5 6.4,70.73 a 724,724 0 0 1 92.07,17.18 z"
           id="path213" />
        <path
           class="cls-3"
           d="M 567.41,1006.18 451.1,1008.23 438.35,867.32 287.28,870 280,789 a 674.46,674.46 0 0 1 58.64,-57.78 456.15,456.15 0 0 0 206.67,18.64 415.22,415.22 0 0 0 56.46,-12 420.1,420.1 0 0 0 58.55,73.71 l 11.05,122.18 c -38.69,20.3 -73.31,44.4 -103,71.58 -0.37,0.26 -0.65,0.55 -0.96,0.85 z"
           id="path215" />
        <path
           class="cls-3"
           d="m 568.45,1006.16 h -1 c 0.31,-0.3 0.62,-0.59 1,-0.88 z"
           id="path217" />
        <path
           class="cls-3"
           d="m 911.57,1274.68 -0.57,-6.3 9.49,-0.17 c -2.96,2.17 -5.92,4.34 -8.92,6.47 z"
           id="path219" />
        <path
           class="cls-3"
           d="m 545.25,1361.92 h -1.93 l 1.88,-0.54 z"
           id="path221" />
        <path
           class="cls-3"
           d="m 1292.68,16.5 a 376.81,376.81 0 0 1 -61.39,78.08 c -34.5,33.93 -76.49,63.46 -124.37,87.27 v 0 q -21.18,10.54 -43.87,19.55 a 640.84,640.84 0 0 1 -122.5,34.73 q -31.9,5.78 -65.41,8.68 -24.7,2.19 -50.14,2.59 c -2.12,0 -4.22,0.07 -6.34,0.09 q -12.95,0.12 -25.77,-0.21 -33.63,-0.84 -66.39,-4.63 v 0 q -34.08,-3.91 -66.9,-10.84 v 0 A 700.79,700.79 0 0 1 566.31,205.4 v 0 l -0.35,-3.93 -0.19,-2.05 -0.29,-3.26 L 564.22,183 555.35,85 Q 547.14,77.1 539.3,69 c -16.86,33.15 -39.65,64.09 -67.49,92.1 l -1,1 -3.2,-1.81 v 0 C 400,122 343.82,72.89 304.25,16.5 Z"
           id="path223" />
        <path
           class="cls-3"
           d="m 560.39,16.5 q -3.89,13 -8.92,25.6 Q 546,55.77 539.3,69 c -16.86,33.15 -39.65,64.09 -67.49,92.1 l -1,1 c -28.17,28.15 -61.44,53.32 -98.93,74.78 a 544,544 0 0 1 -49.12,24.91 C 247.13,295.58 158.32,315.63 62.05,317.33 Q 32,317.85 2.5,316 V 16.5 H 300.57 L 300,10.35 q 2.07,3.09 4.23,6.15 z"
           id="path225" />
        <path
           class="cls-3"
           d="m 1445.5,1517.6 c -1,1 -2,2 -3,3 l -1,1 q -4.71,4.59 -9.62,9.06 a 470.15,470.15 0 0 1 -67.82,51.2 c -1.18,0.74 -2.38,1.48 -3.58,2.21 a 0.5,0.5 0 0 1 -0.14,0.08 l -4.66,2.83 a 2.79,2.79 0 0 1 -0.33,0.19 l -4.42,2.62 -0.94,0.55 -3.5,2 q -1.2,0.7 -2.43,1.38 l -2.54,1.43 c -1.18,0.66 -2.36,1.31 -3.55,2 l -1.53,0.84 c -1.12,0.61 -2.24,1.22 -3.37,1.81 -0.83,0.45 -1.66,0.9 -2.5,1.34 l -1.45,0.75 c -1.34,0.71 -2.68,1.4 -4,2.09 -1.73,0.89 -3.48,1.77 -5.23,2.65 q -19.84,9.93 -41,18.49 c -1.62,0.66 -3.24,1.31 -4.88,2 h -0.11 q -3.18,1.26 -6.39,2.48 c -2.11,0.81 -4.23,1.6 -6.36,2.39 q -3.54,1.31 -7.13,2.57 c -2.11,0.75 -4.23,1.48 -6.36,2.21 q -2.56,0.88 -5.15,1.74 -2.59,0.86 -5.22,1.71 l -3.94,1.25 -3.38,1.06 q -3.2,1 -6.4,1.94 -2.64,0.79 -5.31,1.56 -9.48,2.73 -19.15,5.2 -3.21,0.83 -6.44,1.61 c -2.1,0.52 -4.22,1 -6.34,1.52 h -0.13 c -1.81,0.43 -3.63,0.84 -5.46,1.25 l -0.64,0.14 -1.87,0.42 -4.22,0.92 q -7,1.5 -14.11,2.86 -3.24,0.63 -6.49,1.22 -6.78,1.23 -13.64,2.34 c -4.5,0.73 -9,1.41 -13.59,2 -1.85,0.26 -3.7,0.52 -5.56,0.76 l -2.16,0.29 -0.69,0.09 c -1.57,0.2 -3.14,0.4 -4.72,0.58 -2.22,0.28 -4.46,0.54 -6.7,0.79 l -2.82,0.31 q -3.63,0.39 -7.28,0.75 -12.8,1.28 -25.81,2.08 -16.45,1 -33.25,1.34 l -6.88,0.09 c -4.83,0 -9.66,0 -14.47,0 q -15.45,-0.15 -30.73,-1 c -1.51,-0.08 -3,-0.16 -4.53,-0.26 q -3,-0.16 -6,-0.37 c -1.19,-0.07 -2.38,-0.16 -3.56,-0.24 -3.18,-0.22 -6.36,-0.47 -9.52,-0.74 q -7.12,-0.59 -14.21,-1.32 l -5.67,-0.61 -3.33,-0.38 q -11.79,-1.35 -23.44,-3.09 -3.15,-0.46 -6.28,-1 l -1.64,-0.26 -3.41,-0.55 -1.32,-0.22 q -3.09,-0.51 -6.17,-1 l -1.92,-0.34 c -1.46,-0.25 -2.91,-0.52 -4.36,-0.79 -3.9,-0.72 -7.79,-1.46 -11.66,-2.25 -1,-0.2 -2.11,-0.42 -3.16,-0.64 -1.66,-0.33 -3.3,-0.68 -5,-1 q -3,-0.62 -5.91,-1.28 c -1.31,-0.29 -2.61,-0.58 -3.91,-0.89 -1.14,-0.25 -2.27,-0.51 -3.4,-0.78 -1.76,-0.4 -3.52,-0.82 -5.27,-1.24 l -5.53,-1.36 q -4.95,-1.23 -9.87,-2.53 c -1.26,-0.34 -2.52,-0.67 -3.78,-1 -0.61,-0.16 -1.22,-0.32 -1.82,-0.5 v 0 c -1.25,-0.33 -2.5,-0.68 -3.74,-1 q -7.51,-2.08 -14.93,-4.35 -2.54,-0.77 -5.06,-1.56 l -3.54,-1.11 q -9,-2.85 -17.78,-5.92 -2.54,-0.87 -5.05,-1.78 -2.51,-0.91 -5,-1.82 -2.5,-0.9 -5,-1.85 -8.25,-3.09 -16.35,-6.38 l -4.52,-1.85 c -1.25,-0.51 -2.5,-1 -3.74,-1.56 -1.62,-0.68 -3.23,-1.36 -4.84,-2.06 q -2.67,-1.14 -5.31,-2.31 l -5.27,-2.36 c -2.39,-1.07 -4.77,-2.17 -7.13,-3.28 l -3,-1.39 c -0.32,-0.14 -0.64,-0.29 -0.95,-0.45 -1.35,-0.64 -2.69,-1.28 -4,-1.94 l -0.87,-0.42 q -2.12,-1 -4.22,-2.06 -4.61,-2.28 -9.15,-4.63 c -1.24,-0.63 -2.48,-1.28 -3.72,-1.93 h -0.06 c -1.55,-0.8 -3.08,-1.62 -4.61,-2.44 -2.08,-1.1 -4.15,-2.23 -6.2,-3.36 q -2.43,-1.34 -4.85,-2.7 c -1.39,-0.77 -2.78,-1.56 -4.16,-2.35 l -1.81,-1 -0.5,-0.29 c -1.54,-0.88 -3.08,-1.78 -4.6,-2.69 l -3,-1.76 -3,-1.81 c -0.25,-0.14 -0.49,-0.29 -0.73,-0.44 l -2.15,-1.31 c -1.49,-0.91 -3,-1.83 -4.43,-2.75 l -3.45,-2.18 -2.53,-1.63 q -5.58,-3.58 -11,-7.29 -5.19,-3.51 -10.27,-7.12 l -254.92,4.29 -36.3,0.64 q 1.56,1.47 3.14,2.92 l 2.2,2 2,1.86 q 1.68,1.55 3.39,3.08 2,1.84 4.1,3.67 l 3.48,3.08 q 4.14,3.63 8.34,7.23 l 3.5,3 c 1.81,1.54 3.64,3.07 5.47,4.59 l 0.39,0.32 q 2.94,2.43 5.92,4.86 l 3.83,3.11 c 1.7,1.37 3.42,2.74 5.14,4.1 1.72,1.36 3.44,2.72 5.18,4.07 l 3.48,2.7 2.52,1.94 1,0.74 c 1.7,1.3 3.42,2.59 5.14,3.89 l 0.36,0.27 c 1.69,1.27 3.4,2.54 5.11,3.8 l 1.08,0.8 0.6,0.43 c 1.82,1.35 3.64,2.68 5.48,4 l 0.46,0.33 c 1,0.74 2,1.48 3.07,2.21 q 3.71,2.65 7.44,5.27 l 3.58,2.5 q 4.31,3 8.66,5.93 c 1.44,1 2.89,2 4.34,2.91 1.45,0.91 3,2 4.57,3 l 0.36,0.24 0.51,0.33 2.82,1.85 2.84,1.85 q 3.09,2 6.21,4 2.22,1.41 4.45,2.81 l 0.25,0.16 0.71,0.44 3,1.89 0.11,0.07 c 1.75,1.09 3.51,2.18 5.28,3.25 1.07,0.66 2.14,1.32 3.21,2 v 0 c 1.17,0.72 2.35,1.43 3.53,2.13 1.18,0.7 2.56,1.54 3.85,2.31 q 6.84,4.07 13.78,8 l 2,1.12 q 2.64,1.52 5.3,3 l 1.79,1 c 2.25,1.25 4.5,2.5 6.77,3.74 l 0.31,0.17 c 0.2,0.12 0.4,0.22 0.6,0.33 2,1.1 4,2.2 6.06,3.28 h 0.06 l 1.86,1 c 0.62,0.33 1.24,0.67 1.87,1 l 1.16,0.62 4.07,2.15 1.82,0.95 0.65,0.34 c 2.25,1.18 4.52,2.35 6.79,3.51 2.27,1.16 4.85,2.46 7.28,3.68 l 2.47,1.23 6.52,3.22 0.93,0.45 0.18,0.09 3.67,1.78 4.1,2 q 4.25,2 8.5,4 4.44,2.07 8.91,4.09 l 2.53,1.14 c 0.84,0.39 1.68,0.77 2.53,1.14 l 5.08,2.26 c 2.12,0.94 4.24,1.87 6.38,2.79 q 2.58,1.13 5.19,2.24 3.81,1.64 7.65,3.23 c 2.15,0.9 4.31,1.8 6.47,2.68 l 5.2,2.12 7,2.82 1.65,0.65 q 3.5,1.38 7,2.73 l 5.27,2 q 5.11,2 10.27,3.84 v 0 l 0.32,0.12 2.66,1 2.67,1 5.34,1.92 q 4,1.42 8,2.82 13,4.53 26.28,8.77 8.21,2.63 16.5,5.14 l 2.24,0.68 7.94,2.36 8.28,2.39 4.42,1.25 4.81,1.34 8.5,2.3 q 4,1.08 8.06,2.12 12.12,3.15 24.37,6 v 0 l 3.47,0.83 q 9,2.1 18.17,4.08 c 3,0.66 6.09,1.3 9.14,1.94 q 5.21,1.08 10.44,2.12 c 2.07,0.41 4.13,0.82 6.2,1.21 q 4.92,1 9.86,1.86 l 6.56,1.19 6.57,1.15 c 2.19,0.37 4.38,0.75 6.58,1.11 q 4.89,0.83 9.81,1.59 c 1.48,0.23 3,0.47 4.45,0.69 l 4.44,0.68 6.86,1 6.88,1 6.9,0.93 6.91,0.89 4.25,0.53 3.56,0.43 2.42,0.29 4.73,0.55 4.73,0.52 q 14.32,1.57 28.77,2.8 6.81,0.58 13.64,1.08 c 1.79,0.14 3.59,0.27 5.39,0.39 l 6.36,0.42 5.4,0.34 3.84,0.22 4,0.22 4.25,0.22 4.79,0.22 6.76,0.29 h 0.15 l 5.49,0.2 2.07,0.08 c 2,0.06 4,0.13 6,0.18 q 3.42,0.11 6.85,0.18 6.86,0.15 13.72,0.23 17.21,0.19 34.53,-0.1 h 0.68 c 2.62,0 5.24,-0.1 7.86,-0.17 l 5.82,-0.15 q 57.86,-1.66 113.29,-8.7 48.27,-6.07 94.38,-16 15.35,-3.28 30.41,-7 9.4,-2.3 18.7,-4.76 v 0 q 3,-0.78 5.93,-1.59 41.31,-11.16 80.37,-25.31"
           id="path227" />
        <path
           class="cls-3"
           d="m 552.12,598.05 c -0.22,-2.07 -0.44,-4.13 -0.62,-6.2 A 301.1,301.1 0 0 1 551,543 a 304.54,304.54 0 0 1 29.22,-109.62 347.26,347.26 0 0 1 40,-64.36 c 0.09,-0.14 0.2,-0.27 0.31,-0.41 a 406.08,406.08 0 0 1 53.43,-56 q 15.9,-13.87 33.57,-26.58 a 502.82,502.82 0 0 1 46.91,-29.9 q 26.85,13.41 52.4,28.15 8,4.65 16,9.42 31.29,18.85 60.33,39.64 20.31,14.54 39.47,30 16.39,13.21 31.88,27.06 a 735.15,735.15 0 0 1 91.22,97.32 q 10.05,13 19.37,26.28 -8.52,-0.56 -17.08,-1 -40.54,-2 -81.85,-1.32 h -0.68 q -33.35,0.62 -65.92,3 -28.45,2.1 -56.25,5.5 -19.08,2.31 -37.83,5.26 -26,4.08 -51.37,9.27 -11.91,2.46 -23.69,5.14 -47.58,10.86 -92.44,25.57 -44.43,14.58 -85.88,32.63 z"
           id="path229" />
        <path
           class="cls-3"
           d="m 1442.5,1318.05 h -1 l -28.8,0.5 -291.34,5.15 -15.56,-171.89 -5,0.09 -57.51,1 c -34.7,42 -75.94,80.68 -122.78,115.28 -3,2.17 -5.92,4.34 -8.92,6.47 l -0.57,-6.3 -90.39,1.65 3.61,39.86 2.76,30.84 a 724,724 0 0 1 92.07,17.18 l 11.66,128.87 5.56,61.45 122.75,-2.16 -12.86,-142 q 8.61,4.15 17,8.54 l 4.58,2.42 q 17,9 33,19 c 0.91,0.55 1.81,1.11 2.71,1.68 q 5.64,3.51 11.14,7.14 c 0.94,0.61 1.88,1.23 2.81,1.86 q 3.18,2.12 6.32,4.27 2.24,1.53 4.44,3.08 l 2.41,1.69 c 0.7,0.5 1.41,1 2.1,1.5 1,0.67 1.9,1.35 2.84,2 q 3.15,2.28 6.26,4.61 c 0.91,0.68 1.82,1.36 2.72,2 0.9,0.64 1.81,1.36 2.7,2.05 q 2.73,2.08 5.41,4.2 7.17,5.64 14.06,11.48 c 0.73,0.61 1.45,1.23 2.17,1.85 q 6.64,5.67 13,11.53 c 1,1 2.07,1.91 3.09,2.86 l 0.38,0.36 c 1.62,1.52 3.23,3 4.82,4.58 q 3.46,3.33 6.84,6.72 c 1,1 2,2 2.93,3 0.93,1 1.94,2 2.89,3 l 2.86,3 c 1,1 1.89,2 2.82,3 0.93,1 1.87,2 2.8,3 0.93,1 1.7,1.87 2.54,2.81 l 2.52,2.84 q 1.62,1.83 3.2,3.68 c 0.86,1 1.71,2 2.56,3 0.85,1 1.75,2.08 2.62,3.13 l 2.58,3.14 86.59,-1.52 3.43,37.91 2.45,27.06 c 1.75,-0.88 3.5,-1.76 5.23,-2.65 l 2,-1 q 7.42,-3.84 14.65,-7.87 c 0.77,-0.43 1.54,-0.86 2.3,-1.3 l 2.43,-1.38 c 1,-0.55 2,-1.12 3,-1.7 0.57,-0.32 1.14,-0.66 1.71,-1 1.41,-0.81 2.8,-1.64 4.19,-2.48 0.31,-0.17 0.62,-0.36 0.92,-0.55 1.37,-0.81 2.72,-1.63 4.07,-2.47 a 0.5,0.5 0 0 0 0.14,-0.08 c 1.2,-0.73 2.39,-1.47 3.58,-2.21 a 470.15,470.15 0 0 0 67.82,-51.2 q 4.9,-4.47 9.62,-9.06 l 1,-1 c 1,-1 2,-2 3,-3"
           id="path231" />
        <path
           class="cls-3"
           d="m 568.45,1006.16 h -1 c 0.31,-0.3 0.62,-0.59 1,-0.88 z"
           id="path233" />
        <path
           class="cls-3"
           d="M 810.41,1157 691.72,1159.1 638,565.42 q 44.79,-14.65 92.41,-25.57 l -51.29,77 c -4.47,34.88 106.33,-10.75 84,18.07 L 773.22,746 c -23.86,36.52 -35.57,78.31 -31.57,122.51 q 0.47,5.24 1.22,10.41 a 194.25,194.25 0 0 0 4.45,21.71 c 8.48,32.07 25,62.09 47.94,88.87 z"
           id="path235" />
        <path
           class="cls-3"
           d="m 911.57,1274.68 -0.57,-6.3 9.49,-0.17 c -2.96,2.17 -5.92,4.34 -8.92,6.47 z"
           id="path237" />
        <path
           class="cls-3"
           d="m 545.25,1361.92 h -1.93 l 1.88,-0.54 z"
           id="path239" />
        <path
           class="cls-3"
           d="m 545.2,1361.41 -1.88,0.54 h 1.93 z m 43,475.81 v 0 l -10.84,-119.81 q -4.26,-2 -8.5,-4 l -4.1,-2 -3.67,-1.78 -0.18,-0.09 -0.93,-0.45 -6.52,-3.22 -2.47,-1.23 c -2.43,-1.22 -4.86,-2.44 -7.28,-3.68 -2.42,-1.24 -4.54,-2.33 -6.79,-3.51 l -0.65,-0.34 -1.82,-0.95 -4.07,-2.15 -1.16,-0.62 c -0.63,-0.32 -1.25,-0.66 -1.87,-1 l -1.86,-1 h -0.06 c -2,-1.08 -4.05,-2.18 -6.06,-3.28 -0.2,-0.11 -0.4,-0.21 -0.6,-0.33 l -0.31,-0.17 c -2.27,-1.23 -4.52,-2.49 -6.77,-3.74 l -1.79,-1 q -2.65,-1.48 -5.3,-3 l -2,-1.12 q -6.94,-4 -13.78,-8 c -1.29,-0.77 -2.57,-1.53 -3.85,-2.31 -1.28,-0.78 -2.36,-1.41 -3.53,-2.13 v 0 c -1.07,-0.64 -2.14,-1.3 -3.21,-2 -1.77,-1.07 -3.53,-2.16 -5.28,-3.25 l -0.11,-0.07 -3,-1.89 -0.71,-0.44 -0.25,-0.16 q -2.24,-1.4 -4.45,-2.81 -3.12,-2 -6.21,-4 l -2.84,-1.85 -2.82,-1.85 -0.51,-0.33 -0.36,-0.24 q -2.3,-1.49 -4.57,-3 c -1.45,-1 -2.9,-1.94 -4.34,-2.91 q -4.35,-2.94 -8.66,-5.93 l -3.58,-2.5 q -3.74,-2.62 -7.44,-5.27 c -1,-0.73 -2.05,-1.47 -3.07,-2.21 l -0.46,-0.33 c -1.84,-1.33 -3.66,-2.66 -5.48,-4 l -0.6,-0.43 -1.08,-0.8 c -1.71,-1.26 -3.42,-2.53 -5.11,-3.8 l -0.36,-0.27 c -1.72,-1.3 -3.44,-2.59 -5.14,-3.89 l -1,-0.74 -2.52,-1.94 -3.48,-2.7 c -1.74,-1.35 -3.46,-2.71 -5.18,-4.07 -1.72,-1.36 -3.44,-2.73 -5.14,-4.1 l -3.83,-3.11 q -3,-2.43 -5.92,-4.86 l -0.39,-0.32 c -1.83,-1.52 -3.66,-3 -5.47,-4.59 l -3.5,-3 q -4.2,-3.6 -8.34,-7.23 l -3.48,-3.08 q -2.06,-1.83 -4.1,-3.67 -1.71,-1.53 -3.39,-3.08 l -2,-1.86 -2.2,-2 q -1.58,-1.45 -3.14,-2.92 -23.4,-21.9 -44.42,-45.19 l -34,46.58 q -1.82,3 -3.56,5.94 c -0.44,0.73 -0.87,1.47 -1.29,2.21 v 0 0.05 l -0.1,0.17 c -0.57,1 -1.16,2 -1.73,3 l -0.05,0.09 -0.06,0.1 c -0.61,1.09 -1.21,2.18 -1.81,3.28 -0.47,0.85 -0.93,1.7 -1.39,2.56 l -0.67,1.25 c -0.83,1.58 -1.66,3.17 -2.47,4.77 -0.63,1.22 -1.24,2.45 -1.85,3.68 0,0 0,0 0,0.05 -0.34,0.67 -0.67,1.35 -1,2 q -1.73,3.54 -3.34,7.11 c -0.43,1 -0.87,1.9 -1.29,2.86 l -0.08,0.18 -0.06,0.13 c -0.45,1 -0.89,2 -1.33,3.07 -0.44,1.07 -0.89,2.08 -1.33,3.13 l -1.29,3.15 v 0.1 c -0.19,0.44 -0.37,0.83 -0.55,1.26 0,0.14 -0.11,0.28 -0.17,0.43 -0.24,0.59 -0.47,1.19 -0.7,1.78 0,0.09 -0.08,0.19 -0.11,0.28 -0.43,1.1 -0.85,2.2 -1.27,3.31 -0.9,2.39 -1.77,4.8 -2.61,7.21 q -1.19,3.39 -2.29,6.81 l -0.06,0.18 c -0.35,1.08 -0.69,2.16 -1,3.25 -0.31,1.09 -0.62,2 -0.92,3 -0.37,1.22 -0.72,2.45 -1.07,3.68 -0.18,0.62 -0.35,1.23 -0.52,1.84 -0.17,0.61 -0.34,1.24 -0.51,1.85 -0.3,1.09 -0.59,2.19 -0.87,3.28 -0.28,1.09 -0.62,2.43 -0.92,3.64 -0.36,1.45 -0.7,2.9 -1,4.35 -0.16,0.72 -0.33,1.45 -0.49,2.18 -0.16,0.73 -0.33,1.45 -0.48,2.18 -0.31,1.46 -0.61,2.92 -0.91,4.38 -0.12,0.58 -0.23,1.17 -0.34,1.75 -0.06,0.29 -0.12,0.59 -0.17,0.88 -0.05,0.29 -0.11,0.59 -0.16,0.88 -0.05,0.29 -0.08,0.37 -0.11,0.55 -0.03,0.18 -0.11,0.6 -0.16,0.9 -0.1,0.58 -0.21,1.15 -0.31,1.73 -0.1,0.58 -0.21,1.16 -0.3,1.74 -0.05,0.28 -0.09,0.55 -0.14,0.83 -0.2,1.19 -0.39,2.39 -0.58,3.58 0,0.18 -0.05,0.37 -0.08,0.55 -0.22,1.43 -0.43,2.86 -0.62,4.3 l -0.06,0.42 c -0.17,1.21 -0.32,2.42 -0.47,3.63 -0.07,0.56 -0.14,1.12 -0.2,1.68 -0.16,1.28 -0.3,2.56 -0.43,3.84 -0.13,1.28 -0.26,2.56 -0.38,3.85 v 0.3 c -0.11,1.2 -0.21,2.41 -0.3,3.61 l -0.12,1.55 c -0.06,1 -0.13,1.91 -0.19,2.87 q -0.08,1 -0.12,2.07 c -0.08,1.28 -0.14,2.56 -0.2,3.84 -0.06,1.28 -0.11,2.84 -0.15,4.26 0,0.27 0,0.54 0,0.81 0,0.84 0,1.67 -0.06,2.51 v 0 1.74 c 0,1.2 0,2.4 0,3.61 v 0.14 c 0,1 0,2 0,3 v 2.08 c 0,0.21 0,0.41 0,0.62 0,0.73 0,1.48 0,2.22 0,0.2 0,0.41 0,0.62 l 0.06,2 c 0,0.67 0,1.34 0.08,2 q 0.09,2.13 0.21,4.26 c 0.05,0.88 0.1,1.76 0.16,2.64 0.06,0.88 0.09,1.49 0.15,2.24 0,0 0,0.09 0,0.13 0.05,0.7 0.1,1.4 0.16,2.11 0.09,1.16 0.19,2.31 0.29,3.47 l 0.06,0.65 c 0.07,0.79 0.15,1.57 0.23,2.36 0.08,0.79 0.15,1.55 0.24,2.33 0,0.32 0.07,0.64 0.1,1 0.1,0.9 0.21,1.81 0.32,2.72 0.11,0.91 0.2,1.69 0.31,2.53 0.11,0.84 0.22,1.68 0.34,2.52 0.14,1.07 0.29,2.13 0.45,3.19 0.16,1.06 0.34,2.29 0.52,3.43 a 2.51,2.51 0 0 1 0,0.27 c 0.18,1.09 0.36,2.19 0.55,3.28 0.19,1.09 0.38,2.19 0.58,3.28 l 0.09,0.5 c 0.08,0.46 0.16,0.92 0.25,1.37 l 0.36,1.86 c 0.29,1.5 0.59,3 0.9,4.49 0.41,2 0.84,3.91 1.28,5.87 0.23,1 0.47,2 0.71,3 0,0 0,0 0,0.07 q 0.24,1 0.51,2.1 a 1.6,1.6 0 0 0 0.05,0.21 c 0.28,1.13 0.56,2.25 0.85,3.37 0.15,0.57 0.3,1.13 0.44,1.69 0,0.12 0.07,0.24 0.1,0.36 l 0.27,1 c 0.33,1.22 0.67,2.44 1,3.66 l 0.58,2 c 0.27,0.93 0.55,1.87 0.83,2.8 0.23,0.77 0.46,1.55 0.7,2.32 q 1.47,4.82 3.11,9.57 c 0.31,0.93 0.63,1.85 1,2.77 0.37,0.92 0.65,1.84 1,2.76 l 0.63,1.73 v 0 0 l 0.3,0.78 a 0.78,0.78 0 0 0 0.05,0.14 c 0.24,0.64 0.48,1.27 0.71,1.9 0.46,1.2 0.92,2.4 1.39,3.6 l 1.11,2.81 c 0.75,1.87 1.52,3.74 2.3,5.59 l 1.19,2.79 c 0.4,0.92 0.81,1.85 1.22,2.77 0.41,0.92 0.8,1.8 1.21,2.7 0.41,0.9 0.73,1.61 1.1,2.41 0.64,1.39 1.3,2.78 2,4.17 0.38,0.8 0.77,1.59 1.16,2.39 0.55,1.15 1.12,2.3 1.7,3.45 0.05,0.11 0.11,0.21 0.16,0.32 0.36,0.72 0.72,1.44 1.09,2.15 l 0.15,0.29 c 0.35,0.67 0.69,1.35 1,2 0.31,0.65 0.69,1.34 1.05,2 0.27,0.51 0.54,1 0.82,1.54 0.37,0.71 0.75,1.41 1.14,2.12 0.52,1 1,1.92 1.58,2.88 l 1.41,2.52 0.3,0.55 c 0.22,0.38 0.44,0.75 0.65,1.13 l 1.71,3 c 0.57,1 1.15,2 1.73,2.93 0.72,1.22 1.45,2.42 2.19,3.63 0.62,1 1.24,2 1.87,3 0.34,0.55 0.68,1.1 1,1.64 l 1,1.65 1.67,2.59 c 0.25,0.39 0.5,0.77 0.76,1.15 l 0.13,0.2 q 0.85,1.32 1.74,2.64 c 0.66,1 1.33,2 2,3 l 2,2.85 c 0.65,1 1.31,1.9 2,2.84 l 1.35,1.9 c 0.89,1.25 1.8,2.5 2.71,3.74 1,1.42 2.08,2.83 3.13,4.23 l 2.28,3 h 2.72 l 46.38,-0.82 h 1.58 0.08 L 515.27,1924 v 0 l 44.35,-0.78 27.76,-0.49 h 0.36 l 8.23,-0.15 z"
           id="path241" />
        <path
           class="cls-3"
           d="m 1106.06,2065.45 -7.75,-85.68 -122.74,2.17 -6,-66 -373.57,6.63 -18.57,-205.18 c 114.46,53.29 244.89,88.54 383.3,100.31 a 1209.81,1209.81 0 0 0 123.31,4.17 l 8.32,91.94 174.94,-3.09 a 366.67,366.67 0 0 1 -49.22,66.93 c -30.82,33.47 -68.61,63.11 -112.02,87.8 z"
           id="path243" />
        <path
           class="cls-3"
           d="m 1037.13,1672.45 a 750.29,750.29 0 0 1 -89.91,-3.82 c -121.08,-12.5 -231.65,-54.08 -317.37,-115 l 429.22,-7.57 -12.86,-142 c 73.44,35.51 135.75,83.16 181.19,139.07 l 86.59,-1.52 5.88,65 q -19.84,9.93 -41,18.49 c -62.31,25.23 -132.76,41.39 -208.45,46.11 q -16.49,0.94 -33.29,1.24 z"
           id="path245" />
        <path
           class="cls-3"
           d="m 620.23,369 v -0.41 h 0.35 c -0.15,0.17 -0.26,0.3 -0.35,0.41 z"
           id="path247" />
        <path
           class="cls-3"
           d="M 338.59,731.21 A 674.46,674.46 0 0 0 280,789 l -7.86,-87 C 242.89,685.79 217.01,666.33 195.58,644.34 158.05,606 134.15,559.84 129.64,510 120.03,403.82 201.08,311.51 323.77,273 l -1,-11.15 a 544,544 0 0 0 49.12,-24.91 c 37.49,-21.46 70.76,-46.63 98.93,-74.78 l 1,-1 c 27.84,-28 50.63,-58.95 67.49,-92.1 q 7.86,8.07 16.05,16 l 16.7,184.57 a 418.78,418.78 0 0 1 52.25,17.94 385.39,385.39 0 0 1 49.69,25.01 406.08,406.08 0 0 0 -53.43,56 h -0.35 v 0.41 a 347.26,347.26 0 0 0 -40,64.36 l -241.55,4.27 9.86,108.93 L 551,543 a 301.1,301.1 0 0 0 0.49,48.84 c 0.18,2.07 0.4,4.13 0.62,6.2 q 41.42,-18 85.88,-32.63 l 22.27,246.12 a 420.1,420.1 0 0 1 -58.55,-73.71 415.22,415.22 0 0 1 -56.46,12 456.15,456.15 0 0 1 -206.67,-18.64 z"
           id="path249" />
        <path
           class="cls-3"
           d="m 551,543 -202.47,3.58 -9.86,-108.93 241.55,-4.27 A 304.54,304.54 0 0 0 551,543 Z"
           id="path251" />
        <path
           class="cls-3"
           d="m 1096.76,1051.89 -205,3.62 -4.13,-0.93 c -38.7,-20.17 -66.93,-35.33 -92.35,-65.06 -22.89,-26.78 -39.46,-56.8 -47.94,-88.87 a 194.25,194.25 0 0 1 -4.45,-21.71 q -0.75,-5.18 -1.22,-10.41 c -4,-44.2 7.71,-86 31.57,-122.51 29.53,-45.13 77.65,-82.2 137.69,-105.76 a 392.72,392.72 0 0 1 64.48,-19 442.3,442.3 0 0 1 81.29,-8.88 h 0.31 a 461.35,461.35 0 0 1 65.75,3.57 q 8.67,1.09 17.21,2.52 c 119.72,19.84 219,85.93 259,171.84 a 199.45,199.45 0 0 1 18.03,66.3 185.12,185.12 0 0 1 -6.34,67.75 595.06,595.06 0 0 1 -79.29,31.39 q -18.3,5.79 -37.35,10.58 L 1144.9,969 c -1.88,6 2.15,12 0,18 -1.44,0 -9,0.06 -10.4,0.09 q -22,0.39 -43.68,-0.5 z"
           id="path253" />
        <path
           class="cls-3"
           d="m 1442.5,602.34 -1,-0.42 -4.62,-2 q -3.24,-1.38 -6.5,-2.71 c -2.73,-1.12 -5.46,-2.24 -8.2,-3.34 l -3,-1.22 -1.07,-0.43 -6.07,-2.39 q -4.38,-1.71 -8.79,-3.39 c -84.55,-32.2 -176.2,-55 -272.16,-66.48 q -14.73,-1.77 -29.6,-3.17 -18.09,-1.71 -36.36,-2.88 -8.52,-0.56 -17.08,-1 -40.54,-2 -81.85,-1.32 h -0.68 q -33.35,0.62 -65.92,3 -28.45,2.1 -56.25,5.5 -19.08,2.31 -37.83,5.26 -4.71,0.73 -9.4,1.52 -12.92,2.13 -25.65,4.54 -8.19,1.54 -16.32,3.21 -11.91,2.46 -23.69,5.14 l -33.35,50 -17.94,26.93 c -4.47,34.88 106.33,-10.75 84,18.07 l 5.13,56.77 4.92,54.47 a 227.3,227.3 0 0 1 16.46,-22 q 7.14,-8.51 15.24,-16.5 c 28,-27.74 64.1,-50.75 106,-67.19 a 392.72,392.72 0 0 1 64.48,-19 442.3,442.3 0 0 1 81.29,-8.88 h 0.31 a 461.35,461.35 0 0 1 65.75,3.57 q 8.67,1.09 17.21,2.52 16.6,2.74 32.64,6.67 c 104.93,25.56 190.08,87.2 226.32,165.17 a 199.45,199.45 0 0 1 18.08,66.25 185.12,185.12 0 0 1 -6.34,67.75 595.06,595.06 0 0 1 -79.29,31.39 q -18.3,5.79 -37.35,10.58 l -93,1.64 -56.17,1 c -1.88,6 2.15,12 0,18 -1.44,0 -9,0.06 -10.4,0.09 q -22,0.39 -43.68,-0.5 l 5.91,65.33 -192.47,3.4 -12.55,0.22 -4.13,-0.93 q -4.1,-2.13 -8,-4.21 c -34.63,-18.17 -60.68,-33.22 -84.31,-60.85 l 15.19,167.48 -118.69,2.1 -20.4,-225.42 q -21.21,11.13 -40.76,23.76 -16.15,10.42 -31.08,21.82 -16.34,12.47 -31.11,26 l 0.08,0.86 h -1 L 451.14,1008.17 438.35,867.32 287.28,870 280,789 q -2.68,3 -5.31,6 c -0.86,1 -1.72,2 -2.57,3 -0.66,0.76 -1.32,1.52 -2,2.29 l -1.81,2.13 -1.83,2.16 q -1.75,2.09 -3.48,4.19 c -0.75,0.91 -1.49,1.81 -2.22,2.72 q -2.62,3.19 -5.17,6.42 c -1,1.3 -2.07,2.6 -3.07,3.91 a 3.15,3.15 0 0 0 -0.24,0.3 1.63,1.63 0 0 0 -0.17,0.22 c -0.68,0.85 -1.34,1.71 -2,2.57 -0.83,1.07 -1.65,2.14 -2.45,3.21 q -0.9,1.17 -1.77,2.34 -3.66,4.86 -7.2,9.78 -1.39,1.93 -2.76,3.88 c -1.66,2.33 -3.29,4.68 -4.91,7 -0.9,1.3 -1.79,2.62 -2.67,3.93 -1.23,1.82 -2.45,3.64 -3.65,5.48 q -1.44,2.19 -2.87,4.41 c -0.2,0.3 -0.4,0.61 -0.59,0.92 q -1.73,2.67 -3.4,5.36 L 2.5,875 v 141.14 l 153,-2.7 a 484.83,484.83 0 0 0 -14.25,168.92 506.67,506.67 0 0 0 8.77,58.4 l 303.15,-5.35 a 302.21,302.21 0 0 0 0.91,41.82 318.55,318.55 0 0 0 20.19,85.93 l 69,-1.22 1.88,-0.54 -7.78,-86 v -0.4 l 283.25,-5 90.37,-1.59 9.49,-0.17 c 46.84,-34.6 88.08,-73.28 122.78,-115.28 l 57.51,-1 87.3,-1.54 -9,-99.93 209.07,-3.7 24.59,271.83 v 0 l 23.58,-0.42 5.22,-0.09 h 1"
           id="path255" />
        <path
           id="polygon257"
           style="fill:#4d4d4d;stroke:#000000;stroke-width:3px;stroke-miterlimit:10"
           d="m 1179.04,1050.43 209.07,-3.69 24.59,271.84 -291.34,5.14 -15.55,-171.89 82.27,-1.46 z"
           class="cls-3" />
      </g>
      <g
         aria-label="  YeahScience"
         transform="matrix(0.86,0,0,1,377,1991.28)"
         id="text265"
         style="font-weight:700;font-size:209.87px;font-family:BookmanOldStyle-Bold, 'Bookman Old Style';fill:#4bb2ff"
         class="cls-4">
        <path
           d="m 232.95496,-60.442559 27.07323,-41.974001 c 10.91324,-16.99947 18.8883,-22.45609 33.36933,-23.29557 v -17.20934 H 229.1773 v 17.20934 c 12.17246,0.20987 15.53038,1.25922 15.53038,4.61714 0,2.0987 -1.25922,4.40727 -5.87636,12.17246 l -16.36986,27.073232 -17.20934,-31.270632 c -3.35792,-6.2961 -3.35792,-6.2961 -3.35792,-7.55532 0,-3.56779 4.40727,-4.82701 16.36986,-5.03688 v -17.20934 h -79.7506 v 17.20934 c 12.38233,1.25922 18.67843,6.08623 28.33245,21.82648 l 29.3818,45.961531 v 22.66596 c 0.20987,13.22181 -2.0987,15.950119 -14.27116,17.629079 l -5.87636,0.41974 V 0 h 77.02229 v -17.20934 l -5.87636,-0.41974 c -12.17246,-1.67896 -14.48103,-4.407269 -14.27116,-17.629079 z"
           id="path296" />
        <path
           d="m 386.36953,-53.306979 c 0,-14.900769 -1.67896,-23.715309 -5.45662,-30.641019 -8.18493,-14.6909 -24.97453,-23.295572 -45.33192,-23.295572 -32.31998,0 -55.19581,22.456092 -55.19581,54.146461 0,32.110109 23.92518,54.985939 57.08464,54.985939 15.95012,0 30.43115,-5.6664899 39.66543,-15.74025 3.98753,-4.1974 6.50597,-7.55532 11.75272,-16.159989 l -17.62908,-8.60467 c -8.18493,12.17246 -16.7896,17.838949 -27.49297,17.838949 -16.36986,0 -25.60414,-11.962589 -25.39427,-32.529849 z m -66.73866,-16.159989 c 0.62961,-11.54285 6.2961,-18.46856 15.74025,-18.46856 9.44415,0 13.43168,5.24675 13.85142,18.46856 z"
           id="path298" />
        <path
           d="m 507.67415,-23.085699 c -3.77766,3.567789 -3.77766,3.567789 -5.24675,3.567789 -1.46909,0 -3.14805,-1.04935 -3.56779,-2.308569 -0.62961,-1.46909 -0.62961,-1.46909 -0.83948,-9.44415 v -41.344389 c 0,-11.12311 -2.30857,-17.83895 -7.97506,-23.29557 -7.34545,-7.135582 -21.19687,-11.332982 -37.7766,-11.332982 -27.07323,0 -46.59113,12.172462 -46.59113,28.962062 0,9.02441 6.71584,15.740249 15.53037,15.740249 10.28363,0 16.36986,-6.086229 16.15999,-16.159989 0,-2.93818 0.41974,-4.40727 1.88883,-5.45662 2.51844,-2.30857 7.13558,-3.77766 11.54285,-3.77766 9.02441,0 13.22181,3.56779 13.22181,11.33298 v 10.70337 c -11.54285,1.04935 -21.61661,2.938179 -30.64102,5.666489 -20.98699,6.2961 -31.48049,17.41921 -31.48049,33.36933 0,17.2093392 13.43167,28.752189 33.36932,28.752189 11.96259,0 22.66596,-3.56779 33.36933,-10.7033698 5.03688,6.5059699 14.27116,10.7033698 24.13505,10.7033698 9.44415,0 17.20934,-3.14805 26.65349,-10.7033698 z m -43.65296,-5.03688 c -5.45662,5.03688 -10.70337,7.345449 -16.57973,7.345449 -5.87636,0 -9.86389,-4.197399 -9.86389,-10.493499 0,-9.02441 8.3948,-14.48103 26.44362,-17.83895 z"
           id="path300" />
        <path
           d="m 572.94367,-76.392678 c 5.03688,-4.40727 15.53038,-8.18493 22.45609,-8.18493 5.87636,0 8.81454,4.1974 8.81454,13.01194 v 37.146989 c -0.20987,12.38233 -0.62961,13.221809 -9.23428,16.369859 l -2.72831,1.04935 V 0 h 62.75113 v -16.99947 l -7.55532,-1.46909 c -8.3948,-2.30857 -9.02441,-3.567789 -9.23428,-15.950119 v -39.875299 c 0,-11.75272 -2.30857,-18.25869 -8.81454,-24.13505 -6.08623,-5.666492 -14.48103,-8.814542 -23.71531,-8.814542 -11.54285,0 -20.35739,2.51844 -32.73972,9.444152 v -54.146462 h -13.64155 c -13.22181,5.66649 -27.49297,9.23428 -36.93712,9.02441 v 16.99947 l 4.1974,0.41974 c 10.70337,1.88883 12.5922,4.40727 12.38233,16.99947 v 74.084111 c -0.20987,12.38233 -0.83948,13.641549 -9.23428,15.950119 l -7.34545,1.46909 V 0 h 62.54126 v -16.99947 l -2.72831,-1.04935 c -8.60467,-3.14805 -9.02441,-3.987529 -9.23428,-16.369859 z"
           id="path302" />
        <path
           d="m 96.120458,115.63437 c -8.3948,-5.87636 -21.40674,-9.44415 -33.789069,-9.44415 -31.27063,0 -53.9365892,19.09817 -53.9365892,45.75166 0,13.22181 5.8763602,24.76466 15.9501192,31.27063 7.34545,4.61714 11.54285,6.08623 36.30751,12.17246 l 20.777129,5.24675 c 15.74025,3.98753 20.147522,7.13558 20.147522,14.90077 0,10.91324 -10.913242,18.67843 -26.443622,18.67843 -14.690899,0 -29.381799,-6.50597 -39.875299,-17.41921 -5.66649,-6.2961 -9.65402,-11.54285 -15.110639,-21.40674 l -15.7402501,5.24675 17.4192091,53.51685 h 12.38233 l 2.93818,-10.28363 c 8.81454,6.50597 23.29557,10.70337 37.566729,10.70337 34.208812,0 59.393212,-21.40674 59.393212,-50.3688 0,-13.01194 -5.66649,-24.55479 -15.32051,-30.85089 -6.2961,-4.1974 -11.96259,-6.2961 -30.011412,-11.12311 l -19.09817,-5.03688 c -0.41974,-0.20987 -4.40727,-1.04935 -10.283629,-2.30857 -3.98753,-0.83948 -7.76519,-2.0987 -10.91324,-3.56779 -5.03688,-2.0987 -7.55532,-5.66649 -7.55532,-10.07376 0,-8.60467 9.65402,-14.6909 23.0857,-14.6909 11.962589,0 24.974529,5.66649 32.949589,14.27116 3.567792,3.77766 6.296102,7.13558 13.011942,16.36986 l 15.11064,-5.66649 -13.85142,-42.60361 H 98.638898 Z"
           id="path304" />
        <path
           d="m 239.25169,212.80418 c -7.55532,13.85142 -17.41921,20.56726 -29.59167,20.56726 -15.11064,0 -24.97453,-14.27116 -24.97453,-36.09764 0,-21.40674 7.13558,-33.36933 20.14752,-33.36933 6.50597,0 11.96259,3.77766 11.96259,8.3948 l -0.20987,6.08623 c 0,7.34545 8.3948,14.27116 17.41921,14.27116 9.86389,0 17.41921,-7.34545 17.41921,-17.20934 0,-17.20934 -20.56726,-30.85089 -46.59114,-30.85089 -34.83842,0 -57.50438,21.61661 -57.50438,54.5662 0,32.31998 22.87583,54.5662 56.03529,54.5662 24.97453,0 44.28257,-11.75272 52.88724,-32.11011 z"
           id="path306" />
        <path
           d="M 317.11344,146.48526 H 304.1015 l -36.93712,6.08623 v 16.99947 l 4.40727,0.41974 c 9.44415,1.25922 11.75272,4.82701 11.54285,17.20934 v 30.22128 c -0.20987,12.38233 -0.83948,13.64155 -9.23428,15.95012 l -6.71584,1.46909 V 251.84 h 65.68931 v -16.99947 l -6.50597,-1.46909 c -8.3948,-2.30857 -9.02441,-3.56779 -9.23428,-15.95012 z M 298.85475,98.6349 c -11.33298,0 -20.77713,9.44415 -20.77713,20.56726 0,11.12311 8.81454,20.14752 19.93765,20.14752 11.33298,0 20.77713,-9.44415 20.77713,-20.77713 0,-11.33298 -8.60467,-19.93765 -19.93765,-19.93765 z"
           id="path308" />
        <path
           d="m 450.59048,198.53302 c 0,-14.90077 -1.67896,-23.71531 -5.45662,-30.64102 -8.18493,-14.6909 -24.97453,-23.29557 -45.33192,-23.29557 -32.31998,0 -55.19581,22.45609 -55.19581,54.14646 0,32.11011 23.92518,54.98594 57.08464,54.98594 15.95012,0 30.43115,-5.66649 39.66543,-15.74025 3.98753,-4.1974 6.50597,-7.55532 11.75272,-16.15999 l -17.62908,-8.60467 c -8.18493,12.17246 -16.7896,17.83895 -27.49297,17.83895 -16.36986,0 -25.60414,-11.96259 -25.39427,-32.52985 z m -66.73866,-16.15999 c 0.62961,-11.54285 6.2961,-18.46856 15.74025,-18.46856 9.44415,0 13.43168,5.24675 13.85142,18.46856 z"
           id="path310" />
        <path
           d="M 510.19354,146.48526 H 497.1816 l -32.73972,6.08623 v 16.99947 l 3.77766,0.41974 c 9.44415,1.25922 11.75272,4.82701 11.54285,17.20934 v 30.22128 c -0.20987,12.38233 -0.83948,13.85142 -9.23428,15.95012 l -6.08623,1.46909 V 251.84 h 62.33139 v -16.99947 l -3.77766,-1.04935 c -7.76519,-1.88883 -9.23428,-4.61714 -9.23428,-16.36986 v -40.92465 c 8.60467,-5.87636 17.62908,-9.23428 23.92518,-9.23428 6.2961,0 9.44415,4.61714 9.44415,13.43168 v 36.72725 c 0,11.75272 -1.46909,14.48103 -9.23428,16.36986 l -3.77766,1.04935 V 251.84 h 62.54125 v -16.99947 l -6.2961,-1.46909 c -8.3948,-2.30857 -9.02441,-3.56779 -9.23428,-15.95012 v -39.45556 c 0,-11.33298 -1.88883,-17.20934 -7.76519,-23.50544 -6.29609,-6.92571 -13.64154,-9.86389 -24.97452,-9.86389 -13.22181,0 -24.34492,3.14805 -38.19634,10.91324 z"
           id="path312" />
        <path
           d="m 700.96504,212.80418 c -7.55532,13.85142 -17.41921,20.56726 -29.59167,20.56726 -15.11064,0 -24.97453,-14.27116 -24.97453,-36.09764 0,-21.40674 7.13558,-33.36933 20.14752,-33.36933 6.50597,0 11.96259,3.77766 11.96259,8.3948 l -0.20987,6.08623 c 0,7.34545 8.3948,14.27116 17.41921,14.27116 9.86389,0 17.41921,-7.34545 17.41921,-17.20934 0,-17.20934 -20.56726,-30.85089 -46.59114,-30.85089 -34.83842,0 -57.50438,21.61661 -57.50438,54.5662 0,32.31998 22.87583,54.5662 56.03529,54.5662 24.97453,0 44.28257,-11.75272 52.88724,-32.11011 z"
           id="path314" />
        <path
           d="m 835.70132,198.53302 c 0,-14.90077 -1.67896,-23.71531 -5.45662,-30.64102 -8.18493,-14.6909 -24.97453,-23.29557 -45.33192,-23.29557 -32.31998,0 -55.19581,22.45609 -55.19581,54.14646 0,32.11011 23.92518,54.98594 57.08464,54.98594 15.95012,0 30.43115,-5.66649 39.66543,-15.74025 3.98753,-4.1974 6.50597,-7.55532 11.75272,-16.15999 l -17.62908,-8.60467 c -8.18493,12.17246 -16.7896,17.83895 -27.49297,17.83895 -16.36986,0 -25.60414,-11.96259 -25.39427,-32.52985 z m -66.73866,-16.15999 c 0.62961,-11.54285 6.2961,-18.46856 15.74025,-18.46856 9.44415,0 13.43168,5.24675 13.85142,18.46856 z"
           id="path316" />
      </g>
      <path
         id="circle267"
         style="fill:#575756;stroke:url(#%D0%91%D0%B5%D0%B7%D1%8B%D0%BC%D1%8F%D0%BD%D0%BD%D1%8B%D0%B9_%D0%B3%D1%80%D0%B0%D0%B4%D0%B8%D0%B5%D0%BD%D1%82_24);stroke-width:20px;stroke-miterlimit:10"
         d="M 1219.87,834 A 483.87,483.87 0 0 1 736,1317.87 483.87,483.87 0 0 1 252.13,834 483.87,483.87 0 0 1 736,350.13 483.87,483.87 0 0 1 1219.87,834 Z"
         class="cls-5" />
      <path
         class="cls-6"
         d="m 740.93,589.4 c -22.66,0.29 -45.33,0.6 -68,0.6 0,0 -7.4,-0.35 -10,9.33 -2,7.45 0.06,11.78 2.67,15.89 a 48.86,48.86 0 0 1 4.78,18.89 c 3.53,63.89 10.62,132.25 -11.89,193.31 -9.79,26.52 -18.44,54.55 -31.39,79.75 -9.17,17.83 -63.33,172.33 -63.33,172.33 0,0 -17.5,47.17 -20.34,63.5 -2.84,16.33 -3.33,13 -2.16,28 4.65,59.81 71.43,73.49 120.35,76.59 57.06,3.63 119.84,3.25 176.61,-4.06 h 0.2 c 36.49,-4.7 97.78,-25.32 97.17,-71.5 -0.38,-28.53 -14,-75.33 -24,-98 -10,-22.67 -36.67,-105.38 -56.67,-156.69 -12.64,-32.45 -25.44,-64.85 -37.46,-97.54 -11.06,-30.06 -13.21,-62.36 -12.8,-94.12 0.4,-31.09 0.77,-62.6 3.32,-93.59 0.76,-9.35 5.63,-16.67 8.58,-25.37 2.12,-6.23 2.12,-13.69 -5,-16.57 -3.34,-1.35 -7.05,-1.29 -10.65,-1.21 -19.92,-0.03 -39.98,0.21 -59.99,0.46 z"
         id="path269" />
      <path
         class="cls-7"
         d="m 689,692.63 c 6.06,55.49 -0.6,115.32 -20.25,168.55 -8.54,23.12 -16.08,47.56 -27.37,69.53 -8,15.55 -55.22,150.25 -55.22,150.25 0,0 -15.25,41.12 -17.72,55.36 -0.09,0.49 -2.51,16.52 -1.89,24.41 4.06,52.15 62.27,64.07 104.93,66.78 49.74,3.16 104.48,2.83 154,-3.55 h 0.17 c 31.81,-4.1 85.25,-22.08 84.72,-62.34 -0.33,-24.87 -12.21,-65.68 -20.93,-85.44 -8.72,-19.76 -32,-91.87 -49.4,-136.61 -11,-28.29 -24.05,-55.92 -32.67,-85 -8.56,-28.93 -14.25,-47.28 -16.56,-82.26 -2,-30 -0.66,-50.89 -1,-79.22 C 789.71,690.13 689,692.63 689,692.63 Z"
         id="path271" />
      <path
         id="circle273"
         style="fill:none;stroke:#35a8e0;stroke-width:6px;stroke-miterlimit:10"
         d="m 753.33998,566.53003 a 8.6700001,8.6700001 0 0 1 -8.67,8.67 8.6700001,8.6700001 0 0 1 -8.67,-8.67 8.6700001,8.6700001 0 0 1 8.67,-8.67 8.6700001,8.6700001 0 0 1 8.67,8.67 z"
         class="cls-8" />
      <path
         id="circle275"
         style="fill:none;stroke:#35a8e0;stroke-width:6px;stroke-miterlimit:10"
         d="m 735.99999,423.42001 a 26.450001,26.450001 0 0 1 -26.45,26.45 26.450001,26.450001 0 0 1 -26.45,-26.45 26.450001,26.450001 0 0 1 26.45,-26.45 26.450001,26.450001 0 0 1 26.45,26.45 z"
         class="cls-8" />
      <path
         id="circle277"
         style="fill:none;stroke:#35a8e0;stroke-width:6px;stroke-miterlimit:10"
         d="m 735.99998,521.85999 a 17.33,17.33 0 0 1 -17.33,17.33 17.33,17.33 0 0 1 -17.33,-17.33 17.33,17.33 0 0 1 17.33,-17.33 17.33,17.33 0 0 1 17.33,17.33 z"
         class="cls-8" />
      <path
         id="circle279"
         style="fill:none;stroke:#35a8e0;stroke-width:6px;stroke-miterlimit:10"
         d="m 798.38997,534.71997 a 14.17,14.17 0 0 1 -14.17,14.17 14.17,14.17 0 0 1 -14.17,-14.17 14.17,14.17 0 0 1 14.17,-14.17 14.17,14.17 0 0 1 14.17,14.17 z"
         class="cls-8" />
      <path
         id="circle281"
         style="fill:none;stroke:#35a8e0;stroke-width:6px;stroke-miterlimit:10"
         d="m 791.36,474.35001 a 24.48,24.48 0 0 1 -24.48,24.48 24.48,24.48 0 0 1 -24.47999,-24.48 24.48,24.48 0 0 1 24.47999,-24.48 24.48,24.48 0 0 1 24.48,24.48 z"
         class="cls-8" />
    </g>
  </g>
</svg>
