<svg xmlns="http://www.w3.org/2000/svg" xmlns:xlink="http://www.w3.org/1999/xlink" viewBox="0 0 1446.56 2562"><defs><style>.cls-1{fill:#666;}.cls-1,.cls-3{stroke:#000;}.cls-1,.cls-10,.cls-11,.cls-3,.cls-8,.cls-9{stroke-miterlimit:10;}.cls-2{opacity:0.15;}.cls-3{fill:#4d4d4d;stroke-width:3px;}.cls-4{font-size:209.87px;fill:#4bb2ff;font-family:BookmanOldStyle-Bold, Bookman Old Style;font-weight:700;}.cls-5,.cls-6,.cls-7{font-family:Arial-BoldMT, Arial;}.cls-5{letter-spacing:-0.06em;}.cls-6{letter-spacing:0em;}.cls-8{fill:#575756;stroke-width:20px;stroke:url(#Безымянный_градиент_24);}.cls-9{fill:#f5f5f5;stroke:#fff;stroke-width:10px;opacity:0.18;}.cls-10{stroke-width:13px;fill:url(#Безымянный_градиент_8);stroke:url(#Угасающее_небо);}.cls-11{fill:none;stroke:#35a8e0;stroke-width:6px;}</style><linearGradient id="Безымянный_градиент_24" x1="242.13" y1="834" x2="1229.87" y2="834" gradientUnits="userSpaceOnUse"><stop offset="0" stop-color="#2580c3"/><stop offset="0.28" stop-color="#267fc2" stop-opacity="0.99"/><stop offset="0.38" stop-color="#2a7cc0" stop-opacity="0.96"/><stop offset="0.45" stop-color="#3175bc" stop-opacity="0.89"/><stop offset="0.51" stop-color="#3a6db6" stop-opacity="0.81"/><stop offset="0.56" stop-color="#4761af" stop-opacity="0.69"/><stop offset="0.6" stop-color="#5653a5" stop-opacity="0.55"/><stop offset="0.64" stop-color="#69429a" stop-opacity="0.39"/><stop offset="0.68" stop-color="#7e2f8e" stop-opacity="0.2"/><stop offset="0.71" stop-color="#941b80" stop-opacity="0"/><stop offset="0.71" stop-color="#931d81" stop-opacity="0.06"/><stop offset="0.73" stop-color="#912584" stop-opacity="0.25"/><stop offset="0.74" stop-color="#8f2c87" stop-opacity="0.41"/><stop offset="0.76" stop-color="#8d3189" stop-opacity="0.53"/><stop offset="0.78" stop-color="#8c348a" stop-opacity="0.61"/><stop offset="0.82" stop-color="#8b368b" stop-opacity="0.66"/><stop offset="0.91" stop-color="#8b378b" stop-opacity="0.68"/><stop offset="0.92" stop-color="#823d90" stop-opacity="0.62"/><stop offset="0.95" stop-color="#694f9e" stop-opacity="0.45"/><stop offset="0.98" stop-color="#416cb4" stop-opacity="0.19"/><stop offset="1" stop-color="#2580c3" stop-opacity="0"/></linearGradient><linearGradient id="Безымянный_градиент_8" x1="587.17" y1="615.41" x2="893.84" y2="1674.07" gradientUnits="userSpaceOnUse"><stop offset="0" stop-color="#2580c3"/><stop offset="0.89" stop-color="#941b80" stop-opacity="0"/><stop offset="1" stop-color="#2580c3" stop-opacity="0"/></linearGradient><linearGradient id="Угасающее_небо" x1="559.9" y1="960.55" x2="916.8" y2="960.55" gradientUnits="userSpaceOnUse"><stop offset="0" stop-color="#2580c3"/><stop offset="1" stop-color="#2580c3" stop-opacity="0"/></linearGradient></defs><g id="Слой_2" data-name="Слой 2"><g id="Слой_1-2" data-name="Слой 1"><rect class="cls-1" x="1.5" y="0.5" width="1440" height="2560"/><g class="cls-2"><path class="cls-3" d="M499.81,1884.12l-105.6,1.52q-3.12,8.22-6.87,16.32l-57.44.83-77.4,1.11c14.52,16.12,25.66,33.4,32.94,51.56a137.22,137.22,0,0,1,7.82,27.31L1.5,1987v-205.9L148,1779l84.09-1.2,174-2.51,92.14-1.32Z"/><path class="cls-3" d="M584.39,2124l1.2,84-107.82,1.55-1.44-100.18A655.49,655.49,0,0,0,584.39,2124Z"/><path class="cls-3" d="M1042.53,2127.55v.43c-.29-.14-.58-.27-.86-.42Z"/><path class="cls-3" d="M1394,2145.44v.8l-.51-.8Z"/><path class="cls-3" d="M1312,1991.63l-6.25.09,0-3.93C1307.8,1989.06,1309.91,1990.34,1312,1991.63Z"/><path class="cls-3" d="M1312,1991.63l-6.25.09,0-3.93C1307.8,1989.06,1309.91,1990.34,1312,1991.63Z"/><path class="cls-3" d="M1042.53,2127.55v.43c-.29-.14-.58-.27-.86-.42Z"/><path class="cls-3" d="M909.25,2560.5H684.65l-4.12-286.86c22-8.37,41.52-18.64,57.89-30.38l86.06-1.24a825,825,0,0,0,80.59,27.65Z"/><path class="cls-3" d="M284.81,2551.92,1.5,2556V2037.31l272.24-3.91,3.61-.05.31,21.45.25,17h0l.54,37.64-27.73.4-22.16.32-97,1.39h0c-5.27,2.14-10.58,4.23-16,6.28a517.36,517.36,0,0,1,90.29,30.1l1,.44c27.51,12.32,52,26.69,72.81,42.73l.31,21.27,3.33,232,.14,9.37Z"/><path class="cls-3" d="M1141.06,2560.5h132.29l-.79-55.11-2.86-199q-28.58,1.84-57.85,2.28A1126,1126,0,0,1,1045,2298.8l3.76,261.7"/><path class="cls-3" d="M497.83,1746.51l2,137.61-105.6,1.52q-3.12,8.22-6.87,16.32L252.5,1903.9c14.52,16.12,25.66,33.4,32.94,51.56l-134.83,1.94-3-205.86Z"/><polygon class="cls-3" points="234.37 1933.82 150.29 1935.03 1.5 1937.16 1.5 1731.26 231.41 1727.96 231.73 1750.33 232.13 1777.75 233.67 1885.27 233.94 1904.17 234.37 1933.82"/><path class="cls-3" d="M358,2067.69a184.43,184.43,0,0,0-25.4,20,134.59,134.59,0,0,0-18.34,21.24l-35.76.51-27.73.4-22.16.32-97,1.39h0l-42.4.61h0L1.5,2113.41v-205.9l148.36-2.14,84.08-1.2,18.56-.27c14.52,16.12,25.66,33.4,32.94,51.56a137.22,137.22,0,0,1,7.82,27.31,129.14,129.14,0,0,1,2,20.84c0,.88,0,1.75,0,2.63,0,3.57-.18,7.13-.5,10.67a133.48,133.48,0,0,1-5.35,27.4Q296,2038.6,303,2033a311.32,311.32,0,0,0,29,20.13Q344.39,2060.77,358,2067.69Z"/><path class="cls-3" d="M387.34,1902l-57.44.83-.24-16.22,64.55-.93Q391.09,1893.86,387.34,1902Z"/><path class="cls-3" d="M358,2067.69a184.43,184.43,0,0,0-25.4,20l-.49-34.52Q344.39,2060.77,358,2067.69Z"/><path class="cls-3" d="M413.15,2091.27h-.4v-.15Z"/><path class="cls-3" d="M410.77,1953.66l.17,12.19q-15.46,7.58-30.09,15.66Q360,1993,341,2005.58q-4.8,3.17-9.49,6.39Q316.61,2022.22,303,2033q-7,5.57-13.63,11.28a133.48,133.48,0,0,0,5.35-27.4c.32-3.54.48-7.1.5-10.67,0-.88,0-1.75,0-2.63a129.14,129.14,0,0,0-2-20.84,137.22,137.22,0,0,0-7.82-27.31Z"/><path class="cls-3" d="M358,2067.69a184.43,184.43,0,0,0-25.4,20,134.59,134.59,0,0,0-18.34,21.24l-35.76.51-27.73.4-22.16.32-97,1.39h0c-5.27,2.14-10.58,4.23-16,6.28a517.36,517.36,0,0,1,90.29,30.1l1,.44c27.51,12.32,52,26.69,72.81,42.73A258.09,258.09,0,0,1,303.69,2212l-23.76.34-95.63,1.37-129.48,1.86-53.32.77v-205.9l293.75-4.22c0,3.57-.18,7.13-.5,10.67a133.48,133.48,0,0,1-5.35,27.4Q296,2038.6,303,2033a311.32,311.32,0,0,0,29,20.13Q344.39,2060.77,358,2067.69Z"/><path class="cls-3" d="M413.15,2091.27h-.4v-.15Z"/><path class="cls-3" d="M584.39,2124l1.2,84-107.82,1.55-1.44-100.18A655.49,655.49,0,0,0,584.39,2124Z"/><path class="cls-3" d="M712.42,1709.29a498.4,498.4,0,0,0-45.8,34.79q-15.78,13.53-29.46,27.84c-32.81,34.29-56.4,71.73-68.86,111.22a221.19,221.19,0,0,0-6.74,27.19q-13.26,3.54-26.22,7.41l-35,.51-3-205.86Z"/><path class="cls-3" d="M535.34,1917.74a839.93,839.93,0,0,0-97.27,35.53q-13.86,6.09-27.13,12.58l-.17-12.19-125.33,1.8C278.16,1937.3,267,1920,252.5,1903.9L387.34,1902q3.74-8.09,6.87-16.32l105.6-1.52.49,34.13Z"/><path class="cls-3" d="M394.21,1885.64q-3.12,8.22-6.87,16.32l-57.44.83-77.4,1.11c14.52,16.12,25.66,33.4,32.94,51.56a137.22,137.22,0,0,1,7.82,27.31,129.14,129.14,0,0,1,2,20.84c0,.88,0,1.75,0,2.63,0,3.57-.18,7.13-.5,10.67q-10.12,8.41-21,16.49c-40.22,29.86-88.2,56.24-142.22,78.14h0c-5.27,2.14-10.58,4.23-16,6.28a909.55,909.55,0,0,1-114,34.8v-681c206.68,44.88,361,148.77,398.43,276.34a217.75,217.75,0,0,1,6.15,27.32,212.61,212.61,0,0,1,2.56,29.9A217.59,217.59,0,0,1,394.21,1885.64Z"/><path class="cls-3" d="M1441.5,2144.76V2358c-35.06,56.43-93.58,106.86-168.94,147.43l-2.86-199-1.81-125.72q20.41.89,41.37.59a702.16,702.16,0,0,0,85.19-6.36l-.41-28.63v-.8Z"/><path class="cls-3" d="M1042.53,2127.55h-.85c.28.15.57.28.86.42Zm263.16-139.76,0,3.93h0l6.24-.09C1309.91,1990.34,1307.8,1989.06,1305.69,1987.79ZM412.74,2091.13v.15h.4ZM584.39,2124a655.49,655.49,0,0,1-108.06-14.66l1.44,100.18L585.59,2208ZM354,2065.66c-.64-.33-1.29-.67-1.93-1s-1.29-.69-1.93-1c-1.42-.76-2.84-1.53-4.24-2.32l-2.57-1.44q-1.94-1.1-3.84-2.21c-1-.57-2-1.15-2.95-1.74s-1.89-1.17-2.85-1.76h-.08l-1.59-1A311.32,311.32,0,0,1,303,2033q-7,5.57-13.63,11.28h0c-.12.41-.25.82-.38,1.22s-.26.82-.39,1.22-.31,1-.48,1.46-.41,1.22-.63,1.83-.38,1.09-.58,1.64-.33.89-.5,1.34q-.36,1-.75,1.95c-.13.35-.27.71-.42,1.06s-.28.71-.43,1.06c-.39,1-.8,1.94-1.22,2.91l-.06.12c0,.11-.09.22-.14.33-1.36,3.1-2.83,6.19-4.42,9.24l-.54,1-.55,1h0a192.07,192.07,0,0,1-27.19,38l27.73-.4,35.76-.51a134.59,134.59,0,0,1,18.34-21.24,184.43,184.43,0,0,1,25.4-20C356.64,2067,355.34,2066.34,354,2065.66Zm58.7,25.47v.15h.4ZM584.39,2124a655.49,655.49,0,0,1-108.06-14.66l1.44,100.18L585.59,2208ZM354,2065.66c-.64-.33-1.29-.67-1.93-1s-1.29-.69-1.93-1c-1.42-.76-2.84-1.53-4.24-2.32l-2.57-1.44q-1.94-1.1-3.84-2.21c-1-.57-2-1.15-2.95-1.74s-1.89-1.17-2.85-1.76h-.08l-1.58,0-46.38.82c-.13.35-.27.71-.42,1.06s-.28.71-.43,1.06c-.39,1-.8,1.94-1.22,2.91l-.06.12c0,.11-.09.22-.14.33-1.36,3.1-2.83,6.19-4.42,9.24l-.54,1-.55,1h0l.54,37.64,35.76-.51a134.59,134.59,0,0,1,18.34-21.24,184.43,184.43,0,0,1,25.4-20C356.64,2067,355.34,2066.34,354,2065.66Zm58.7,25.47v.15h.4ZM584.39,2124a655.49,655.49,0,0,1-108.06-14.66l1.44,100.18L585.59,2208ZM354,2065.66c-.64-.33-1.29-.67-1.93-1s-1.29-.69-1.93-1c-1.42-.76-2.84-1.53-4.24-2.32l-2.57-1.44q-1.94-1.1-3.84-2.21c-1-.57-2-1.15-2.95-1.74s-1.89-1.17-2.85-1.76h-.08l-1.58,0-46.38.82c-.13.35-.27.71-.42,1.06s-.28.71-.43,1.06c-.39,1-.8,1.94-1.22,2.91a.61.61,0,0,0-.05.12l-.15.33c-1.36,3.1-2.83,6.19-4.42,9.24l-.54,1-.55,1h0l.54,37.64,35.76-.51a134.59,134.59,0,0,1,18.34-21.24,184.43,184.43,0,0,1,25.4-20C356.64,2067,355.34,2066.34,354,2065.66Zm58.7,25.47v.15h.4ZM584.39,2124a655.49,655.49,0,0,1-108.06-14.66l1.44,100.18L585.59,2208ZM354,2065.66c-.64-.33-1.29-.67-1.93-1s-1.29-.69-1.93-1c-1.42-.76-2.84-1.53-4.24-2.32l-2.57-1.44q-1.94-1.1-3.84-2.21c-1-.57-2-1.15-2.95-1.74s-1.89-1.17-2.85-1.76h-.08l-1.58,0-46.38.82c-.13.35-.27.71-.42,1.06s-.28.71-.43,1.06c-.39,1-.8,1.94-1.22,2.91a.61.61,0,0,0-.05.12l-.15.33c-1.36,3.1-2.83,6.19-4.42,9.24l-.54,1-.55,1h0l.54,37.64,35.76-.51a134.59,134.59,0,0,1,18.34-21.24,184.43,184.43,0,0,1,25.4-20C356.64,2067,355.34,2066.34,354,2065.66Zm58.7,25.47v.15h.4ZM584.39,2124a655.49,655.49,0,0,1-108.06-14.66l1.44,100.18L585.59,2208ZM354,2065.66c-.64-.33-1.29-.67-1.93-1s-1.29-.69-1.93-1c-1.42-.76-2.84-1.53-4.24-2.32l-2.57-1.44q-1.94-1.1-3.84-2.21c-1-.57-2-1.15-2.95-1.74s-1.89-1.17-2.85-1.76h-.08l-1.58,0-46.38.82c-.13.35-.27.71-.42,1.06s-.28.71-.43,1.06c-.39,1-.8,1.94-1.22,2.91a.61.61,0,0,0-.05.12l-.15.33c-1.36,3.1-2.83,6.19-4.42,9.24l-.54,1-.55,1h0l.54,37.64,35.76-.51a134.59,134.59,0,0,1,18.34-21.24,184.43,184.43,0,0,1,25.4-20C356.64,2067,355.34,2066.34,354,2065.66Zm58.7,25.47v.15h.4ZM584.39,2124a655.49,655.49,0,0,1-108.06-14.66l1.44,100.18L585.59,2208ZM354,2065.66c-.64-.33-1.29-.67-1.93-1s-1.29-.69-1.93-1c-1.42-.76-2.84-1.53-4.24-2.32l-2.57-1.44q-1.94-1.1-3.84-2.21c-1-.57-2-1.15-2.95-1.74s-1.89-1.17-2.85-1.76h-.08l-1.58,0-46.38.82c-.13.35-.27.71-.42,1.06s-.28.71-.43,1.06c-.39,1-.8,1.94-1.22,2.91a.61.61,0,0,0-.05.12l-.15.33c-1.36,3.1-2.83,6.19-4.42,9.24l-.54,1-.55,1h0l.54,37.64,35.76-.51a134.59,134.59,0,0,1,18.34-21.24,184.43,184.43,0,0,1,25.4-20C356.64,2067,355.34,2066.34,354,2065.66Zm58.7,25.47v.15h.4ZM584.39,2124a655.49,655.49,0,0,1-108.06-14.66l1.44,100.18L585.59,2208Zm-250.66-69.87h-.07c1,.6,1.94,1.19,2.92,1.76C335.6,2055.31,334.69,2054.72,333.73,2054.13Zm79,37v.15h.4ZM584.39,2124a655.49,655.49,0,0,1-108.06-14.66l1.44,100.18L585.59,2208Zm-250.66-69.87h-.07c1,.6,1.94,1.19,2.92,1.76C335.6,2055.31,334.69,2054.72,333.73,2054.13Zm79,37v.15h.4ZM584.39,2124a655.49,655.49,0,0,1-108.06-14.66l1.44,100.18L585.59,2208Zm320.68,145.67A825,825,0,0,1,824.48,2242l-86.06,1.24c-16.37,11.74-35.91,22-57.89,30.38-38.42,14.64-84.3,23.46-133.66,24.17-105.1,1.51-195.44-34.22-232.15-85.95l-11,.16a258.09,258.09,0,0,0-24.07-20.93c-20.79-16-45.3-30.41-72.81-42.73l-1-.44-.84,1.72h0a230.6,230.6,0,0,0-20.69,64.08h0a212.05,212.05,0,0,0-2.76,37.24c1,71.56,38.23,137.81,101.72,193.34,1.84,1.61,3.71,3.21,5.59,4.81C343,2494.82,415.06,2533,499.48,2560.5H909.24ZM585.59,2208l-1.2-84a655.49,655.49,0,0,1-108.06-14.66l1.44,100.18Zm-172.44-116.7-.41-.14v.15Zm-79.42-37.14h-.07c1,.6,1.94,1.19,2.92,1.76C335.6,2055.31,334.69,2054.72,333.73,2054.13ZM584.39,2124a655.49,655.49,0,0,1-108.06-14.66l1.44,100.18L585.59,2208Zm-171.65-32.87v.15h.4Zm-79-37h-.07c1,.6,1.94,1.19,2.92,1.76C335.6,2055.31,334.69,2054.72,333.73,2054.13ZM584.39,2124a655.49,655.49,0,0,1-108.06-14.66l1.44,100.18L585.59,2208Zm-171.65-32.87v.15h.4ZM354,2065.66c-.64-.33-1.29-.67-1.93-1s-1.29-.69-1.93-1c-1.42-.76-2.84-1.53-4.24-2.32l-2.57-1.44q-1.94-1.1-3.84-2.21c-1-.57-2-1.15-2.95-1.74s-1.89-1.17-2.85-1.76h-.08l-1.58,0-46.38.82c-.13.35-.27.71-.42,1.06s-.28.71-.43,1.06c-.39,1-.8,1.94-1.22,2.91a.61.61,0,0,0-.05.12l-.15.33c-1.36,3.1-2.83,6.19-4.42,9.24l-.54,1-.55,1h0l.54,37.64,35.76-.51a134.59,134.59,0,0,1,18.34-21.24,184.43,184.43,0,0,1,25.4-20C356.64,2067,355.34,2066.34,354,2065.66ZM584.39,2124a655.49,655.49,0,0,1-108.06-14.66l1.44,100.18L585.59,2208Zm-171.65-32.87v.15h.4ZM354,2065.66c-.64-.33-1.29-.67-1.93-1s-1.29-.69-1.93-1c-1.42-.76-2.84-1.53-4.24-2.32l-2.57-1.44q-1.94-1.1-3.84-2.21c-1-.57-2-1.15-2.95-1.74s-1.89-1.17-2.85-1.76h-.08l-1.58,0-46.38.82c-.13.35-.27.71-.42,1.06s-.28.71-.43,1.06c-.39,1-.8,1.94-1.22,2.91a.61.61,0,0,0-.05.12l-.15.33c-1.36,3.1-2.83,6.19-4.42,9.24l-.54,1-.55,1h0l.54,37.64,35.76-.51a134.59,134.59,0,0,1,18.34-21.24,184.43,184.43,0,0,1,25.4-20C356.64,2067,355.34,2066.34,354,2065.66ZM584.39,2124a655.49,655.49,0,0,1-108.06-14.66l1.44,100.18L585.59,2208Zm-171.65-32.87v.15h.4ZM354,2065.66c-.64-.33-1.29-.67-1.93-1s-1.29-.69-1.93-1c-1.42-.76-2.84-1.53-4.24-2.32l-2.57-1.44q-1.94-1.1-3.84-2.21c-1-.57-2-1.15-2.95-1.74s-1.89-1.17-2.85-1.76h-.08l-1.58,0-46.38.82c-.13.35-.27.71-.42,1.06s-.28.71-.43,1.06c-.39,1-.8,1.94-1.22,2.91a.61.61,0,0,0-.05.12l-.15.33c-1.36,3.1-2.83,6.19-4.42,9.24l-.54,1-.55,1h0l.54,37.64,35.76-.51a134.59,134.59,0,0,1,18.34-21.24,184.43,184.43,0,0,1,25.4-20C356.64,2067,355.34,2066.34,354,2065.66ZM584.39,2124a655.49,655.49,0,0,1-108.06-14.66l1.44,100.18L585.59,2208Zm-171.65-32.87v.15h.4ZM354,2065.66c-.64-.33-1.29-.67-1.93-1s-1.29-.69-1.93-1c-1.42-.76-2.84-1.53-4.24-2.32l-2.57-1.44q-1.94-1.1-3.84-2.21c-1-.57-2-1.15-2.95-1.74s-1.89-1.17-2.85-1.76h-.08l-1.58,0-46.38.82c-.13.35-.27.71-.42,1.06s-.28.71-.43,1.06c-.39,1-.8,1.94-1.22,2.91a.61.61,0,0,0-.05.12l-.15.33c-1.36,3.1-2.83,6.19-4.42,9.24l-.54,1-.55,1h0l.54,37.64,35.76-.51a134.59,134.59,0,0,1,18.34-21.24,184.43,184.43,0,0,1,25.4-20C356.64,2067,355.34,2066.34,354,2065.66ZM584.39,2124a655.49,655.49,0,0,1-108.06-14.66l1.44,100.18L585.59,2208Zm-171.65-32.87v.15h.4ZM354,2065.66c-.64-.33-1.29-.67-1.93-1s-1.29-.69-1.93-1c-1.42-.76-2.84-1.53-4.24-2.32l-2.57-1.44q-1.94-1.1-3.84-2.21c-1-.57-2-1.15-2.95-1.74s-1.89-1.17-2.85-1.76h-.08l-1.58,0-46.38.82c-.13.35-.27.71-.42,1.06s-.28.71-.43,1.06c-.39,1-.8,1.94-1.22,2.91a.61.61,0,0,0-.05.12l-.15.33c-1.36,3.1-2.83,6.19-4.42,9.24l-.54,1-.55,1h0l.54,37.64,35.76-.51a134.59,134.59,0,0,1,18.34-21.24,184.43,184.43,0,0,1,25.4-20C356.64,2067,355.34,2066.34,354,2065.66ZM584.39,2124a655.49,655.49,0,0,1-108.06-14.66l1.44,100.18L585.59,2208Zm-171.65-32.87v.15h.4ZM354,2065.66c-.64-.33-1.29-.67-1.93-1s-1.29-.69-1.93-1c-1.42-.76-2.84-1.53-4.24-2.32l-2.57-1.44q-1.94-1.1-3.84-2.21c-1-.57-2-1.15-2.95-1.74s-1.89-1.17-2.85-1.76h-.08l-1.58,0-46.38.82c-.13.35-.27.71-.42,1.06s-.28.71-.43,1.06c-.39,1-.8,1.94-1.22,2.91l-.06.12c0,.11-.09.22-.14.33-1.36,3.1-2.83,6.19-4.42,9.24l-.54,1-.55,1h0l.54,37.64,35.76-.51a134.59,134.59,0,0,1,18.34-21.24,184.43,184.43,0,0,1,25.4-20C356.64,2067,355.34,2066.34,354,2065.66ZM584.39,2124a655.49,655.49,0,0,1-108.06-14.66l1.44,100.18L585.59,2208Zm-171.65-32.87v.15h.4ZM354,2065.66c-.64-.33-1.29-.67-1.93-1s-1.29-.69-1.93-1c-1.42-.76-2.84-1.53-4.24-2.32l-2.57-1.44q-1.94-1.1-3.84-2.21c-1-.57-2-1.15-2.95-1.74s-1.89-1.17-2.85-1.76h-.08l-1.59-1A311.32,311.32,0,0,1,303,2033q-7,5.57-13.63,11.28h0c-.12.41-.25.82-.38,1.22s-.26.82-.39,1.22-.31,1-.48,1.46-.41,1.22-.63,1.83-.38,1.09-.58,1.64-.33.89-.5,1.34q-.36,1-.75,1.95c-.13.35-.27.71-.42,1.06s-.28.71-.43,1.06c-.39,1-.8,1.94-1.22,2.91l-.06.12c0,.11-.09.22-.14.33-1.36,3.1-2.83,6.19-4.42,9.24l-.54,1-.55,1h0a192.07,192.07,0,0,1-27.19,38l27.73-.4,35.76-.51a134.59,134.59,0,0,1,18.34-21.24,184.43,184.43,0,0,1,25.4-20C356.64,2067,355.34,2066.34,354,2065.66ZM584.39,2124a655.49,655.49,0,0,1-108.06-14.66l1.44,100.18L585.59,2208Zm-171.65-32.87v.15h.4ZM354,2065.66c-.64-.33-1.29-.67-1.93-1s-1.29-.69-1.93-1c-1.42-.76-2.84-1.53-4.24-2.32l-2.57-1.44q-1.94-1.1-3.84-2.21c-1-.57-2-1.15-2.95-1.74s-1.89-1.17-2.85-1.76h-.08l-1.59-1A311.32,311.32,0,0,1,303,2033q-7,5.57-13.63,11.28h0q-4.44,3.81-8.71,7.71c-1,.92-2,1.84-3,2.77a360.72,360.72,0,0,0-49.1,55.35l22.16-.32,27.73-.4,35.76-.51a134.59,134.59,0,0,1,18.34-21.24,184.43,184.43,0,0,1,25.4-20C356.64,2067,355.34,2066.34,354,2065.66ZM584.39,2124a655.49,655.49,0,0,1-108.06-14.66l1.44,100.18L585.59,2208Zm-171.65-32.87v.15h.4ZM1394,2145.44h-.5l.51.8ZM1269.7,2306.36q-28.58,1.84-57.85,2.28A1126,1126,0,0,1,1045,2298.8l3.76,261.7h92.31c47.83-15.29,92-33.84,131.5-55.11Z"/><path class="cls-3" d="M1441.5,1989.77v155l-47.94.69h0l-85.56,1.23-1.69-117.47,70-1a157.91,157.91,0,0,1,18-37.74Z"/><path class="cls-3" d="M1042.54,2128l.69,48.24-139.48,2,.9,62.65L824.48,2242q-29.54-11.91-56.46-25.63c16-18.88,24.81-40,24.49-62.18a81.92,81.92,0,0,0-3.68-23,94.74,94.74,0,0,0-11.23-23.67A560.22,560.22,0,0,0,851.15,2085l120.93-1.74c19.63,16.5,43.07,31.41,69.6,44.32C1042,2127.71,1042.25,2127.84,1042.54,2128Z"/><path class="cls-3" d="M1042.53,2127.55v.43c-.29-.14-.58-.27-.86-.42Z"/><path class="cls-3" d="M1312,1991.63l-6.25.09,0-3.93C1307.8,1989.06,1309.91,1990.34,1312,1991.63Z"/><path class="cls-3" d="M1394,2145.44v.8l-.51-.8Z"/><path class="cls-3" d="M295.25,2006.24c0,3.57-.18,7.13-.5,10.67a133.48,133.48,0,0,1-5.35,27.4h0a150.56,150.56,0,0,1-11.49,27.46h0a192.07,192.07,0,0,1-27.19,38l-22.16.32-97,1.39h0c-5.27,2.14-10.58,4.23-16,6.28a517.36,517.36,0,0,1,90.29,30.1l1,.44-1.82,1.28h0c-40,28.09-91.41,50.84-150.17,65.94h0Q29,2222.22,1.5,2226.81v-437c54.66,8,104.66,22.45,147.3,41.86,33.16,15.09,61.87,33.18,84.87,53.57a230.41,230.41,0,0,1,18.83,18.63c14.52,16.12,25.66,33.4,32.94,51.56a137.22,137.22,0,0,1,7.82,27.31,129.14,129.14,0,0,1,2,20.84C295.25,2004.49,295.26,2005.36,295.25,2006.24Z"/><path class="cls-3" d="M355.6,2321.33c.67,47-24,91-66.75,127.8-1.78,1.53-3.59,3-5.45,4.56h0C219.4,2506,118.16,2543,1.5,2551.77V2101.5a662.94,662.94,0,0,1,87.59,10.65h0c9,1.71,17.79,3.61,26.43,5.67a517.36,517.36,0,0,1,90.29,30.1l1,.44c27.51,12.32,52,26.69,72.81,42.73A258.09,258.09,0,0,1,303.69,2212C336.23,2244.14,355,2281.4,355.6,2321.33Z"/><path class="cls-3" d="M1441.5,1597.72v142.21l-3-.57a658.1,658.1,0,0,0-78.15-9.85l-.29-20.73-.13-8.79-47,.68-600.48,8.62q21-14.19,44.45-27.17,3.6-2,7.25-3.95c48-25.81,102.75-47.62,162.64-64.42a1007.76,1007.76,0,0,1,120.6-25.85q37.62-5.75,76.91-9,37.88-3.11,77-3.68c83.58-1.2,163.6,6.6,237.19,21.84Z"/><path class="cls-3" d="M638.81,2124.82l-6.13.11q-24.51.36-48.29-.93a655.49,655.49,0,0,1-108.06-14.66,550.31,550.31,0,0,1-63.18-18.07l-.41-.14A450.59,450.59,0,0,1,358,2067.69q-13.53-6.92-25.89-14.53A311.32,311.32,0,0,1,303,2033q13.56-10.82,28.44-21.06,4.68-3.23,9.49-6.39,19-12.52,39.89-24.07,14.61-8.09,30.09-15.66,13.28-6.48,27.13-12.58a839.93,839.93,0,0,1,97.27-35.53q13-3.85,26.22-7.41-.64,3.51-1.16,7.05a210.12,210.12,0,0,0-2.24,33.88v.28a209.73,209.73,0,0,0,2.22,27.39,215.68,215.68,0,0,0,4.78,23.43q2.08,8,4.77,15.8,3.74,10.88,8.58,21.5,2.29,5,4.81,9.93a279.28,279.28,0,0,0,24.22,38.89A340.37,340.37,0,0,0,638.81,2124.82Z"/><path class="cls-3" d="M1441.5,1739.93v198.83l-.11.09h.11v50.92l-3,0-44.16.64a157.91,157.91,0,0,0-18,37.74l-70,1-.54-37.48h0l6.24-.09c-2.08-1.29-4.19-2.57-6.3-3.84q-2.37-1.43-4.77-2.83l-1.36-.8-5.14-3-.54-.31q-2.58-1.47-5.21-2.92c-.91-.51-1.82-1-2.74-1.51h0c-.74-.42-1.48-.83-2.23-1.23l-1.45-.79c-1.75-1-3.51-1.88-5.28-2.82l-.64-.34c-1.69-.89-3.4-1.78-5.11-2.66l-.73-.37q-2.49-1.29-5-2.56l-1-.51q-2.61-1.31-5.25-2.6l-.33-.16q-3.06-1.5-6.17-3l-.5-.24q-2.85-1.35-5.73-2.69c-2.09-1-4.19-1.94-6.3-2.89l-1.26-.56s0,0,0,0q-2.55-1.15-5.11-2.28c-2.14-.94-4.28-1.88-6.44-2.8s-4.1-1.75-6.17-2.62q-7-2.91-14.06-5.72c-2.22-.88-4.46-1.75-6.7-2.62l-.19-.07c-2.37-.91-4.74-1.81-7.13-2.7l-.32-22.19h0l0-3.73,170.15-2.45L1361.15,1785l0-1.5-.78-54a658.1,658.1,0,0,1,78.15,9.85Z"/><path class="cls-3" d="M1042.53,2127.55v.43c-.29-.14-.58-.27-.86-.42Z"/><path class="cls-3" d="M1194.5,2030.81l.71,49.22-587.67,8.45a279.28,279.28,0,0,1-24.22-38.89l75.52,23c34.44,2.67-9.4-44.3,18.84-34.4l110-1.58c35.83,10.74,77,16.56,120.77,15.94,3.45-.05,6.88-.14,10.31-.27,7.25-.27,14.44-.72,21.52-1.34a389.93,389.93,0,0,0,88.42-17.79Z"/><path class="cls-3" d="M1312,1991.63l-6.25.09,0-3.93C1307.8,1989.06,1309.91,1990.34,1312,1991.63Z"/><path class="cls-3" d="M1394,2145.44v.8l-.51-.8Z"/><path class="cls-3" d="M1394,2145.44h-.5l.51.8Z"/><path class="cls-3" d="M1441.5,1938.76v.09h-.11Z"/><path class="cls-3" d="M413.15,2091.27h-.4v-.15Z"/><path class="cls-3" d="M768,2216.39q26.88,13.7,56.46,25.63l-86.06,1.24c-16.37,11.74-35.91,22-57.89,30.38-38.42,14.64-84.3,23.46-133.66,24.17-105.1,1.51-195.44-34.22-232.15-85.95l-11,.16a258.09,258.09,0,0,0-24.07-20.93c-20.79-16-45.3-30.41-72.81-42.73l-1-.44a517.36,517.36,0,0,0-90.29-30.1q8.08-3.08,16-6.28l182.69-2.62a134.59,134.59,0,0,1,18.34-21.24,184.43,184.43,0,0,1,25.4-20,450.59,450.59,0,0,0,54.79,23.44v.15h.4a550.31,550.31,0,0,0,63.18,18.07l1.44,100.18L585.59,2208l-1.2-84q23.76,1.26,48.29.93l6.13-.11a340.37,340.37,0,0,1-31.27-36.34l243.61-3.5a560.22,560.22,0,0,1-73.55,22.54,94.74,94.74,0,0,1,11.23,23.67,81.92,81.92,0,0,1,3.68,23C792.83,2176.39,784,2197.51,768,2216.39Z"/><path class="cls-3" d="M584.39,2124l1.2,84-107.82,1.55-1.44-100.18A655.49,655.49,0,0,0,584.39,2124Z"/><path class="cls-3" d="M1093.82,1909.72l1.22,85-1,1.69c-20.39,15.56-35.7,26.9-65.39,36.75A389.93,389.93,0,0,1,940.27,2051c-7.08.62-14.27,1.07-21.52,1.34-3.43.13-6.86.22-10.31.27-43.75.62-84.94-5.2-120.77-15.94-44.29-13.28-80.38-34.08-103-59.51A109.83,109.83,0,0,1,666.62,1950a83.74,83.74,0,0,1-7.84-33.89V1916a82.29,82.29,0,0,1,4.29-27.16q1.17-3.57,2.69-7.07c21-49.14,87.48-88.75,172.89-103.3a435.16,435.16,0,0,1,132.68-1.74,214.72,214.72,0,0,1,30.13,33.58,176.1,176.1,0,0,1,10,15.72l.89,61.84c6,.92,11.94-.61,17.81.41,0,.6,0,3.71,0,4.31a131.31,131.31,0,0,1-1,18.09Z"/><path class="cls-3" d="M1394.45,2174.87a702.16,702.16,0,0,1-85.19,6.36q-20.94.3-41.37-.59l1.81,125.72q-28.58,1.84-57.85,2.28A1126,1126,0,0,1,1045,2298.8l3.76,261.7H909.25l-4.18-290.83A825,825,0,0,1,824.48,2242l80.17-1.15-.9-62.65,139.48-2-.69-48.24v-.43h-.85c-26.53-12.91-50-27.82-69.6-44.32l223.13-3.21-.71-49.22-36.2.52-55.25.79-74.36,1.07c29.69-9.85,45-21.19,65.39-36.75l1-1.69-.21-14.92-.95-66-.06-4.06-1.85,0-62.81.9a131.31,131.31,0,0,0,1-18.09c0-.6.07-3.71,0-4.31-5.87-1-11.86.51-17.81-.41l-.89-61.84q-1.47-2.61-3.06-5.19-3.25-5.34-7-10.53a214.72,214.72,0,0,0-30.13-33.58,435.16,435.16,0,0,0-132.68,1.74A377.09,377.09,0,0,0,789,1790.33h0c-61,19.2-106.51,52.28-123.22,91.4q-1.51,3.49-2.69,7.07a82.29,82.29,0,0,0-4.29,27.16v.13c0,1.8.11,3.58.26,5.36a84.41,84.41,0,0,0,7.58,28.53,109.83,109.83,0,0,0,18.06,27.15c22.61,25.43,58.7,46.23,103,59.51l-110,1.58c-28.24-9.9,15.6,37.07-18.84,34.4l-75.52-23q-2.52-4.94-4.81-9.93-4.83-10.64-8.58-21.5-2.67-7.83-4.77-15.8a215.68,215.68,0,0,1-4.78-23.43,209.73,209.73,0,0,1-2.22-27.39v-.28a207.86,207.86,0,0,1,1.47-28q.33-2.93.77-5.83.51-3.54,1.16-7.05a221.19,221.19,0,0,1,6.74-27.19,247.68,247.68,0,0,1,20-45.93c12.66-22.75,29.11-44.59,48.91-65.29q10.13-10.59,21.43-20.78h0q3.95-3.57,8-7.06a498.4,498.4,0,0,1,45.8-34.79l647.51-9.3.42,29.52.78,54,0,1.5-6,.09-263.09,3.78.47,32.79.77,53.91,98.92-1.42.49,34.13,0,3.73h0l.32,22.19q14.33,5.34,28.08,11.11,3.11,1.31,6.17,2.62c2.16.92,4.3,1.86,6.44,2.8q2.57,1.13,5.12,2.28l1.25.57c2.11,1,4.21,1.92,6.3,2.89q2.88,1.34,5.73,2.69l.5.24q3.1,1.48,6.17,3l.33.16q2.64,1.29,5.25,2.6c2.27,1.14,4.52,2.28,6.76,3.44,1.71.88,3.42,1.77,5.11,2.66l.64.34c1.77.94,3.53,1.87,5.28,2.82l1.45.79c.75.4,1.5.81,2.24,1.23.92.49,1.83,1,2.74,1.51q2.63,1.45,5.21,2.92c2.37,1.35,4.71,2.71,7,4.08q2.4,1.41,4.77,2.83l.06,3.93.53,37.48,1.69,117.47,85.56-1.23.51.8Z"/><polygon class="cls-3" points="1361.15 1785.02 1362.89 1905.85 1192.74 1908.3 1192.25 1874.17 1093.33 1875.59 1092.09 1788.89 1361.15 1785.02"/></g><g class="cls-2"><path class="cls-3" d="M1390.5,446.11l-2.6.05-213.76,3.78-49.36.87-9.65-106.69q-20-2.92-39.77-6.48l-5.25-58L1063,201.41a640.84,640.84,0,0,1-122.5,34.73q-31.9,5.78-65.41,8.68L854.47,16.5h497.16l6.86,75.84,7.68,84.94L1382.08,353Z"/><path class="cls-3" d="M551,543l-202.47,3.58-9.86-108.93,241.55-4.27A304.54,304.54,0,0,0,551,543Z"/><path class="cls-3" d="M568.45,1006.16l-1,0c.31-.3.62-.59,1-.88Z"/><path class="cls-3" d="M545.25,1361.92l-1.93,0,1.88-.54Z"/><path class="cls-3" d="M911.57,1274.68l-.57-6.3,9.49-.17C917.53,1270.38,914.57,1272.55,911.57,1274.68Z"/><path class="cls-3" d="M1441.5,1758.21v215.5L1311.34,1976l-25.41.45h0l-67.86,1.2q11-12,20.85-24.6s0,0,0,0h0a355.44,355.44,0,0,0,28.36-42.32l-68.66,1.21-5.83.1-98.91,1.75-1.54,0-.37-4.06-8-87.88.68,0c2.62,0,5.24-.1,7.86-.17l5.82-.15q57.86-1.66,113.29-8.7,48.27-6.07,94.38-16,15.35-3.28,30.41-7,9.4-2.3,18.7-4.76h0q3-.78,6-1.59Q1402.44,1772.36,1441.5,1758.21Z"/><path class="cls-3" d="M911.57,1274.68l-.57-6.3,9.49-.17C917.53,1270.38,914.57,1272.55,911.57,1274.68Z"/><path class="cls-3" d="M568.45,1006.16l-1,0c.31-.3.62-.59,1-.88Z"/><path class="cls-3" d="M280,789a600.87,600.87,0,0,0-62.1,82.22L2.5,875V647.79l193-3.41c21.43,22,47.31,41.45,76.56,57.66Z"/><path class="cls-3" d="M596,1922.57,287,1928c-40.9-53.36-66.64-113.8-72.45-178.1-6.17-68.14,10.73-132.74,45.78-189.79l78.44-1.39C405.5,1621.22,486.4,1675,577.41,1717.39Z"/><path class="cls-3" d="M752.22,230.16l-51.71.91h0l-41,.73h0l-90.76,1.6-1.52-16.79-1-11.22-.06-.68L566,202.8l-.12-1.34-.19-2.05-.29-3.26L564.22,183l-8.87-98q-8.21-7.9-16.05-16c-16.86,33.15-39.65,64.09-67.49,92.1l-1,1c-28.17,28.15-61.44,53.32-98.93,74.78l-51.29.91L2.5,243.39V16.5H300.57L300,10.35q2.07,3.09,4.23,6.15H732.89l19,210Z"/><path class="cls-3" d="M141.27,1182.37a506.67,506.67,0,0,0,8.77,58.4l-48.09.85L2.5,1243.38V1016.15l153-2.7A484.83,484.83,0,0,0,141.27,1182.37Z"/><path class="cls-3" d="M1441.5,346.85V278.16l-9.23-102.05-7.69-84.94-66.09,1.17-127.2,2.24-177.63,3.14L982.16,99l-53.94,1,12.32,136.21A640.84,640.84,0,0,0,1063,201.41l7.07,78.19,5.25,58q19.74,3.56,39.77,6.48l9.65,106.69,49.36-.87,213.76-3.78,2.6-.05,51-.89,1,0"/><polyline class="cls-3" points="1441.5 16.5 1351.63 16.5 1292.68 16.5 1046.31 16.5 974.7 16.5 982.16 98.98 989.85 183.92 1061.34 182.66 1106.92 181.85 1366.17 177.28 1432.27 176.11 1441.5 175.95 1442.5 175.93"/><path class="cls-3" d="M1063,201.41a640.84,640.84,0,0,1-122.5,34.73q-31.9,5.78-65.41,8.68Q850.44,247,825,247.4c-2.12,0-4.22.07-6.34.09q-12.95.12-25.77-.21-33.63-.84-66.39-4.63,14.17,6.53,28,13.45A502.82,502.82,0,0,0,707.54,286Q689.9,298.69,674,312.58a385.39,385.39,0,0,0-49.67-25.11,418.78,418.78,0,0,0-52.25-17.94l-3.27-36.13-1.4-15.48-1.13-12.53-.36-3.93-.19-2.05-.29-3.26L564.22,183l-8.87-98L551.47,42.1l-2.32-25.6h497.16l7.35,81.22,7.68,84.94Z"/><path class="cls-3" d="M1075.36,337.64l-5.25-58,39.12-.69,5.9,65.21Q1095.11,341.2,1075.36,337.64Z"/><path class="cls-3" d="M674,312.58a385.39,385.39,0,0,0-49.67-25.11L707.54,286Q689.9,298.69,674,312.58Z"/><path class="cls-3" d="M620.23,369l0-.41h.35C620.43,368.76,620.32,368.89,620.23,369Z"/><path class="cls-3" d="M952,362.77l-29.39.52q-19.12-15.44-39.47-30-29-20.76-60.33-39.64-7.9-4.77-16-9.42-25.53-14.73-52.4-28.15-13.83-6.92-28-13.45,32.71,3.75,66.39,4.63,12.84.33,25.77.21c2.12,0,4.22-.05,6.34-.09q25.46-.45,50.16-2.58,33.48-2.87,65.41-8.68Z"/><path class="cls-3" d="M818.63,247.49q-12.95.12-25.77-.21-33.63-.84-66.39-4.63,14.17,6.53,28,13.45A502.82,502.82,0,0,0,707.54,286Q689.9,298.69,674,312.58a385.39,385.39,0,0,0-49.67-25.11,418.78,418.78,0,0,0-52.25-17.94l-3.27-36.13-1.4-15.48-1.13-12.53-.36-3.93-.48-5.31L564.22,183l-8.87-98q-8.21-7.9-16.05-16c-16.86,33.15-39.65,64.09-67.49,92.1l-1,1c-28.17,28.15-61.44,53.32-98.93,74.78a544,544,0,0,1-49.12,24.91l-2.17-24-8.74-96.61h0L300.57,16.5,300,10.35q2.07,3.09,4.23,6.15H797.73Z"/><path class="cls-3" d="M620.23,369l0-.41h.35C620.43,368.76,620.32,368.89,620.23,369Z"/><path class="cls-3" d="M551,543l-202.47,3.58-9.86-108.93,241.55-4.27A304.54,304.54,0,0,0,551,543Z"/><path class="cls-3" d="M1442.5,445.2l-1,0-51,.89-2.6.05-213.76,3.78-49.36.87-82.27,1.45.71,7.9,2.49,27.51q10.05,13,19.37,26.28,4.8.3,9.57.65c2.86.21,5.72.42,8.57.65l.35,0c2.72.21,5.43.44,8.14.67l2.49.22c2,.17,4,.36,6,.55l1.2.11h0l1.43.14c2,.19,4,.38,6,.59l6.63.68,6.1.67q4.73.52,9.45,1.09c96,11.49,187.61,34.28,272.16,66.48q4.41,1.68,8.79,3.39l6.07,2.39,1.07.43,3,1.22c2.74,1.1,5.47,2.22,8.2,3.34q3.25,1.34,6.5,2.71l4.62,2,1,.42"/><path class="cls-3" d="M1045.71,487.67a735.15,735.15,0,0,0-91.22-97.32Q939,376.51,922.61,363.29l29.39-.52L940.54,236.14A640.84,640.84,0,0,0,1063,201.41l12.32,136.23q19.74,3.56,39.77,6.48l9.65,106.69-82.27,1.45Z"/><path class="cls-3" d="M1441.5,278.16v68.69q-29.32,3.82-59.42,6.17-35.5,2.76-72,3.42a1206.2,1206.2,0,0,1-195-12.32q-20-2.92-39.77-6.48l-5.25-58L1063,201.41a640.84,640.84,0,0,1-122.5,34.73q-31.9,5.78-65.41,8.68Q850.44,247,825,247.4c-2.12,0-4.22.07-6.34.09q-12.95.12-25.77-.21-20.86-10-41-20.77C677.6,186.69,611.24,139,555.35,85q-8.21-7.9-16.05-16Q514.51,43.58,492.81,16.5H1441.5"/><path class="cls-3" d="M556.91,1490.79a422.18,422.18,0,0,1-45.54-56.61A1165.15,1165.15,0,0,1,363.88,1449q-11.69.42-23.47.64-38.78.68-76.94-1.09-11-.49-22-1.2a1179.87,1179.87,0,0,1-236-39.22l-3-.82V1243.37l99.45-1.75,48.09-.85,303.15-5.35a302.21,302.21,0,0,0,.91,41.82,318.55,318.55,0,0,0,20.19,85.93l69-1.22,1.93,0Z"/><path class="cls-3" d="M568.37,1005.3c-.34.29-.65.58-1,.88l1,0ZM911,1268.38l.57,6.3c3-2.13,6-4.3,8.92-6.47ZM155.52,1013.45l-153,2.7v227.22l99.45-1.75,48.09-.85a506.67,506.67,0,0,1-8.77-58.4A484.83,484.83,0,0,1,155.52,1013.45ZM620.19,368.62l0,.41c.09-.14.2-.27.31-.41ZM461.48,435.49l-122.8,2.17,9.66,106.72.2,2.21L551,543a304.54,304.54,0,0,1,29.22-109.62Zm265-192.84h0q-34.08-3.91-66.9-10.84h0a700.79,700.79,0,0,1-93.29-26.41h0l1,11.22,1.52,16.79,3.27,36.13a418.78,418.78,0,0,1,52.25,17.94A385.39,385.39,0,0,1,674,312.58q15.9-13.87,33.57-26.58a502.82,502.82,0,0,1,46.91-29.9Q740.62,249.19,726.47,242.65Zm-106.28,126,0,.41c.09-.14.2-.27.31-.41ZM461.48,435.49l-122.8,2.17,9.66,106.72.2,2.21L551,543a304.54,304.54,0,0,1,29.22-109.62Zm158.71-66.87,0,.41c.09-.14.2-.27.31-.41ZM461.48,435.49l-122.8,2.17,9.66,106.72.2,2.21L551,543a304.54,304.54,0,0,1,29.22-109.62Zm104.77-230.1h0l1,11.22Zm0,0h0l1,11.22Zm0,0h0l1,11.22Zm-.15-1.57h0Zm0,.21h0Zm.13,1.36h0l1,11.22Zm-.15-1.57h0Zm.15,1.57h0l1,11.22Zm-.1-1v0h0Zm0-.32h0Zm0-.21h0Zm.15,1.57h0l1,11.22Zm-.09-.92h0v0Zm0-.12v0h0Zm0-.32h0Zm0-.21h0Zm.15,1.57h0l1,11.22Zm-.09-.92h0v0Zm0-.12v0h0Zm0-.1h0Zm0-.22h0Zm0-.11h0Zm0-.1h0Zm.15,1.57h0l1,11.22Zm-.09-.94v0h0v0Zm0-.1v0h0Zm0-.11h0v0Zm0-.21h0Zm0-.11h0Zm0-.1h0Zm.15,1.57h0l1,11.22Zm-.09-.94v0h0v0Zm0-.1v0h0Zm0-.11h0v0Zm0-.21h0Zm0-.11h0Zm0-.11h0ZM338.68,437.66l9.66,106.72q3.89-5.21,7.92-10.29c.68-.87,1.37-1.73,2.06-2.59.39-.48.77-1,1.17-1.45q1.39-1.72,2.8-3.44l.46-.56c1.19-1.44,2.39-2.88,3.6-4.3q3.47-4.1,7-8.12l1.86-2.09c.63-.71,1.27-1.42,1.91-2.12s1.25-1.39,1.89-2.07q1.62-1.78,3.27-3.55,1.47-1.57,2.95-3.12,2.34-2.48,4.73-4.92c1.29-1.31,2.58-2.62,3.87-3.91s2.74-2.73,4.13-4.08,2.78-2.7,4.18-4,2.81-2.67,4.22-4q1.8-1.68,3.61-3.32,5.26-4.81,10.68-9.46c.85-.74,1.7-1.47,2.56-2.18l1.35-1.15c.89-.75,1.78-1.5,2.68-2.23.61-.52,1.22-1,1.84-1.52l2.32-1.9c1.23-1,2.47-2,3.71-3,.83-.67,1.67-1.33,2.51-2q2.83-2.24,5.71-4.41l2.76-2.08q1.84-1.4,3.69-2.74l2.89-2.11,1.44-1c1.1-.78,2.2-1.57,3.3-2.34q1.95-1.38,3.9-2.72a.72.72,0,0,1,.15-.11Zm281.51-69,0,.41c.09-.14.2-.27.31-.41ZM566.25,205.39h0l1,11.22Zm-.09-.91h0v0h0Zm0-.11h0Zm0-.13h0Zm0-.2h0Zm0-.11h0Zm0-.11h0Zm0-.12h0Zm-227.41,234,9.66,106.72.2,2.21L551,543a304.54,304.54,0,0,1,29.22-109.62l-118.75,2.1ZM323.77,272.93l-1-11.15a544,544,0,0,0,49.12-24.91c37.49-21.46,70.76-46.63,98.93-74.78l1-1c-1.39-.28-2.79-.54-4.19-.81h0a1192,1192,0,0,0-155.75-19.11h0q-44.53-2.52-90-1.75A1155.23,1155.23,0,0,0,2.5,164V875l215.35-3.8c.56-.89,1.12-1.79,1.69-2.68s1.13-1.79,1.71-2.68c.19-.31.39-.62.59-.92q1.41-2.2,2.87-4.41c.4-.61.8-1.22,1.21-1.83.52-.8,1.06-1.6,1.59-2.39l.85-1.26,1.37-2,.86-1.27.44-.64.71-1c.15-.23.31-.46.47-.68q1.26-1.83,2.54-3.65l1.19-1.68c.51-.72,1-1.45,1.54-2.17l1.22-1.71c1-1.44,2.08-2.88,3.14-4.31.3-.42.6-.83.91-1.24s.7-.95,1.05-1.42c.69-.94,1.39-1.87,2.1-2.81q.87-1.17,1.77-2.34c.15-.2.3-.41.46-.61l1.29-1.69c.23-.3.46-.61.7-.91l.23-.3,1.68-2.17.08-.1a1.63,1.63,0,0,1,.17-.22,3.15,3.15,0,0,1,.24-.3l.5-.64c.51-.66,1-1.32,1.54-2,.34-.44.68-.87,1-1.3.85-1.08,1.71-2.15,2.57-3.22s1.72-2.14,2.6-3.2c.7-.88,1.41-1.75,2.13-2.62l.09-.1c.65-.79,1.3-1.58,2-2.37.44-.55.9-1.09,1.36-1.63l.15-.19.31-.36c.5-.6,1-1.21,1.52-1.8l1.81-2.13c.65-.77,1.31-1.53,2-2.29s1.05-1.22,1.58-1.82l1-1.14,1-1.1.35-.39c.12-.15.26-.3.39-.45l.11-.13c1.16-1.32,2.33-2.62,3.5-3.93l-7.86-87-1.5-.84q-2.7-1.51-5.37-3.06l-2.36-1.39c-.95-.56-1.91-1.13-2.85-1.71l-2.42-1.47-.36-.22-2.4-1.5c-1.63-1-3.24-2.05-4.85-3.09l-.62-.41-2.13-1.41L245,685.42q-2.59-1.75-5.14-3.55l-2.43-1.72q-4.9-3.51-9.63-7.16c-.74-.57-1.47-1.13-2.19-1.71q-3.47-2.71-6.83-5.51l-2.23-1.87c-.74-.62-1.47-1.25-2.2-1.88q-2.19-1.89-4.34-3.82l-2.14-1.93q-2.12-1.93-4.19-3.9t-4-3.9c-1.37-1.35-2.73-2.72-4.07-4.09C158.05,606,134.15,559.84,129.64,510,120,403.79,201.08,311.48,323.77,272.93ZM566.09,203.7h0Zm0,.11h0Zm0,.11h0Zm0,.11h0Zm0,.21h0v0Zm0,.11v0h0Zm0,.1v0h0v0Zm.09.94h0l1,11.22Zm-.15-1.58h0Zm0,.11h0Zm0,.11h0Zm0,.21h0v0Zm0,.11v0h0Zm0,.1v0h0v0Zm.09.94h0l1,11.22Zm-.15-1.57h0Zm0,.1h0Zm0,.11h0Zm0,.22h0Zm0,.1v0h0Zm0,.12h0v0Zm.09.92h0l1,11.22Zm-.15-1.57h0Zm0,.1h0Zm0,.11h0Zm0,.22h0Zm0,.1v0h0Zm0,.12h0v0Zm.09.92h0l1,11.22Zm-.15-1.57h0Zm0,.21h0Zm0,.32v0h0Zm.1,1h0l1,11.22Zm-.15-1.57h0Zm.15,1.57h0l1,11.22Zm-.15-1.57h0Zm0,.21h0Zm.13,1.36h0l1,11.22Zm0,0h0l1,11.22Zm0,0h0l1,11.22Zm0,0h0l1,11.22ZM461.48,435.49l-122.8,2.17,9.66,106.72.2,2.21L551,543a304.54,304.54,0,0,1,29.22-109.62Zm158.71-66.87,0,.41c.09-.14.2-.27.31-.41ZM461.48,435.49l-122.8,2.17,9.66,106.72.2,2.21L551,543a304.54,304.54,0,0,1,29.22-109.62Zm158.71-66.87,0,.41c.09-.14.2-.27.31-.41Zm106.28-126h0q-34.08-3.91-66.9-10.84h0a700.79,700.79,0,0,1-93.29-26.41h0l1,11.22,1.52,16.79,3.27,36.13a418.78,418.78,0,0,1,52.25,17.94A385.39,385.39,0,0,1,674,312.58q15.9-13.87,33.57-26.58a502.82,502.82,0,0,1,46.91-29.9Q740.62,249.19,726.47,242.65Zm-265,192.84-122.8,2.17,9.66,106.72.2,2.21L551,543a304.54,304.54,0,0,1,29.22-109.62Zm158.71-66.87,0,.41c.09-.14.2-.27.31-.41Zm106.28-126h0q-12.84-5.94-25.94-11.57h0A1099.92,1099.92,0,0,0,564.22,183l1.19,13.15.29,3.26.19,2.05.16,1.8,0,.2,0,.24h0v.11h0v.1h0V204h0v.21h0v.11h0v.11h0l.08.9,1,11.22,1.52,16.79,3.27,36.13a418.78,418.78,0,0,1,52.25,17.94A385.39,385.39,0,0,1,674,312.58q15.9-13.87,33.57-26.58a502.82,502.82,0,0,1,46.91-29.9Q740.62,249.19,726.47,242.65Zm-265,192.84-122.8,2.17,9.66,106.72.2,2.21L551,543a304.54,304.54,0,0,1,29.22-109.62Zm158.71-66.87,0,.41c.09-.14.2-.27.31-.41Zm-75,992.79-1.88.54,1.93,0Z"/><path class="cls-3" d="M936.32,1548.2l-597.58,10.55q-23.4-21.9-44.42-45.19a683.31,683.31,0,0,1-52.85-66.23q48.91,3.14,98.94,2.29,11.77-.21,23.47-.64a1165.15,1165.15,0,0,0,147.49-14.8,422.18,422.18,0,0,0,45.54,56.61L537.38,1275l283.25-5,6.4,70.73a724,724,0,0,1,92.07,17.18Z"/><path class="cls-3" d="M567.41,1006.18l-116.31,2.05L438.35,867.32,287.28,870,280,789a674.46,674.46,0,0,1,58.64-57.78,456.15,456.15,0,0,0,206.67,18.64,415.22,415.22,0,0,0,56.46-12,420.1,420.1,0,0,0,58.55,73.71l11.05,122.18c-38.69,20.3-73.31,44.4-103,71.58C568,1005.59,567.72,1005.88,567.41,1006.18Z"/><path class="cls-3" d="M568.45,1006.16l-1,0c.31-.3.62-.59,1-.88Z"/><path class="cls-3" d="M911.57,1274.68l-.57-6.3,9.49-.17C917.53,1270.38,914.57,1272.55,911.57,1274.68Z"/><path class="cls-3" d="M545.25,1361.92l-1.93,0,1.88-.54Z"/><path class="cls-3" d="M1292.68,16.5a376.81,376.81,0,0,1-61.39,78.08c-34.5,33.93-76.49,63.46-124.37,87.27h0q-21.18,10.54-43.87,19.55a640.84,640.84,0,0,1-122.5,34.73q-31.9,5.78-65.41,8.68Q850.44,247,825,247.4c-2.12,0-4.22.07-6.34.09q-12.95.12-25.77-.21-33.63-.84-66.39-4.63h0q-34.08-3.91-66.9-10.84h0a700.79,700.79,0,0,1-93.29-26.41h0l-.35-3.93-.19-2.05-.29-3.26L564.22,183l-8.87-98q-8.21-7.9-16.05-16c-16.86,33.15-39.65,64.09-67.49,92.1l-1,1-3.2-1.81h0C400,122,343.82,72.89,304.25,16.5Z"/><path class="cls-3" d="M560.39,16.5q-3.89,13-8.92,25.6Q546,55.77,539.3,69c-16.86,33.15-39.65,64.09-67.49,92.1l-1,1c-28.17,28.15-61.44,53.32-98.93,74.78a544,544,0,0,1-49.12,24.91c-75.63,33.79-164.44,53.84-260.71,55.54Q32,317.85,2.5,316V16.5H300.57L300,10.35q2.07,3.09,4.23,6.15Z"/><path class="cls-3" d="M1445.5,1517.6c-1,1-2,2-3,3l-1,1q-4.71,4.59-9.62,9.06a470.15,470.15,0,0,1-67.82,51.2c-1.18.74-2.38,1.48-3.58,2.21a.5.5,0,0,1-.14.08l-4.66,2.83a2.79,2.79,0,0,1-.33.19l-4.42,2.62-.94.55-3.5,2q-1.2.7-2.43,1.38l-2.54,1.43c-1.18.66-2.36,1.31-3.55,2l-1.53.84c-1.12.61-2.24,1.22-3.37,1.81-.83.45-1.66.9-2.5,1.34l-1.45.75c-1.34.71-2.68,1.4-4,2.09-1.73.89-3.48,1.77-5.23,2.65q-19.84,9.93-41,18.49c-1.62.66-3.24,1.31-4.88,2l-.11,0q-3.18,1.26-6.39,2.48c-2.11.81-4.23,1.6-6.36,2.39q-3.54,1.31-7.13,2.57c-2.11.75-4.23,1.48-6.36,2.21q-2.56.88-5.15,1.74t-5.22,1.71l-3.94,1.25-3.38,1.06q-3.2,1-6.4,1.94-2.64.79-5.31,1.56-9.48,2.73-19.15,5.2-3.21.83-6.44,1.61c-2.1.52-4.22,1-6.34,1.52l-.13,0c-1.81.43-3.63.84-5.46,1.25l-.64.14-1.87.42-4.22.92q-7,1.5-14.11,2.86-3.24.63-6.49,1.22-6.78,1.23-13.64,2.34c-4.5.73-9,1.41-13.59,2-1.85.26-3.7.52-5.56.76l-2.16.29-.69.09c-1.57.2-3.14.4-4.72.58-2.22.28-4.46.54-6.7.79l-2.82.31q-3.63.39-7.28.75-12.8,1.28-25.81,2.08-16.45,1-33.25,1.34l-6.88.09c-4.83,0-9.66,0-14.47,0q-15.45-.15-30.73-1c-1.51-.08-3-.16-4.53-.26q-3-.16-6-.37c-1.19-.07-2.38-.16-3.56-.24-3.18-.22-6.36-.47-9.52-.74q-7.12-.59-14.21-1.32l-5.67-.61-3.33-.38q-11.79-1.35-23.44-3.09-3.15-.46-6.28-1l-1.64-.26-3.41-.55-1.32-.22q-3.09-.51-6.17-1l-1.92-.34c-1.46-.25-2.91-.52-4.36-.79-3.9-.72-7.79-1.46-11.66-2.25-1-.2-2.11-.42-3.16-.64-1.66-.33-3.3-.68-5-1q-3-.62-5.91-1.28c-1.31-.29-2.61-.58-3.91-.89-1.14-.25-2.27-.51-3.4-.78-1.76-.4-3.52-.82-5.27-1.24l-5.53-1.36q-4.95-1.23-9.87-2.53c-1.26-.34-2.52-.67-3.78-1-.61-.16-1.22-.32-1.82-.5h0c-1.25-.33-2.5-.68-3.74-1q-7.51-2.08-14.93-4.35-2.54-.77-5.06-1.56l-3.54-1.11q-9-2.85-17.78-5.92-2.54-.87-5.05-1.78t-5-1.82q-2.5-.9-5-1.85-8.25-3.09-16.35-6.38l-4.52-1.85c-1.25-.51-2.5-1-3.74-1.56-1.62-.68-3.23-1.36-4.84-2.06q-2.67-1.14-5.31-2.31l-5.27-2.36c-2.39-1.07-4.77-2.17-7.13-3.28l-3-1.39c-.32-.14-.64-.29-.95-.45-1.35-.64-2.69-1.28-4-1.94l-.87-.42q-2.12-1-4.22-2.06-4.61-2.28-9.15-4.63c-1.24-.63-2.48-1.28-3.72-1.93l-.06,0c-1.55-.8-3.08-1.62-4.61-2.44-2.08-1.1-4.15-2.23-6.2-3.36q-2.43-1.34-4.85-2.7c-1.39-.77-2.78-1.56-4.16-2.35l-1.81-1-.5-.29c-1.54-.88-3.08-1.78-4.6-2.69l-3-1.76-3-1.81c-.25-.14-.49-.29-.73-.44l-2.15-1.31c-1.49-.91-3-1.83-4.43-2.75l-3.45-2.18-2.53-1.63q-5.58-3.58-11-7.29-5.19-3.51-10.27-7.12L375,1558.11l-36.3.64q1.56,1.47,3.14,2.92l2.2,2,2,1.86q1.68,1.55,3.39,3.08,2,1.84,4.1,3.67l3.48,3.08q4.14,3.63,8.34,7.23l3.5,3c1.81,1.54,3.64,3.07,5.47,4.59l.39.32q2.94,2.43,5.92,4.86l3.83,3.11c1.7,1.37,3.42,2.74,5.14,4.1s3.44,2.72,5.18,4.07l3.48,2.7,2.52,1.94,1,.74c1.7,1.3,3.42,2.59,5.14,3.89l.36.27c1.69,1.27,3.4,2.54,5.11,3.8l1.08.8.6.43c1.82,1.35,3.64,2.68,5.48,4l.46.33c1,.74,2,1.48,3.07,2.21q3.71,2.65,7.44,5.27l3.58,2.5q4.31,3,8.66,5.93c1.44,1,2.89,2,4.34,2.91s3,2,4.57,3l.36.24.51.33,2.82,1.85,2.84,1.85q3.09,2,6.21,4,2.22,1.41,4.45,2.81l.25.16.71.44,3,1.89.11.07c1.75,1.09,3.51,2.18,5.28,3.25,1.07.66,2.14,1.32,3.21,2l0,0c1.17.72,2.35,1.43,3.53,2.13s2.56,1.54,3.85,2.31q6.84,4.07,13.78,8l2,1.12q2.64,1.52,5.3,3l1.79,1c2.25,1.25,4.5,2.5,6.77,3.74l.31.17c.2.12.4.22.6.33,2,1.1,4,2.2,6.06,3.28l.06,0,1.86,1c.62.33,1.24.67,1.87,1l1.16.62,4.07,2.15,1.82.95.65.34c2.25,1.18,4.52,2.35,6.79,3.51s4.85,2.46,7.28,3.68l2.47,1.23,6.52,3.22.93.45.18.09,3.67,1.78,4.1,2q4.25,2,8.5,4,4.44,2.07,8.91,4.09l2.53,1.14c.84.39,1.68.77,2.53,1.14l5.08,2.26c2.12.94,4.24,1.87,6.38,2.79q2.58,1.13,5.19,2.24,3.81,1.64,7.65,3.23c2.15.9,4.31,1.8,6.47,2.68l5.2,2.12,7,2.82,1.65.65q3.5,1.38,7,2.73l5.27,2q5.11,2,10.27,3.84h0l.32.12,2.66,1,2.67,1,5.34,1.92q4,1.42,8,2.82,13,4.53,26.28,8.77,8.21,2.63,16.5,5.14l2.24.68,7.94,2.36,8.28,2.39,4.42,1.25,4.81,1.34,8.5,2.3q4,1.08,8.06,2.12,12.12,3.15,24.37,6h0l3.47.83q9,2.1,18.17,4.08c3,.66,6.09,1.3,9.14,1.94q5.21,1.08,10.44,2.12c2.07.41,4.13.82,6.2,1.21q4.92,1,9.86,1.86l6.56,1.19,6.57,1.15c2.19.37,4.38.75,6.58,1.11q4.89.83,9.81,1.59c1.48.23,3,.47,4.45.69l4.44.68,6.86,1,6.88,1,6.9.93,6.91.89,4.25.53,3.56.43,2.42.29,4.73.55,4.73.52q14.32,1.57,28.77,2.8,6.81.58,13.64,1.08c1.79.14,3.59.27,5.39.39l6.36.42,5.4.34,3.84.22,4,.22,4.25.22,4.79.22,6.76.29h.15l5.49.2,2.07.08c2,.06,4,.13,6,.18q3.42.11,6.85.18,6.86.15,13.72.23,17.21.19,34.53-.1l.68,0c2.62,0,5.24-.1,7.86-.17l5.82-.15q57.86-1.66,113.29-8.7,48.27-6.07,94.38-16,15.35-3.28,30.41-7,9.4-2.3,18.7-4.76h0q3-.78,5.93-1.59,41.31-11.16,80.37-25.31"/><path class="cls-3" d="M552.12,598.05c-.22-2.07-.44-4.13-.62-6.2A301.1,301.1,0,0,1,551,543a304.54,304.54,0,0,1,29.22-109.62,347.26,347.26,0,0,1,40-64.36c.09-.14.2-.27.31-.41a406.08,406.08,0,0,1,53.43-56q15.9-13.87,33.57-26.58a502.82,502.82,0,0,1,46.91-29.9q26.85,13.41,52.4,28.15,8,4.65,16,9.42,31.29,18.85,60.33,39.64,20.31,14.54,39.47,30,16.39,13.21,31.88,27.06a735.15,735.15,0,0,1,91.22,97.32q10.05,13,19.37,26.28-8.52-.56-17.08-1-40.54-2-81.85-1.32h-.68q-33.35.62-65.92,3-28.45,2.1-56.25,5.5-19.08,2.31-37.83,5.26-26,4.08-51.37,9.27-11.91,2.46-23.69,5.14Q682.86,550.71,638,565.42,593.57,580,552.12,598.05Z"/><path class="cls-3" d="M1442.5,1318.05l-1,0-28.8.5-291.34,5.15-15.56-171.89-5,.09-57.51,1c-34.7,42-75.94,80.68-122.78,115.28-3,2.17-5.92,4.34-8.92,6.47l-.57-6.3L820.63,1270l3.61,39.86L827,1340.7a724,724,0,0,1,92.07,17.18l11.66,128.87,5.56,61.45,122.75-2.16-12.86-142q8.61,4.15,17,8.54l4.58,2.42q17,9,33,19c.91.55,1.81,1.11,2.71,1.68q5.64,3.51,11.14,7.14c.94.61,1.88,1.23,2.81,1.86q3.18,2.12,6.32,4.27,2.24,1.53,4.44,3.08l2.41,1.69c.7.5,1.41,1,2.1,1.5,1,.67,1.9,1.35,2.84,2q3.15,2.28,6.26,4.61c.91.68,1.82,1.36,2.72,2s1.81,1.36,2.7,2.05q2.73,2.08,5.41,4.2,7.17,5.64,14.06,11.48c.73.61,1.45,1.23,2.17,1.85q6.64,5.67,13,11.53c1,1,2.07,1.91,3.09,2.86l.38.36c1.62,1.52,3.23,3,4.82,4.58q3.46,3.33,6.84,6.72c1,1,2,2,2.93,3s1.94,2,2.89,3l2.86,3c1,1,1.89,2,2.82,3s1.87,2,2.8,3,1.7,1.87,2.54,2.81l2.52,2.84q1.62,1.83,3.2,3.68c.86,1,1.71,2,2.56,3s1.75,2.08,2.62,3.13l2.58,3.14,86.59-1.52,3.43,37.91,2.45,27.06c1.75-.88,3.5-1.76,5.23-2.65l2-1q7.42-3.84,14.65-7.87c.77-.43,1.54-.86,2.3-1.3l2.43-1.38c1-.55,2-1.12,3-1.7.57-.32,1.14-.66,1.71-1,1.41-.81,2.8-1.64,4.19-2.48.31-.17.62-.36.92-.55,1.37-.81,2.72-1.63,4.07-2.47a.5.5,0,0,0,.14-.08c1.2-.73,2.39-1.47,3.58-2.21a470.15,470.15,0,0,0,67.82-51.2q4.9-4.47,9.62-9.06l1-1c1-1,2-2,3-3"/><path class="cls-3" d="M568.45,1006.16l-1,0c.31-.3.62-.59,1-.88Z"/><path class="cls-3" d="M810.41,1157l-118.69,2.1L638,565.42q44.79-14.65,92.41-25.57l-51.29,77c-4.47,34.88,106.33-10.75,84,18.07L773.22,746c-23.86,36.52-35.57,78.31-31.57,122.51q.47,5.24,1.22,10.41a194.25,194.25,0,0,0,4.45,21.71c8.48,32.07,25,62.09,47.94,88.87Z"/><path class="cls-3" d="M911.57,1274.68l-.57-6.3,9.49-.17C917.53,1270.38,914.57,1272.55,911.57,1274.68Z"/><path class="cls-3" d="M545.25,1361.92l-1.93,0,1.88-.54Z"/><path class="cls-3" d="M545.2,1361.41l-1.88.54,1.93,0Zm43,475.81v0l-10.84-119.81q-4.26-2-8.5-4l-4.1-2-3.67-1.78-.18-.09-.93-.45-6.52-3.22-2.47-1.23c-2.43-1.22-4.86-2.44-7.28-3.68s-4.54-2.33-6.79-3.51l-.65-.34-1.82-.95-4.07-2.15-1.16-.62c-.63-.32-1.25-.66-1.87-1l-1.86-1-.06,0c-2-1.08-4.05-2.18-6.06-3.28-.2-.11-.4-.21-.6-.33l-.31-.17c-2.27-1.23-4.52-2.49-6.77-3.74l-1.79-1q-2.65-1.48-5.3-3l-2-1.12q-6.94-4-13.78-8c-1.29-.77-2.57-1.53-3.85-2.31s-2.36-1.41-3.53-2.13l0,0c-1.07-.64-2.14-1.3-3.21-2-1.77-1.07-3.53-2.16-5.28-3.25l-.11-.07-3-1.89-.71-.44-.25-.16q-2.24-1.4-4.45-2.81-3.12-2-6.21-4l-2.84-1.85-2.82-1.85-.51-.33-.36-.24q-2.3-1.49-4.57-3c-1.45-1-2.9-1.94-4.34-2.91q-4.35-2.94-8.66-5.93l-3.58-2.5q-3.74-2.62-7.44-5.27c-1-.73-2.05-1.47-3.07-2.21l-.46-.33c-1.84-1.33-3.66-2.66-5.48-4l-.6-.43-1.08-.8c-1.71-1.26-3.42-2.53-5.11-3.8l-.36-.27c-1.72-1.3-3.44-2.59-5.14-3.89l-1-.74-2.52-1.94-3.48-2.7c-1.74-1.35-3.46-2.71-5.18-4.07s-3.44-2.73-5.14-4.1l-3.83-3.11q-3-2.43-5.92-4.86l-.39-.32c-1.83-1.52-3.66-3-5.47-4.59l-3.5-3q-4.2-3.6-8.34-7.23l-3.48-3.08q-2.06-1.83-4.1-3.67-1.71-1.53-3.39-3.08l-2-1.86-2.2-2q-1.58-1.45-3.14-2.92-23.4-21.9-44.42-45.19l-34,46.58q-1.82,3-3.56,5.94c-.44.73-.87,1.47-1.29,2.21l0,0,0,.05-.1.17c-.57,1-1.16,2-1.73,3l-.05.09-.06.1c-.61,1.09-1.21,2.18-1.81,3.28-.47.85-.93,1.7-1.39,2.56l-.67,1.25c-.83,1.58-1.66,3.17-2.47,4.77-.63,1.22-1.24,2.45-1.85,3.68,0,0,0,0,0,.05-.34.67-.67,1.35-1,2q-1.73,3.54-3.34,7.11c-.43,1-.87,1.9-1.29,2.86l-.08.18-.06.13c-.45,1-.89,2-1.33,3.07s-.89,2.08-1.33,3.13l-1.29,3.15v.1c-.19.44-.37.83-.55,1.26,0,.14-.11.28-.17.43-.24.59-.47,1.19-.7,1.78,0,.09-.08.19-.11.28-.43,1.1-.85,2.2-1.27,3.31-.9,2.39-1.77,4.8-2.61,7.21q-1.19,3.39-2.29,6.81l-.06.18c-.35,1.08-.69,2.16-1,3.25s-.62,2-.92,3c-.37,1.22-.72,2.45-1.07,3.68-.18.62-.35,1.23-.52,1.84s-.34,1.24-.51,1.85c-.3,1.09-.59,2.19-.87,3.28s-.62,2.43-.92,3.64c-.36,1.45-.7,2.9-1,4.35-.16.72-.33,1.45-.49,2.18s-.33,1.45-.48,2.18c-.31,1.46-.61,2.92-.91,4.38-.12.58-.23,1.17-.34,1.75-.06.29-.12.59-.17.88s-.11.59-.16.88-.08.37-.11.55-.11.6-.16.9c-.1.58-.21,1.15-.31,1.73s-.21,1.16-.3,1.74c-.05.28-.09.55-.14.83-.2,1.19-.39,2.39-.58,3.58,0,.18-.05.37-.08.55-.22,1.43-.43,2.86-.62,4.3l-.06.42c-.17,1.21-.32,2.42-.47,3.63-.07.56-.14,1.12-.2,1.68-.16,1.28-.3,2.56-.43,3.84s-.26,2.56-.38,3.85l0,.3c-.11,1.2-.21,2.41-.3,3.61l-.12,1.55c-.06,1-.13,1.91-.19,2.87q-.08,1-.12,2.07c-.08,1.28-.14,2.56-.2,3.84s-.11,2.84-.15,4.26c0,.27,0,.54,0,.81,0,.84,0,1.67-.06,2.51v0l0,1.74c0,1.2,0,2.4,0,3.61v.14c0,1,0,2,0,3l0,2.08c0,.21,0,.41,0,.62,0,.73,0,1.48,0,2.22,0,.2,0,.41,0,.62l.06,2c0,.67,0,1.34.08,2q.09,2.13.21,4.26c.05.88.1,1.76.16,2.64s.09,1.49.15,2.24c0,0,0,.09,0,.13.05.7.1,1.4.16,2.11.09,1.16.19,2.31.29,3.47l.06.65c.07.79.15,1.57.23,2.36s.15,1.55.24,2.33c0,.32.07.64.1,1,.1.9.21,1.81.32,2.72s.2,1.69.31,2.53.22,1.68.34,2.52c.14,1.07.29,2.13.45,3.19s.34,2.29.52,3.43a2.51,2.51,0,0,1,0,.27c.18,1.09.36,2.19.55,3.28s.38,2.19.58,3.28l.09.5c.08.46.16.92.25,1.37l.36,1.86c.29,1.5.59,3,.9,4.49.41,2,.84,3.91,1.28,5.87.23,1,.47,2,.71,3,0,0,0,0,0,.07q.24,1,.51,2.1a1.6,1.6,0,0,0,.05.21c.28,1.13.56,2.25.85,3.37.15.57.3,1.13.44,1.69,0,.12.07.24.1.36l.27,1c.33,1.22.67,2.44,1,3.66l.58,2c.27.93.55,1.87.83,2.8.23.77.46,1.55.7,2.32q1.47,4.82,3.11,9.57c.31.93.63,1.85,1,2.77s.65,1.84,1,2.76l.63,1.73h0v0l.3.78a.78.78,0,0,0,.05.14c.24.64.48,1.27.71,1.9.46,1.2.92,2.4,1.39,3.6l1.11,2.81c.75,1.87,1.52,3.74,2.3,5.59l1.19,2.79c.4.92.81,1.85,1.22,2.77s.8,1.8,1.21,2.7.73,1.61,1.1,2.41c.64,1.39,1.3,2.78,2,4.17.38.8.77,1.59,1.16,2.39.55,1.15,1.12,2.3,1.7,3.45.05.11.11.21.16.32.36.72.72,1.44,1.09,2.15l.15.29c.35.67.69,1.35,1,2s.69,1.34,1.05,2c.27.51.54,1,.82,1.54.37.71.75,1.41,1.14,2.12.52,1,1,1.92,1.58,2.88l1.41,2.52.3.55c.22.38.44.75.65,1.13l1.71,3c.57,1,1.15,2,1.73,2.93.72,1.22,1.45,2.42,2.19,3.63.62,1,1.24,2,1.87,3,.34.55.68,1.1,1,1.64l1,1.65,1.67,2.59c.25.39.5.77.76,1.15l.13.2q.85,1.32,1.74,2.64c.66,1,1.33,2,2,3l2,2.85c.65,1,1.31,1.9,2,2.84l1.35,1.9c.89,1.25,1.8,2.5,2.71,3.74,1,1.42,2.08,2.83,3.13,4.23l2.28,3,2.72,0,46.38-.82,1.58,0h.08L515.27,1924h0l44.35-.78,27.76-.49h.36l8.23-.15Z"/><path class="cls-3" d="M1106.06,2065.45l-7.75-85.68-122.74,2.17-6-66L596,1922.57l-18.57-205.18c114.46,53.29,244.89,88.54,383.3,100.31a1209.81,1209.81,0,0,0,123.31,4.17l8.32,91.94,174.94-3.09a366.67,366.67,0,0,1-49.22,66.93C1187.26,2011.12,1149.47,2040.76,1106.06,2065.45Z"/><path class="cls-3" d="M1037.13,1672.45a750.29,750.29,0,0,1-89.91-3.82c-121.08-12.5-231.65-54.08-317.37-115l429.22-7.57-12.86-142c73.44,35.51,135.75,83.16,181.19,139.07l86.59-1.52,5.88,65q-19.84,9.93-41,18.49c-62.31,25.23-132.76,41.39-208.45,46.11Q1053.93,1672.15,1037.13,1672.45Z"/><path class="cls-3" d="M620.23,369l0-.41h.35C620.43,368.76,620.32,368.89,620.23,369Z"/><path class="cls-3" d="M338.59,731.21A674.46,674.46,0,0,0,280,789l-7.86-87c-29.25-16.21-55.13-35.67-76.56-57.66C158.05,606,134.15,559.84,129.64,510c-9.61-106.18,71.44-198.49,194.13-237l-1-11.15a544,544,0,0,0,49.12-24.91c37.49-21.46,70.76-46.63,98.93-74.78l1-1c27.84-28,50.63-58.95,67.49-92.1q7.86,8.07,16.05,16l16.7,184.57a418.78,418.78,0,0,1,52.25,17.94A385.39,385.39,0,0,1,674,312.58a406.08,406.08,0,0,0-53.43,56h-.35l0,.41a347.26,347.26,0,0,0-40,64.36l-241.55,4.27,9.86,108.93L551,543a301.1,301.1,0,0,0,.49,48.84c.18,2.07.4,4.13.62,6.2q41.42-18,85.88-32.63l22.27,246.12a420.1,420.1,0,0,1-58.55-73.71,415.22,415.22,0,0,1-56.46,12,456.15,456.15,0,0,1-206.67-18.64Z"/><path class="cls-3" d="M551,543l-202.47,3.58-9.86-108.93,241.55-4.27A304.54,304.54,0,0,0,551,543Z"/><path class="cls-3" d="M1096.76,1051.89l-205,3.62-4.13-.93c-38.7-20.17-66.93-35.33-92.35-65.06-22.89-26.78-39.46-56.8-47.94-88.87a194.25,194.25,0,0,1-4.45-21.71q-.75-5.18-1.22-10.41c-4-44.2,7.71-86,31.57-122.51,29.53-45.13,77.65-82.2,137.69-105.76a392.72,392.72,0,0,1,64.48-19,442.3,442.3,0,0,1,81.29-8.88h.31a461.35,461.35,0,0,1,65.75,3.57q8.67,1.09,17.21,2.52c119.72,19.84,219,85.93,259,171.84A199.45,199.45,0,0,1,1417,856.61a185.12,185.12,0,0,1-6.34,67.75,595.06,595.06,0,0,1-79.29,31.39q-18.3,5.79-37.35,10.58L1144.9,969c-1.88,6,2.15,12,0,18-1.44,0-9,.06-10.4.09q-22,.39-43.68-.5Z"/><path class="cls-3" d="M1442.5,602.34l-1-.42-4.62-2q-3.24-1.38-6.5-2.71c-2.73-1.12-5.46-2.24-8.2-3.34l-3-1.22-1.07-.43-6.07-2.39q-4.38-1.71-8.79-3.39c-84.55-32.2-176.2-55-272.16-66.48q-14.73-1.77-29.6-3.17-18.09-1.71-36.36-2.88-8.52-.56-17.08-1-40.54-2-81.85-1.32h-.68q-33.35.62-65.92,3-28.45,2.1-56.25,5.5-19.08,2.31-37.83,5.26-4.71.73-9.4,1.52-12.92,2.13-25.65,4.54-8.19,1.54-16.32,3.21-11.91,2.46-23.69,5.14l-33.35,50-17.94,26.93c-4.47,34.88,106.33-10.75,84,18.07l5.13,56.77L773.22,746A227.3,227.3,0,0,1,789.68,724q7.14-8.51,15.24-16.5c28-27.74,64.1-50.75,106-67.19a392.72,392.72,0,0,1,64.48-19,442.3,442.3,0,0,1,81.29-8.88h.31a461.35,461.35,0,0,1,65.75,3.57q8.67,1.09,17.21,2.52,16.6,2.74,32.64,6.67c104.93,25.56,190.08,87.2,226.32,165.17A199.45,199.45,0,0,1,1417,856.61a185.12,185.12,0,0,1-6.34,67.75,595.06,595.06,0,0,1-79.29,31.39q-18.3,5.79-37.35,10.58l-93,1.64-56.17,1c-1.88,6,2.15,12,0,18-1.44,0-9,.06-10.4.09q-22,.39-43.68-.5l5.91,65.33-192.47,3.4-12.55.22-4.13-.93q-4.1-2.13-8-4.21c-34.63-18.17-60.68-33.22-84.31-60.85L810.41,1157l-118.69,2.1-20.4-225.42q-21.21,11.13-40.76,23.76-16.15,10.42-31.08,21.82-16.34,12.47-31.11,26l.08.86-1,0-116.31,2.05L438.35,867.32,287.28,870,280,789q-2.68,3-5.31,6c-.86,1-1.72,2-2.57,3-.66.76-1.32,1.52-2,2.29l-1.81,2.13-1.83,2.16q-1.75,2.09-3.48,4.19c-.75.91-1.49,1.81-2.22,2.72q-2.62,3.19-5.17,6.42c-1,1.3-2.07,2.6-3.07,3.91a3.15,3.15,0,0,0-.24.3,1.63,1.63,0,0,0-.17.22c-.68.85-1.34,1.71-2,2.57-.83,1.07-1.65,2.14-2.45,3.21q-.9,1.17-1.77,2.34-3.66,4.86-7.2,9.78-1.39,1.93-2.76,3.88c-1.66,2.33-3.29,4.68-4.91,7-.9,1.3-1.79,2.62-2.67,3.93-1.23,1.82-2.45,3.64-3.65,5.48q-1.44,2.19-2.87,4.41c-.2.3-.4.61-.59.92q-1.73,2.67-3.4,5.36L2.5,875v141.14l153-2.7a484.83,484.83,0,0,0-14.25,168.92,506.67,506.67,0,0,0,8.77,58.4l303.15-5.35a302.21,302.21,0,0,0,.91,41.82,318.55,318.55,0,0,0,20.19,85.93l69-1.22,1.88-.54-7.78-86,0-.4,283.25-5,90.37-1.59,9.49-.17c46.84-34.6,88.08-73.28,122.78-115.28l57.51-1,87.3-1.54-9-99.93,209.07-3.7,24.59,271.83h0l23.58-.42,5.22-.09,1,0"/><polygon class="cls-3" points="1412.7 1318.58 1121.36 1323.72 1105.81 1151.83 1188.08 1150.37 1179.04 1050.43 1388.11 1046.74 1412.7 1318.58"/></g><text class="cls-4" transform="translate(377 1991.28) scale(0.86 1)"><tspan xml:space="preserve">  </tspan><tspan class="cls-5" x="142.65" y="0">Y</tspan><tspan class="cls-6" x="271.05" y="0">eah</tspan><tspan class="cls-7"><tspan x="0" y="251.84">Science</tspan></tspan></text><circle class="cls-8" cx="736" cy="834" r="483.87"/><path class="cls-9" d="M740.93,589.4c-22.66.29-45.33.6-68,.6,0,0-7.4-.35-10,9.33-2,7.45.06,11.78,2.67,15.89a48.86,48.86,0,0,1,4.78,18.89C673.91,698,681,766.36,658.49,827.42c-9.79,26.52-18.44,54.55-31.39,79.75-9.17,17.83-63.33,172.33-63.33,172.33s-17.5,47.17-20.34,63.5-3.33,13-2.16,28c4.65,59.81,71.43,73.49,120.35,76.59,57.06,3.63,119.84,3.25,176.61-4.06l.2,0c36.49-4.7,97.78-25.32,97.17-71.5-.38-28.53-14-75.33-24-98s-36.67-105.38-56.67-156.69c-12.64-32.45-25.44-64.85-37.46-97.54-11.06-30.06-13.21-62.36-12.8-94.12.4-31.09.77-62.6,3.32-93.59.76-9.35,5.63-16.67,8.58-25.37,2.12-6.23,2.12-13.69-5-16.57-3.34-1.35-7.05-1.29-10.65-1.21C781,588.91,760.94,589.15,740.93,589.4Z"/><path class="cls-10" d="M689,692.63c6.06,55.49-.6,115.32-20.25,168.55-8.54,23.12-16.08,47.56-27.37,69.53-8,15.55-55.22,150.25-55.22,150.25s-15.25,41.12-17.72,55.36c-.09.49-2.51,16.52-1.89,24.41,4.06,52.15,62.27,64.07,104.93,66.78,49.74,3.16,104.48,2.83,154-3.55l.17,0c31.81-4.1,85.25-22.08,84.72-62.34-.33-24.87-12.21-65.68-20.93-85.44s-32-91.87-49.4-136.61c-11-28.29-24.05-55.92-32.67-85-8.56-28.93-14.25-47.28-16.56-82.26-2-30-.66-50.89-1-79.22C789.71,690.13,689,692.63,689,692.63Z"/><circle class="cls-11" cx="744.67" cy="566.53" r="8.67"/><circle class="cls-11" cx="709.55" cy="423.42" r="26.45"/><circle class="cls-11" cx="718.67" cy="521.86" r="17.33"/><circle class="cls-11" cx="784.22" cy="534.72" r="14.17"/><circle class="cls-11" cx="766.88" cy="474.35" r="24.48"/></g></g></svg>