<svg xmlns="http://www.w3.org/2000/svg" xmlns:xlink="http://www.w3.org/1999/xlink" viewBox="0 0 987.75 987.75"><defs><style>.cls-1{fill:#575756;stroke-width:20px;stroke:url(#Безымянный_градиент_24);}.cls-1,.cls-2,.cls-3,.cls-4{stroke-miterlimit:10;}.cls-2{fill:#f6f6f6;stroke:#fff;stroke-width:10px;opacity:0.18;}.cls-3{stroke-width:13px;fill:url(#Безымянный_градиент_8);stroke:url(#Угасающее_небо);}.cls-4{fill:none;stroke:#36a9e1;stroke-width:6px;}</style><linearGradient id="Безымянный_градиент_24" y1="493.87" x2="987.75" y2="493.87" gradientUnits="userSpaceOnUse"><stop offset="0" stop-color="#2581c4"/><stop offset="0.28" stop-color="#2680c3" stop-opacity="0.99"/><stop offset="0.38" stop-color="#2a7cc1" stop-opacity="0.96"/><stop offset="0.45" stop-color="#3176bd" stop-opacity="0.9"/><stop offset="0.51" stop-color="#3a6db7" stop-opacity="0.81"/><stop offset="0.56" stop-color="#4762b0" stop-opacity="0.7"/><stop offset="0.6" stop-color="#5754a6" stop-opacity="0.56"/><stop offset="0.64" stop-color="#69439b" stop-opacity="0.39"/><stop offset="0.68" stop-color="#7e308f" stop-opacity="0.21"/><stop offset="0.71" stop-color="#951b81" stop-opacity="0"/><stop offset="0.71" stop-color="#941e82" stop-opacity="0.06"/><stop offset="0.73" stop-color="#922585" stop-opacity="0.25"/><stop offset="0.74" stop-color="#902c88" stop-opacity="0.41"/><stop offset="0.76" stop-color="#8e318a" stop-opacity="0.53"/><stop offset="0.79" stop-color="#8d348b" stop-opacity="0.61"/><stop offset="0.82" stop-color="#8c368c" stop-opacity="0.66"/><stop offset="0.91" stop-color="#8c378c" stop-opacity="0.68"/><stop offset="0.92" stop-color="#833e91" stop-opacity="0.62"/><stop offset="0.95" stop-color="#6a4f9e" stop-opacity="0.45"/><stop offset="0.98" stop-color="#426cb4" stop-opacity="0.19"/><stop offset="1" stop-color="#2581c4" stop-opacity="0"/></linearGradient><linearGradient id="Безымянный_градиент_8" x1="500" y1="1020.93" x2="480" y2="-44.4" gradientUnits="userSpaceOnUse"><stop offset="0" stop-color="#2581c4"/><stop offset="0.89" stop-color="#951b81" stop-opacity="0"/><stop offset="1" stop-color="#2581c4" stop-opacity="0"/></linearGradient><linearGradient id="Угасающее_небо" x1="317.77" y1="620.42" x2="674.67" y2="620.42" gradientUnits="userSpaceOnUse"><stop offset="0" stop-color="#2581c4"/><stop offset="1" stop-color="#2581c4" stop-opacity="0"/></linearGradient></defs><g id="Слой_2" data-name="Слой 2"><g id="Слой_1-2" data-name="Слой 1"><circle class="cls-1" cx="493.87" cy="493.87" r="483.87"/><path class="cls-2" d="M498.8,249.27c-22.66.29-45.33.6-68,.6,0,0-7.4-.34-10,9.34-2,7.44.06,11.77,2.66,15.88A48.86,48.86,0,0,1,428.25,294c3.54,63.93,10.65,132.25-11.89,193.31C406.57,513.81,397.93,541.84,385,567c-9.16,17.83-63.33,172.33-63.33,172.33s-17.5,47.17-20.33,63.5-3.34,13-2.17,28c4.66,59.81,71.43,73.48,120.36,76.59,57.05,3.62,119.83,3.24,176.6-4.07l.21,0c36.48-4.7,97.77-25.32,97.16-71.5-.37-28.52-14-75.33-24-98s-36.66-105.38-56.66-156.69c-12.65-32.45-25.45-64.85-37.47-97.53-11.05-30.07-13.21-62.36-12.8-94.13.41-31.09.77-62.6,3.32-93.59.77-9.35,5.63-16.66,8.59-25.37,2.11-6.23,2.11-13.69-5-16.56-3.34-1.36-7.05-1.3-10.65-1.22C538.82,248.78,518.81,249,498.8,249.27Z"/><path class="cls-3" d="M446.82,352.5c6.06,55.49-.6,115.32-20.25,168.55-8.54,23.13-16.07,47.56-27.37,69.53-8,15.55-55.21,150.25-55.21,150.25S328.73,782,326.26,796.19c-.09.49-2.5,16.53-1.89,24.42,4.06,52.14,62.27,64.06,104.93,66.77,49.75,3.16,104.48,2.83,154-3.54l.17,0c31.81-4.09,85.25-22.07,84.72-62.33C667.84,796.61,656,755.8,647.24,736s-32-91.88-49.4-136.62c-11-28.28-24.05-55.92-32.66-85-8.57-28.92-14.26-47.27-16.57-82.26-2-30-.66-50.88-1-79.22C547.58,350,446.82,352.5,446.82,352.5Z"/><circle class="cls-4" cx="502.54" cy="226.4" r="8.67"/><circle class="cls-4" cx="467.43" cy="83.29" r="26.45"/><circle class="cls-4" cx="476.54" cy="181.74" r="17.33"/><circle class="cls-4" cx="542.09" cy="194.59" r="14.17"/><circle class="cls-4" cx="524.76" cy="134.22" r="24.48"/></g></g></svg>